<svg id="svg" version="1.1" xmlns="http://www.w3.org/2000/svg" xmlns:xlink="http://www.w3.org/1999/xlink" width="400" height="400" viewBox="0, 0, 400,400"><g id="svgg"><path id="path0" d="M92.400 106.800 C 92.400 107.020,91.961 107.200,91.424 107.200 C 90.887 107.200,90.336 107.380,90.200 107.600 C 90.064 107.820,89.645 108.000,89.268 108.000 C 88.186 108.000,83.500 112.830,82.456 115.020 C 81.937 116.109,81.352 117.313,81.156 117.695 C 80.960 118.077,80.800 119.027,80.800 119.807 C 80.800 120.699,80.577 121.311,80.200 121.455 C 79.287 121.806,79.287 277.794,80.200 278.145 C 80.587 278.293,80.800 278.912,80.800 279.884 C 80.800 283.555,87.080 292.000,89.810 292.000 C 90.140 292.000,90.723 292.158,91.105 292.351 C 93.540 293.581,95.199 293.600,200.000 293.600 C 304.801 293.600,306.460 293.581,308.895 292.351 C 309.277 292.158,309.909 292.000,310.300 292.000 C 312.830 292.000,319.200 283.471,319.200 280.084 C 319.200 279.289,319.436 278.684,319.800 278.545 C 320.331 278.341,320.400 269.217,320.400 199.757 C 320.400 130.195,320.331 121.200,319.800 121.200 C 319.381 121.200,319.200 120.777,319.200 119.795 C 319.200 119.022,319.040 118.077,318.844 117.695 C 318.648 117.313,318.063 116.108,317.544 115.018 C 316.483 112.789,311.854 108.000,310.760 108.000 C 310.368 108.000,309.936 107.820,309.800 107.600 C 309.664 107.380,309.113 107.200,308.576 107.200 C 308.039 107.200,307.600 107.020,307.600 106.800 C 307.600 106.534,271.467 106.400,200.000 106.400 C 128.533 106.400,92.400 106.534,92.400 106.800 M286.400 122.705 C 286.400 122.873,285.911 123.368,285.313 123.805 C 283.792 124.917,281.027 127.340,280.867 127.700 C 280.793 127.865,280.512 128.000,280.242 128.000 C 279.972 128.000,278.502 129.074,276.976 130.387 C 275.449 131.699,273.997 132.779,273.749 132.787 C 273.501 132.794,273.053 133.095,272.755 133.455 C 272.456 133.815,270.589 135.319,268.606 136.796 C 266.623 138.274,264.021 140.320,262.824 141.342 C 261.627 142.364,260.457 143.206,260.224 143.214 C 259.991 143.222,258.841 144.108,257.670 145.183 C 256.498 146.258,254.958 147.413,254.249 147.750 C 253.539 148.087,252.607 148.755,252.179 149.235 C 251.751 149.715,249.960 151.178,248.200 152.488 C 246.440 153.797,244.370 155.438,243.600 156.134 C 242.830 156.830,241.685 157.666,241.056 157.991 C 240.427 158.316,238.735 159.621,237.297 160.891 C 235.858 162.161,234.448 163.200,234.163 163.200 C 233.878 163.200,233.410 163.520,233.123 163.911 C 232.835 164.302,230.520 166.176,227.979 168.075 C 225.437 169.974,223.120 171.814,222.830 172.164 C 222.540 172.514,222.146 172.800,221.955 172.800 C 221.530 172.800,217.133 176.117,216.419 176.977 C 216.135 177.319,215.685 177.600,215.421 177.600 C 215.156 177.600,214.503 178.070,213.970 178.644 C 212.431 180.300,204.151 186.400,203.442 186.400 C 203.089 186.400,202.800 186.580,202.800 186.800 C 202.800 187.029,201.600 187.200,200.000 187.200 C 198.400 187.200,197.200 187.029,197.200 186.800 C 197.200 186.580,196.865 186.400,196.456 186.400 C 196.047 186.400,194.895 185.680,193.895 184.800 C 192.895 183.920,191.959 183.200,191.815 183.200 C 191.456 183.200,188.558 180.921,186.607 179.104 C 185.723 178.282,184.797 177.607,184.549 177.604 C 184.301 177.602,183.865 177.319,183.581 176.977 C 182.867 176.117,178.470 172.800,178.045 172.800 C 177.854 172.800,177.465 172.519,177.181 172.177 C 176.896 171.834,175.569 170.725,174.232 169.714 C 172.894 168.702,171.740 167.723,171.667 167.537 C 171.593 167.352,171.337 167.200,171.098 167.200 C 170.858 167.200,169.627 166.300,168.363 165.200 C 167.098 164.100,165.869 163.200,165.632 163.200 C 165.394 163.200,165.200 163.020,165.200 162.800 C 165.200 162.580,164.983 162.400,164.717 162.400 C 164.451 162.400,163.596 161.778,162.817 161.017 C 162.038 160.257,160.192 158.772,158.716 157.717 C 154.322 154.578,148.655 150.166,147.821 149.233 C 147.393 148.754,146.461 148.087,145.751 147.750 C 145.042 147.413,143.502 146.258,142.330 145.183 C 141.159 144.108,140.009 143.222,139.776 143.214 C 139.543 143.206,138.373 142.364,137.176 141.342 C 135.979 140.320,133.377 138.274,131.394 136.796 C 129.411 135.319,127.544 133.815,127.245 133.455 C 126.947 133.095,126.546 132.800,126.356 132.800 C 125.985 132.800,125.777 132.643,122.424 129.827 C 121.227 128.822,120.094 128.000,119.906 128.000 C 119.719 128.000,118.857 127.345,117.991 126.544 C 117.125 125.743,116.008 124.808,115.509 124.467 C 114.541 123.806,114.016 123.189,114.006 122.700 C 114.003 122.535,152.790 122.400,200.200 122.400 C 247.610 122.400,286.400 122.537,286.400 122.705 M102.031 134.847 C 103.153 135.811,104.626 136.909,105.305 137.287 C 105.985 137.665,107.184 138.582,107.970 139.325 C 108.757 140.067,110.030 141.102,110.800 141.625 C 112.572 142.829,119.642 148.327,121.956 150.302 C 122.921 151.126,124.007 151.915,124.369 152.055 C 124.732 152.196,125.269 152.601,125.563 152.955 C 125.857 153.310,126.256 153.600,126.448 153.600 C 126.641 153.600,127.563 154.320,128.497 155.200 C 129.431 156.080,130.355 156.800,130.549 156.800 C 130.744 156.800,131.570 157.385,132.386 158.100 C 134.908 160.311,137.246 162.142,139.366 163.567 C 140.485 164.318,141.490 165.054,141.600 165.201 C 141.862 165.551,147.304 169.754,149.566 171.352 C 150.537 172.038,152.088 173.230,153.013 174.000 C 156.004 176.490,156.406 176.800,156.632 176.800 C 156.835 176.800,158.928 178.428,162.961 181.724 C 163.819 182.426,164.712 183.073,164.944 183.161 C 165.177 183.250,166.047 183.952,166.879 184.721 C 168.430 186.157,170.970 188.000,171.397 188.000 C 171.529 188.000,172.070 188.434,172.601 188.965 C 173.131 189.495,174.968 190.980,176.683 192.265 C 178.397 193.549,180.070 194.813,180.400 195.074 C 186.279 199.717,190.669 202.400,192.389 202.400 C 193.029 202.400,193.664 202.580,193.800 202.800 C 193.947 203.038,196.463 203.200,200.000 203.200 C 203.537 203.200,206.053 203.038,206.200 202.800 C 206.336 202.580,206.971 202.400,207.611 202.400 C 208.910 202.400,210.590 201.540,214.120 199.068 C 215.430 198.151,216.787 197.220,217.134 197.000 C 217.482 196.780,217.979 196.420,218.238 196.200 C 219.296 195.304,220.346 194.490,223.317 192.265 C 225.032 190.980,226.869 189.495,227.399 188.965 C 227.930 188.434,228.471 188.000,228.603 188.000 C 229.037 188.000,231.581 186.146,233.187 184.660 C 234.055 183.857,234.868 183.200,234.994 183.200 C 235.300 183.200,241.262 178.585,242.616 177.300 C 242.906 177.025,243.244 176.800,243.367 176.800 C 243.612 176.800,243.948 176.538,247.176 173.827 C 248.373 172.822,249.505 172.000,249.693 172.000 C 249.880 172.000,250.431 171.628,250.917 171.174 C 251.403 170.719,253.240 169.250,255.000 167.909 C 256.760 166.568,258.260 165.320,258.333 165.135 C 258.407 164.951,258.637 164.800,258.845 164.800 C 259.053 164.800,260.416 163.874,261.874 162.743 C 265.360 160.037,265.855 159.636,267.611 158.100 C 268.428 157.385,269.278 156.800,269.500 156.800 C 269.722 156.800,270.645 156.080,271.552 155.200 C 272.459 154.320,273.353 153.600,273.538 153.600 C 273.724 153.600,274.202 153.240,274.600 152.800 C 274.998 152.360,275.521 151.999,275.762 151.997 C 276.003 151.996,276.920 151.284,277.800 150.417 C 278.680 149.549,279.547 148.830,279.727 148.820 C 279.907 148.809,281.000 148.035,282.157 147.100 C 283.314 146.165,284.860 144.950,285.593 144.400 C 286.327 143.850,287.155 143.175,287.435 142.900 C 287.714 142.625,288.136 142.400,288.371 142.400 C 288.607 142.400,288.800 142.220,288.800 142.000 C 288.800 141.780,289.025 141.598,289.300 141.597 C 289.575 141.595,290.700 140.702,291.800 139.613 C 292.900 138.525,293.980 137.624,294.200 137.613 C 294.570 137.594,296.759 135.964,299.227 133.871 C 300.614 132.694,301.864 132.000,302.595 132.000 C 303.541 132.000,303.514 276.994,302.567 277.357 C 301.740 277.675,98.260 277.675,97.433 277.357 C 96.787 277.109,96.401 132.533,97.044 131.889 C 97.421 131.513,99.777 132.910,102.031 134.847 " stroke="none" fill="#040404" fill-rule="evenodd"></path><path id="path1" d="M91.600 105.561 C 89.550 106.635,89.149 106.800,88.587 106.800 C 87.854 106.800,85.803 108.736,86.159 109.092 C 86.293 109.227,86.819 108.946,87.327 108.468 C 87.836 107.991,88.555 107.600,88.926 107.600 C 89.297 107.600,89.600 107.420,89.600 107.200 C 89.600 106.980,90.050 106.800,90.600 106.800 C 91.150 106.800,91.600 106.620,91.600 106.400 C 91.600 106.180,92.320 106.000,93.200 106.000 C 94.080 106.000,94.800 105.820,94.800 105.600 C 94.800 105.132,92.474 105.104,91.600 105.561 M305.200 105.600 C 305.200 105.820,305.920 106.000,306.800 106.000 C 307.680 106.000,308.400 106.180,308.400 106.400 C 308.400 106.620,308.850 106.800,309.400 106.800 C 309.950 106.800,310.400 106.980,310.400 107.200 C 310.400 107.420,310.685 107.600,311.033 107.600 C 312.208 107.600,317.160 112.025,317.187 113.100 C 317.194 113.375,317.380 113.600,317.600 113.600 C 317.820 113.600,318.000 113.960,318.000 114.400 C 318.000 114.840,318.180 115.200,318.400 115.200 C 318.620 115.200,318.800 115.560,318.800 116.000 C 318.800 116.440,318.980 116.800,319.200 116.800 C 319.420 116.800,319.600 117.520,319.600 118.400 C 319.600 119.280,319.780 120.000,320.000 120.000 C 320.713 120.000,320.417 117.045,319.600 116.000 C 319.170 115.450,318.814 114.780,318.809 114.512 C 318.795 113.757,317.385 111.420,316.303 110.357 C 314.517 108.604,312.054 106.800,311.447 106.800 C 311.117 106.800,310.736 106.620,310.600 106.400 C 310.464 106.180,309.924 106.000,309.400 106.000 C 308.876 106.000,308.336 105.820,308.200 105.600 C 308.064 105.380,307.333 105.200,306.576 105.200 C 305.819 105.200,305.200 105.380,305.200 105.600 M83.842 110.356 C 83.147 111.082,82.895 111.611,83.165 111.779 C 83.404 111.926,83.805 111.588,84.063 111.023 C 84.319 110.460,84.770 110.000,85.064 110.000 C 85.359 110.000,85.600 109.820,85.600 109.600 C 85.600 108.900,84.983 109.166,83.842 110.356 M82.212 112.517 C 82.041 112.912,82.013 113.347,82.151 113.484 C 82.557 113.890,82.884 113.320,82.697 112.531 C 82.532 111.833,82.510 111.832,82.212 112.517 M81.200 114.600 C 81.200 114.930,81.380 115.200,81.600 115.200 C 81.820 115.200,82.000 114.930,82.000 114.600 C 82.000 114.270,81.820 114.000,81.600 114.000 C 81.380 114.000,81.200 114.270,81.200 114.600 M80.100 116.683 C 79.501 117.973,79.440 120.000,80.000 120.000 C 80.220 120.000,80.400 119.280,80.400 118.400 C 80.400 117.520,80.580 116.800,80.800 116.800 C 81.020 116.800,81.200 116.530,81.200 116.200 C 81.200 115.259,80.649 115.501,80.100 116.683 M114.800 123.200 C 114.800 123.420,114.987 123.600,115.216 123.600 C 115.444 123.600,116.358 124.320,117.247 125.200 C 118.136 126.080,119.119 126.800,119.432 126.800 C 119.744 126.800,120.000 126.980,120.000 127.200 C 120.000 127.420,120.270 127.600,120.600 127.600 C 120.930 127.600,121.200 127.780,121.200 128.000 C 121.200 128.220,121.358 128.400,121.551 128.400 C 121.743 128.400,122.666 129.120,123.600 130.000 C 124.534 130.880,125.466 131.600,125.671 131.600 C 125.876 131.600,126.619 132.139,127.322 132.798 C 128.589 133.986,129.198 134.278,129.203 133.700 C 129.206 133.316,126.318 130.800,125.873 130.800 C 125.688 130.800,124.870 130.125,124.054 129.300 C 123.237 128.475,122.217 127.603,121.785 127.362 C 119.560 126.122,118.968 125.727,118.122 124.918 C 117.615 124.433,117.200 123.938,117.200 123.818 C 117.200 123.698,154.460 123.600,200.000 123.600 C 245.540 123.600,282.800 123.698,282.800 123.818 C 282.800 124.221,281.010 125.795,279.900 126.368 C 279.295 126.680,278.800 127.085,278.800 127.268 C 278.800 127.450,278.531 127.600,278.202 127.600 C 277.873 127.600,276.685 128.500,275.561 129.600 C 274.438 130.700,273.339 131.600,273.120 131.600 C 272.901 131.600,272.217 132.140,271.600 132.800 C 270.983 133.460,270.280 134.000,270.036 134.000 C 269.792 134.000,269.028 134.540,268.337 135.200 C 267.646 135.860,266.910 136.400,266.701 136.400 C 266.492 136.400,265.817 136.940,265.200 137.600 C 264.583 138.260,263.867 138.800,263.608 138.800 C 263.349 138.800,262.446 139.520,261.600 140.400 C 260.754 141.280,259.861 142.000,259.615 142.000 C 259.368 142.000,258.780 142.360,258.308 142.800 C 257.836 143.240,257.213 143.600,256.925 143.600 C 256.636 143.600,256.400 143.960,256.400 144.400 C 256.400 145.516,256.905 145.304,259.016 143.300 C 259.306 143.025,259.736 142.800,259.971 142.800 C 260.207 142.800,260.400 142.620,260.400 142.400 C 260.400 142.180,260.606 142.000,260.857 142.000 C 261.108 142.000,261.829 141.460,262.460 140.800 C 263.091 140.140,263.693 139.600,263.799 139.600 C 263.995 139.600,265.271 138.597,266.216 137.700 C 266.506 137.425,266.936 137.200,267.171 137.200 C 267.407 137.200,267.600 137.020,267.600 136.800 C 267.600 136.580,267.830 136.400,268.112 136.400 C 268.393 136.400,268.883 136.040,269.200 135.600 C 269.517 135.160,269.918 134.800,270.092 134.800 C 270.373 134.800,272.007 133.477,273.427 132.100 C 273.711 131.825,274.113 131.600,274.322 131.600 C 274.531 131.600,275.420 130.923,276.299 130.095 C 277.178 129.268,278.370 128.337,278.948 128.028 C 279.527 127.718,280.000 127.315,280.000 127.132 C 280.000 126.950,280.240 126.800,280.533 126.800 C 280.827 126.800,281.847 126.080,282.800 125.200 C 283.753 124.320,284.683 123.600,284.867 123.600 C 285.050 123.600,285.200 123.420,285.200 123.200 C 285.200 122.935,256.533 122.800,200.000 122.800 C 143.467 122.800,114.800 122.935,114.800 123.200 M97.200 204.400 C 97.200 252.133,97.335 276.400,97.600 276.400 C 97.865 276.400,98.000 252.400,98.000 205.200 C 98.000 158.000,98.135 134.000,98.400 134.000 C 98.620 134.000,98.800 134.180,98.800 134.400 C 98.800 134.620,99.084 134.800,99.431 134.800 C 99.779 134.800,100.754 135.520,101.600 136.400 C 102.446 137.280,103.382 138.000,103.680 138.000 C 103.979 138.000,104.483 138.360,104.800 138.800 C 105.117 139.240,105.697 139.600,106.088 139.600 C 106.480 139.600,106.800 139.876,106.800 140.213 C 106.800 140.549,107.106 140.943,107.481 141.086 C 107.855 141.230,108.692 141.854,109.340 142.474 C 109.988 143.093,110.674 143.600,110.863 143.600 C 111.052 143.600,111.772 144.140,112.463 144.800 C 113.154 145.460,113.890 146.000,114.099 146.000 C 114.308 146.000,114.983 146.540,115.600 147.200 C 116.217 147.860,116.943 148.400,117.214 148.400 C 117.484 148.400,117.997 148.724,118.353 149.119 C 118.709 149.514,119.630 150.271,120.400 150.800 C 121.170 151.329,122.091 152.086,122.447 152.481 C 122.803 152.876,123.303 153.200,123.559 153.200 C 123.815 153.200,124.948 154.100,126.077 155.200 C 127.207 156.300,128.371 157.200,128.665 157.200 C 128.959 157.200,129.200 157.380,129.200 157.600 C 129.200 157.820,129.470 158.000,129.800 158.000 C 130.729 158.000,130.511 157.439,129.300 156.714 C 128.695 156.352,127.525 155.413,126.699 154.628 C 125.874 153.843,125.019 153.200,124.799 153.200 C 124.580 153.200,124.400 153.020,124.400 152.800 C 124.400 152.580,124.136 152.400,123.814 152.400 C 123.492 152.400,123.056 152.085,122.846 151.700 C 122.635 151.315,121.729 150.553,120.831 150.006 C 119.934 149.459,119.200 148.874,119.200 148.706 C 119.200 148.538,119.012 148.400,118.783 148.400 C 118.554 148.400,117.969 148.023,117.483 147.562 C 116.997 147.101,115.790 146.167,114.800 145.485 C 113.810 144.804,112.765 143.921,112.477 143.523 C 112.190 143.125,111.701 142.800,111.391 142.800 C 111.081 142.800,110.146 142.179,109.314 141.421 C 106.695 139.034,105.510 138.087,104.457 137.535 C 103.895 137.241,102.977 136.537,102.417 135.970 C 101.393 134.934,97.852 132.400,97.428 132.400 C 97.303 132.400,97.200 164.800,97.200 204.400 M300.400 133.690 C 299.410 134.380,298.142 135.407,297.583 135.972 C 297.023 136.537,296.105 137.241,295.543 137.535 C 294.490 138.087,293.305 139.034,290.686 141.421 C 289.854 142.179,288.919 142.800,288.609 142.800 C 288.299 142.800,287.810 143.122,287.523 143.516 C 287.235 143.910,286.370 144.673,285.600 145.212 C 284.830 145.751,283.678 146.688,283.041 147.296 C 282.403 147.903,281.730 148.400,281.545 148.400 C 281.185 148.400,280.349 149.035,277.989 151.100 C 277.172 151.815,276.300 152.400,276.052 152.400 C 275.803 152.400,275.600 152.580,275.600 152.800 C 275.600 153.020,275.420 153.200,275.201 153.200 C 274.981 153.200,274.126 153.843,273.301 154.628 C 272.475 155.413,271.305 156.352,270.700 156.714 C 269.489 157.439,269.271 158.000,270.200 158.000 C 270.530 158.000,270.800 157.820,270.800 157.600 C 270.800 157.380,271.052 157.200,271.359 157.200 C 271.667 157.200,272.838 156.300,273.961 155.200 C 275.085 154.100,276.185 153.200,276.406 153.200 C 276.627 153.200,277.372 152.660,278.063 152.000 C 278.754 151.340,279.474 150.800,279.663 150.800 C 279.852 150.800,280.572 150.260,281.263 149.600 C 281.954 148.940,282.674 148.400,282.863 148.400 C 283.052 148.400,283.772 147.860,284.463 147.200 C 285.154 146.540,285.890 146.000,286.099 146.000 C 286.308 146.000,286.983 145.460,287.600 144.800 C 288.217 144.140,288.892 143.600,289.101 143.600 C 289.310 143.600,290.012 143.093,290.660 142.474 C 291.308 141.854,292.145 141.230,292.519 141.086 C 292.894 140.943,293.200 140.549,293.200 140.213 C 293.200 139.876,293.520 139.600,293.912 139.600 C 294.303 139.600,294.883 139.240,295.200 138.800 C 295.517 138.360,296.021 138.000,296.320 138.000 C 296.618 138.000,297.554 137.280,298.400 136.400 C 299.246 135.520,300.221 134.800,300.569 134.800 C 300.916 134.800,301.200 134.620,301.200 134.400 C 301.200 134.180,301.380 134.000,301.600 134.000 C 301.865 134.000,302.000 158.000,302.000 205.200 C 302.000 252.400,302.135 276.400,302.400 276.400 C 302.665 276.400,302.800 252.133,302.800 204.400 C 302.800 164.800,302.665 132.408,302.500 132.418 C 302.335 132.428,301.390 133.000,300.400 133.690 M129.600 134.373 C 129.600 134.578,130.185 135.156,130.900 135.658 C 131.615 136.160,132.260 136.713,132.333 136.886 C 132.407 137.058,132.722 137.200,133.033 137.200 C 133.345 137.200,133.600 137.337,133.600 137.504 C 133.600 137.915,135.226 138.907,135.481 138.652 C 135.732 138.401,133.774 136.400,133.278 136.400 C 133.080 136.400,132.354 135.860,131.663 135.200 C 130.405 133.998,129.600 133.675,129.600 134.373 M135.800 139.200 C 135.664 139.420,135.742 139.600,135.973 139.600 C 136.204 139.600,136.909 140.140,137.540 140.800 C 138.171 141.460,138.892 142.000,139.143 142.000 C 139.394 142.000,139.600 142.180,139.600 142.400 C 139.600 142.620,139.843 142.800,140.141 142.800 C 140.438 142.800,141.232 143.326,141.905 143.969 C 142.578 144.612,143.210 145.057,143.310 144.957 C 143.410 144.857,143.790 145.231,144.155 145.788 C 144.520 146.344,145.084 146.800,145.409 146.800 C 145.734 146.800,146.000 146.980,146.000 147.200 C 146.000 147.420,146.276 147.600,146.613 147.600 C 146.949 147.600,147.327 147.866,147.452 148.192 C 147.577 148.517,148.253 149.138,148.953 149.571 C 149.654 150.004,150.761 150.818,151.414 151.379 C 152.066 151.940,152.743 152.399,152.918 152.400 C 153.093 152.400,153.664 152.805,154.187 153.300 C 156.405 155.399,157.638 156.400,158.007 156.400 C 158.223 156.400,158.400 156.580,158.400 156.800 C 158.400 157.020,158.633 157.200,158.917 157.200 C 159.201 157.200,160.326 158.018,161.417 159.019 C 162.508 160.019,163.895 161.138,164.500 161.505 C 165.105 161.872,165.600 162.314,165.600 162.486 C 165.600 162.659,165.855 162.800,166.166 162.800 C 166.477 162.800,167.351 163.385,168.108 164.100 C 170.119 165.998,171.158 166.800,171.605 166.800 C 171.822 166.800,172.000 166.941,172.000 167.114 C 172.000 167.286,172.518 167.733,173.151 168.107 C 173.784 168.481,174.846 169.285,175.511 169.894 C 177.331 171.559,178.103 172.144,179.306 172.768 C 179.908 173.080,180.400 173.485,180.400 173.668 C 180.400 173.850,180.627 174.000,180.904 174.000 C 181.182 174.000,181.855 174.540,182.400 175.200 C 182.945 175.860,183.618 176.400,183.896 176.400 C 184.173 176.400,184.400 176.580,184.400 176.800 C 184.400 177.020,184.625 177.201,184.900 177.201 C 185.354 177.203,186.057 177.743,189.800 180.966 C 190.460 181.534,191.159 181.999,191.353 182.000 C 191.547 182.000,191.997 182.326,192.353 182.725 C 193.339 183.831,196.664 186.000,197.372 186.000 C 197.717 186.000,198.000 186.180,198.000 186.400 C 198.000 186.620,198.900 186.800,200.000 186.800 C 201.100 186.800,202.000 186.620,202.000 186.400 C 202.000 186.180,202.272 186.000,202.605 186.000 C 203.570 186.000,205.518 184.749,207.432 182.900 C 207.944 182.405,208.602 182.000,208.894 182.000 C 209.185 182.000,209.683 181.640,210.000 181.200 C 210.317 180.760,210.717 180.400,210.888 180.400 C 211.059 180.400,211.941 179.680,212.848 178.800 C 213.755 177.920,214.745 177.200,215.048 177.200 C 215.352 177.200,215.600 177.020,215.600 176.800 C 215.600 176.580,215.850 176.400,216.155 176.400 C 216.460 176.400,217.135 175.862,217.655 175.204 C 218.175 174.546,218.825 174.006,219.100 174.004 C 219.375 174.002,219.600 173.850,219.600 173.668 C 219.600 173.485,220.092 173.080,220.694 172.768 C 221.924 172.130,222.867 171.419,224.232 170.100 C 224.744 169.605,225.260 169.200,225.377 169.200 C 225.592 169.200,226.833 168.233,227.816 167.300 C 228.106 167.025,228.514 166.800,228.723 166.800 C 228.932 166.800,230.047 165.900,231.200 164.800 C 232.353 163.700,233.545 162.800,233.848 162.800 C 234.152 162.800,234.400 162.620,234.400 162.400 C 234.400 162.180,234.582 162.000,234.803 162.000 C 235.196 162.000,236.780 160.721,238.643 158.900 C 239.149 158.405,239.752 158.000,239.982 158.000 C 240.212 158.000,240.400 157.820,240.400 157.600 C 240.400 157.380,240.670 157.200,241.000 157.200 C 241.330 157.200,241.600 157.020,241.600 156.800 C 241.600 156.580,241.778 156.400,241.995 156.400 C 242.408 156.400,243.253 155.757,245.289 153.894 C 245.954 153.285,247.016 152.481,247.649 152.107 C 248.282 151.733,248.800 151.286,248.800 151.114 C 248.800 150.941,249.070 150.800,249.400 150.800 C 249.730 150.800,250.000 150.620,250.000 150.400 C 250.000 150.180,250.227 150.000,250.504 150.000 C 250.782 150.000,251.455 149.460,252.000 148.800 C 252.545 148.140,253.173 147.600,253.396 147.600 C 253.859 147.599,256.000 145.835,256.000 145.453 C 256.000 144.889,254.940 145.251,254.400 146.000 C 254.083 146.440,253.593 146.800,253.312 146.800 C 253.031 146.800,252.059 147.520,251.152 148.400 C 250.245 149.280,249.295 150.000,249.040 150.000 C 248.785 150.000,248.317 150.360,248.000 150.800 C 247.683 151.240,247.231 151.600,246.996 151.600 C 246.760 151.600,245.772 152.320,244.800 153.200 C 243.828 154.080,242.800 154.800,242.516 154.800 C 242.232 154.800,242.000 155.062,242.000 155.381 C 242.000 155.701,241.325 156.279,240.500 156.665 C 239.675 157.052,238.359 158.005,237.577 158.784 C 236.794 159.563,235.669 160.455,235.077 160.768 C 234.484 161.080,234.000 161.485,234.000 161.668 C 234.000 161.850,233.716 162.000,233.369 162.000 C 233.021 162.000,232.046 162.720,231.200 163.600 C 230.354 164.480,229.495 165.200,229.291 165.200 C 229.086 165.200,228.354 165.740,227.663 166.400 C 226.972 167.060,226.247 167.600,226.052 167.600 C 225.857 167.600,224.753 168.500,223.600 169.600 C 222.447 170.700,221.255 171.600,220.952 171.600 C 220.648 171.600,220.400 171.750,220.400 171.932 C 220.400 172.115,219.905 172.520,219.300 172.832 C 218.695 173.145,217.539 174.075,216.731 174.900 C 215.924 175.725,215.018 176.400,214.720 176.400 C 214.421 176.400,213.917 176.760,213.600 177.200 C 213.283 177.640,212.837 178.000,212.610 178.000 C 212.382 178.000,211.431 178.720,210.497 179.600 C 209.563 180.480,208.657 181.200,208.483 181.200 C 208.310 181.200,207.372 181.920,206.400 182.800 C 205.428 183.680,204.400 184.400,204.116 184.400 C 203.832 184.400,203.600 184.580,203.600 184.800 C 203.600 185.020,203.240 185.200,202.800 185.200 C 202.360 185.200,202.000 185.380,202.000 185.600 C 202.000 185.820,201.100 186.000,200.000 186.000 C 198.900 186.000,198.000 185.820,198.000 185.600 C 198.000 185.380,197.640 185.200,197.200 185.200 C 196.760 185.200,196.400 185.020,196.400 184.800 C 196.400 184.580,196.168 184.400,195.884 184.400 C 195.600 184.400,194.572 183.680,193.600 182.800 C 192.628 181.920,191.676 181.200,191.485 181.200 C 191.294 181.200,190.424 180.480,189.553 179.600 C 188.682 178.720,187.746 178.000,187.473 178.000 C 187.200 178.000,186.717 177.640,186.400 177.200 C 186.083 176.760,185.579 176.400,185.280 176.400 C 184.982 176.400,184.076 175.725,183.269 174.900 C 182.461 174.075,181.305 173.145,180.700 172.832 C 180.095 172.520,179.600 172.115,179.600 171.932 C 179.600 171.750,179.240 171.600,178.800 171.600 C 178.348 171.600,178.000 171.333,178.000 170.987 C 178.000 170.651,177.694 170.257,177.319 170.114 C 176.945 169.970,176.108 169.346,175.460 168.726 C 174.812 168.107,174.126 167.600,173.937 167.600 C 173.748 167.600,173.028 167.060,172.337 166.400 C 171.646 165.740,170.914 165.200,170.709 165.200 C 170.505 165.200,169.646 164.480,168.800 163.600 C 167.954 162.720,166.979 162.000,166.631 162.000 C 166.284 162.000,166.000 161.850,166.000 161.668 C 166.000 161.485,165.516 161.080,164.923 160.768 C 164.331 160.455,163.176 159.525,162.355 158.700 C 161.534 157.875,160.691 157.200,160.482 157.200 C 160.272 157.200,159.313 156.480,158.351 155.600 C 157.388 154.720,156.464 154.000,156.297 154.000 C 156.129 154.000,155.428 153.460,154.737 152.800 C 154.046 152.140,153.278 151.600,153.029 151.600 C 152.780 151.600,152.317 151.240,152.000 150.800 C 151.683 150.360,151.215 150.000,150.960 150.000 C 150.705 150.000,149.755 149.280,148.848 148.400 C 147.941 147.520,146.995 146.800,146.746 146.800 C 146.498 146.800,146.003 146.473,145.647 146.072 C 145.291 145.672,144.685 145.228,144.300 145.085 C 143.915 144.942,143.600 144.549,143.600 144.213 C 143.600 143.876,143.364 143.600,143.075 143.600 C 142.787 143.600,142.164 143.240,141.692 142.800 C 141.220 142.360,140.632 142.000,140.385 142.000 C 140.139 142.000,139.246 141.280,138.400 140.400 C 136.830 138.766,136.237 138.492,135.800 139.200 M130.800 158.213 C 130.800 158.574,133.321 160.958,134.800 161.996 C 135.570 162.536,136.549 163.298,136.975 163.689 C 137.402 164.080,137.921 164.400,138.129 164.400 C 138.336 164.400,138.797 164.717,139.153 165.103 C 140.010 166.035,144.194 169.200,144.568 169.200 C 144.730 169.200,145.554 169.920,146.400 170.800 C 147.807 172.264,148.800 172.814,148.800 172.128 C 148.800 171.747,145.163 168.400,144.749 168.400 C 144.426 168.400,143.332 167.590,142.184 166.500 C 141.894 166.225,141.553 166.000,141.425 166.000 C 141.297 166.000,140.628 165.460,139.937 164.800 C 139.246 164.140,138.504 163.600,138.288 163.600 C 138.071 163.600,137.603 163.276,137.247 162.881 C 136.891 162.486,135.970 161.732,135.200 161.206 C 134.430 160.680,133.334 159.744,132.764 159.125 C 131.840 158.121,130.800 157.638,130.800 158.213 M266.847 159.600 C 265.958 160.480,265.071 161.200,264.875 161.200 C 264.679 161.200,263.954 161.740,263.263 162.400 C 262.572 163.060,261.852 163.600,261.663 163.600 C 261.474 163.600,260.754 164.140,260.063 164.800 C 259.372 165.460,258.703 166.000,258.575 166.000 C 258.447 166.000,258.106 166.225,257.816 166.500 C 256.668 167.590,255.574 168.400,255.251 168.400 C 254.837 168.400,251.200 171.747,251.200 172.128 C 251.200 172.814,252.193 172.264,253.600 170.800 C 254.446 169.920,255.421 169.200,255.769 169.200 C 256.116 169.200,256.400 169.059,256.400 168.886 C 256.400 168.714,256.895 168.276,257.500 167.914 C 258.105 167.552,259.275 166.613,260.101 165.828 C 260.926 165.043,261.747 164.400,261.926 164.400 C 262.104 164.400,262.598 164.080,263.025 163.689 C 263.451 163.298,264.430 162.536,265.200 161.996 C 266.679 160.958,269.200 158.574,269.200 158.213 C 269.200 157.630,268.304 158.158,266.847 159.600 M149.200 172.629 C 149.200 173.098,150.365 174.000,150.971 174.000 C 151.317 174.000,151.600 174.276,151.600 174.613 C 151.600 174.949,151.915 175.342,152.300 175.485 C 152.685 175.628,153.291 176.072,153.647 176.472 C 154.003 176.873,154.460 177.200,154.663 177.200 C 154.866 177.200,155.828 177.920,156.800 178.800 C 157.772 179.680,158.724 180.400,158.915 180.400 C 159.106 180.400,159.976 181.120,160.847 182.000 C 161.718 182.880,162.694 183.600,163.015 183.600 C 163.337 183.600,163.600 183.750,163.600 183.932 C 163.600 184.115,164.095 184.520,164.700 184.832 C 165.305 185.145,166.461 186.075,167.269 186.900 C 168.076 187.725,168.946 188.400,169.200 188.400 C 169.455 188.400,170.397 189.120,171.295 190.000 C 172.193 190.880,173.129 191.600,173.375 191.600 C 173.622 191.600,174.083 191.960,174.400 192.400 C 174.717 192.840,175.207 193.200,175.488 193.200 C 175.769 193.200,176.741 193.920,177.648 194.800 C 178.555 195.680,179.456 196.400,179.652 196.400 C 179.847 196.400,180.572 196.940,181.263 197.600 C 181.954 198.260,182.696 198.800,182.912 198.800 C 183.129 198.800,183.597 199.116,183.953 199.503 C 184.309 199.889,185.095 200.460,185.700 200.770 C 186.305 201.081,186.800 201.485,186.800 201.668 C 186.800 201.850,187.160 202.000,187.600 202.000 C 188.040 202.000,188.400 202.180,188.400 202.400 C 188.400 202.620,188.749 202.800,189.176 202.800 C 189.603 202.800,190.064 202.980,190.200 203.200 C 190.336 203.420,190.977 203.600,191.624 203.600 C 192.271 203.600,192.800 203.420,192.800 203.200 C 192.800 202.980,192.170 202.800,191.400 202.800 C 190.630 202.800,190.000 202.620,190.000 202.400 C 190.000 202.180,189.640 202.000,189.200 202.000 C 188.760 202.000,188.400 201.820,188.400 201.600 C 188.400 201.380,188.130 201.200,187.800 201.200 C 187.470 201.200,187.200 201.020,187.200 200.800 C 187.200 200.580,186.930 200.400,186.600 200.400 C 186.270 200.400,186.000 200.220,186.000 200.000 C 186.000 199.780,185.730 199.600,185.400 199.600 C 185.070 199.600,184.800 199.459,184.800 199.286 C 184.800 199.114,184.267 198.657,183.615 198.272 C 182.963 197.887,182.198 197.347,181.915 197.073 C 181.632 196.798,180.770 196.135,180.000 195.600 C 179.230 195.064,178.060 194.126,177.400 193.515 C 176.740 192.904,175.975 192.403,175.700 192.402 C 175.425 192.401,175.200 192.259,175.200 192.086 C 175.200 191.914,174.705 191.469,174.100 191.098 C 173.495 190.726,172.282 189.788,171.404 189.011 C 170.527 188.235,169.665 187.600,169.489 187.600 C 169.313 187.600,168.442 186.880,167.553 186.000 C 166.664 185.120,165.681 184.400,165.368 184.400 C 165.056 184.400,164.800 184.259,164.800 184.086 C 164.800 183.914,164.215 183.438,163.500 183.029 C 162.785 182.620,161.840 181.898,161.400 181.424 C 160.960 180.950,159.970 180.128,159.200 179.598 C 158.430 179.067,157.565 178.310,157.277 177.916 C 156.990 177.522,156.487 177.200,156.159 177.200 C 155.832 177.200,155.149 176.795,154.643 176.300 C 152.780 174.479,151.196 173.200,150.803 173.200 C 150.582 173.200,150.400 173.020,150.400 172.800 C 150.400 172.580,150.130 172.400,149.800 172.400 C 149.470 172.400,149.200 172.503,149.200 172.629 M249.600 172.800 C 249.600 173.020,249.418 173.200,249.197 173.200 C 248.804 173.200,247.220 174.479,245.357 176.300 C 244.851 176.795,244.224 177.200,243.965 177.200 C 243.706 177.200,243.203 177.524,242.847 177.919 C 242.491 178.314,241.570 179.071,240.800 179.600 C 240.030 180.129,239.104 180.891,238.742 181.294 C 238.380 181.697,236.940 182.763,235.542 183.663 C 234.144 184.563,232.534 185.817,231.964 186.450 C 231.395 187.082,230.763 187.600,230.560 187.600 C 230.357 187.600,229.473 188.235,228.596 189.011 C 227.718 189.788,226.505 190.726,225.900 191.098 C 225.295 191.469,224.800 191.914,224.800 192.086 C 224.800 192.259,224.575 192.401,224.300 192.402 C 224.025 192.403,223.260 192.904,222.600 193.515 C 221.940 194.126,220.770 195.064,220.000 195.600 C 219.230 196.135,218.368 196.798,218.085 197.073 C 217.802 197.347,217.037 197.887,216.385 198.272 C 215.733 198.657,215.200 199.114,215.200 199.286 C 215.200 199.459,214.930 199.600,214.600 199.600 C 214.270 199.600,214.000 199.780,214.000 200.000 C 214.000 200.220,213.730 200.400,213.400 200.400 C 213.070 200.400,212.800 200.580,212.800 200.800 C 212.800 201.020,212.530 201.200,212.200 201.200 C 211.870 201.200,211.600 201.380,211.600 201.600 C 211.600 201.820,211.240 202.000,210.800 202.000 C 210.360 202.000,210.000 202.180,210.000 202.400 C 210.000 202.620,209.370 202.800,208.600 202.800 C 207.830 202.800,207.200 202.980,207.200 203.200 C 207.200 203.420,207.830 203.600,208.600 203.600 C 209.370 203.600,210.000 203.420,210.000 203.200 C 210.000 202.980,210.272 202.800,210.605 202.800 C 211.314 202.800,212.630 202.089,213.755 201.100 C 214.193 200.715,214.747 200.400,214.987 200.400 C 215.227 200.400,215.683 200.040,216.000 199.600 C 216.317 199.160,216.780 198.800,217.029 198.800 C 217.278 198.800,218.046 198.260,218.737 197.600 C 219.428 196.940,220.188 196.400,220.428 196.400 C 220.667 196.400,221.554 195.680,222.400 194.800 C 223.246 193.920,224.182 193.200,224.480 193.200 C 224.779 193.200,225.283 192.840,225.600 192.400 C 225.917 191.960,226.385 191.600,226.640 191.600 C 226.895 191.600,227.845 190.880,228.752 190.000 C 229.659 189.120,230.595 188.400,230.832 188.400 C 231.069 188.400,231.954 187.680,232.800 186.800 C 233.646 185.920,234.582 185.200,234.880 185.200 C 235.179 185.200,235.683 184.840,236.000 184.400 C 236.317 183.960,236.800 183.600,237.073 183.600 C 237.346 183.600,238.282 182.880,239.153 182.000 C 240.024 181.120,240.931 180.400,241.168 180.400 C 241.405 180.400,242.341 179.680,243.248 178.800 C 244.155 177.920,245.105 177.200,245.360 177.200 C 245.615 177.200,246.083 176.840,246.400 176.400 C 246.717 175.960,247.201 175.600,247.474 175.600 C 247.748 175.600,248.165 175.240,248.400 174.800 C 248.635 174.360,249.015 174.000,249.243 174.000 C 249.682 174.000,250.800 173.015,250.800 172.629 C 250.800 172.503,250.530 172.400,250.200 172.400 C 249.870 172.400,249.600 172.580,249.600 172.800 M194.000 204.000 C 194.000 204.220,194.720 204.400,195.600 204.400 C 196.480 204.400,197.200 204.220,197.200 204.000 C 197.200 203.780,196.480 203.600,195.600 203.600 C 194.720 203.600,194.000 203.780,194.000 204.000 M202.800 204.000 C 202.800 204.220,203.520 204.400,204.400 204.400 C 205.280 204.400,206.000 204.220,206.000 204.000 C 206.000 203.780,205.280 203.600,204.400 203.600 C 203.520 203.600,202.800 203.780,202.800 204.000 M79.600 281.200 C 79.600 282.080,79.780 282.800,80.000 282.800 C 80.220 282.800,80.400 283.160,80.400 283.600 C 80.400 284.040,80.580 284.400,80.800 284.400 C 81.020 284.400,81.200 284.760,81.200 285.200 C 81.200 285.640,81.380 286.000,81.600 286.000 C 81.820 286.000,82.000 285.640,82.000 285.200 C 82.000 284.760,81.820 284.400,81.600 284.400 C 81.380 284.400,81.200 284.040,81.200 283.600 C 81.200 283.160,81.020 282.800,80.800 282.800 C 80.580 282.800,80.400 282.080,80.400 281.200 C 80.400 280.320,80.220 279.600,80.000 279.600 C 79.780 279.600,79.600 280.320,79.600 281.200 M319.600 281.200 C 319.600 282.080,319.420 282.800,319.200 282.800 C 318.980 282.800,318.800 283.160,318.800 283.600 C 318.800 284.040,318.620 284.400,318.400 284.400 C 318.180 284.400,318.000 284.760,318.000 285.200 C 318.000 285.640,318.180 286.000,318.400 286.000 C 318.620 286.000,318.800 285.640,318.800 285.200 C 318.800 284.760,318.935 284.399,319.100 284.397 C 319.617 284.391,320.400 282.299,320.400 280.920 C 320.400 280.194,320.220 279.600,320.000 279.600 C 319.780 279.600,319.600 280.320,319.600 281.200 M82.000 286.827 C 82.000 287.714,88.061 293.200,89.041 293.200 C 89.568 293.200,90.000 293.020,90.000 292.800 C 90.000 292.580,89.647 292.400,89.217 292.400 C 88.784 292.400,87.046 291.057,85.334 289.400 C 82.023 286.194,82.000 286.177,82.000 286.827 M314.600 289.423 C 312.857 291.225,311.460 292.333,310.900 292.359 C 309.689 292.414,309.744 293.200,310.959 293.200 C 311.939 293.200,318.000 287.714,318.000 286.827 C 318.000 286.060,317.440 286.487,314.600 289.423 M90.800 293.600 C 90.800 293.820,91.149 294.000,91.576 294.000 C 92.003 294.000,92.464 294.180,92.600 294.400 C 92.764 294.665,128.996 294.800,200.000 294.800 C 271.004 294.800,307.236 294.665,307.400 294.400 C 307.536 294.180,307.997 294.000,308.424 294.000 C 308.851 294.000,309.200 293.820,309.200 293.600 C 309.200 293.380,308.840 293.200,308.400 293.200 C 307.960 293.200,307.600 293.380,307.600 293.600 C 307.600 293.866,271.467 294.000,200.000 294.000 C 128.533 294.000,92.400 293.866,92.400 293.600 C 92.400 293.380,92.040 293.200,91.600 293.200 C 91.160 293.200,90.800 293.380,90.800 293.600 " stroke="none" fill="#7b7b7b" fill-rule="evenodd"></path><path id="path2" d="M294.100 105.894 C 295.145 105.976,296.855 105.976,297.900 105.894 C 298.945 105.812,298.090 105.744,296.000 105.744 C 293.910 105.744,293.055 105.812,294.100 105.894 " stroke="none" fill="#3c3c3c" fill-rule="evenodd"></path><path id="path3" d="M97.400 105.584 C 98.049 105.850,97.897 105.945,96.600 106.089 C 95.720 106.186,142.250 106.266,200.000 106.266 C 257.750 106.266,304.280 106.186,303.400 106.089 C 302.103 105.945,301.951 105.850,302.600 105.584 C 303.040 105.404,256.870 105.256,200.000 105.256 C 143.130 105.256,96.960 105.404,97.400 105.584 M297.900 105.894 C 296.855 105.976,295.145 105.976,294.100 105.894 C 293.055 105.812,293.910 105.744,296.000 105.744 C 298.090 105.744,298.945 105.812,297.900 105.894 M86.975 109.300 L 85.800 110.600 87.100 109.425 C 88.312 108.330,88.584 108.000,88.275 108.000 C 88.206 108.000,87.621 108.585,86.975 109.300 M80.060 120.666 C 79.762 120.989,79.630 121.364,79.766 121.500 C 80.101 121.834,80.927 120.970,80.745 120.474 C 80.665 120.256,80.357 120.342,80.060 120.666 M121.600 128.925 C 121.600 128.994,122.185 129.579,122.900 130.225 L 124.200 131.400 123.025 130.100 C 121.930 128.888,121.600 128.616,121.600 128.925 M276.975 130.100 L 275.800 131.400 277.100 130.225 C 277.815 129.579,278.400 128.994,278.400 128.925 C 278.400 128.616,278.070 128.888,276.975 130.100 M126.800 132.925 C 126.800 132.994,127.385 133.579,128.100 134.225 L 129.400 135.400 128.225 134.100 C 127.130 132.888,126.800 132.616,126.800 132.925 M271.775 134.100 L 270.600 135.400 271.900 134.225 C 272.615 133.579,273.200 132.994,273.200 132.925 C 273.200 132.616,272.870 132.888,271.775 134.100 M105.639 137.700 C 105.735 137.755,106.620 138.520,107.606 139.400 L 109.400 141.000 107.819 139.300 C 106.949 138.365,106.064 137.600,105.852 137.600 C 105.640 137.600,105.544 137.645,105.639 137.700 M291.775 139.700 L 290.600 141.000 291.900 139.825 C 292.615 139.179,293.200 138.594,293.200 138.525 C 293.200 138.216,292.870 138.488,291.775 139.700 M136.000 140.125 C 136.000 140.194,136.585 140.779,137.300 141.425 L 138.600 142.600 137.425 141.300 C 136.330 140.088,136.000 139.816,136.000 140.125 M262.575 141.300 L 261.400 142.600 262.700 141.425 C 263.415 140.779,264.000 140.194,264.000 140.125 C 264.000 139.816,263.670 140.088,262.575 141.300 M109.600 141.095 C 109.600 141.484,111.214 142.519,111.451 142.282 C 111.547 142.186,111.169 141.810,110.612 141.445 C 110.056 141.080,109.600 140.922,109.600 141.095 M112.000 142.602 C 112.000 142.932,112.706 143.577,114.311 144.712 C 116.177 146.032,115.893 145.536,113.800 143.821 C 112.810 143.010,112.000 142.461,112.000 142.602 M286.229 143.829 C 285.805 144.138,285.536 144.469,285.630 144.563 C 285.724 144.657,286.148 144.481,286.571 144.171 C 286.995 143.862,287.264 143.531,287.170 143.437 C 287.076 143.343,286.652 143.519,286.229 143.829 M283.002 146.398 C 282.603 146.839,282.407 147.200,282.567 147.200 C 282.988 147.200,284.128 145.995,283.912 145.779 C 283.811 145.678,283.402 145.956,283.002 146.398 M277.375 150.900 L 276.200 152.200 277.500 151.025 C 278.215 150.379,278.800 149.794,278.800 149.725 C 278.800 149.416,278.470 149.688,277.375 150.900 M151.744 152.309 C 152.060 152.821,154.400 154.553,154.400 154.275 C 154.400 154.176,153.739 153.591,152.932 152.975 C 152.124 152.359,151.589 152.059,151.744 152.309 M272.460 154.242 C 272.162 154.578,271.999 154.932,272.095 155.029 C 272.192 155.126,272.598 154.844,272.998 154.402 C 273.397 153.961,273.561 153.607,273.362 153.615 C 273.163 153.624,272.757 153.905,272.460 154.242 M265.429 159.829 C 265.005 160.138,264.736 160.469,264.830 160.563 C 264.924 160.657,265.348 160.481,265.771 160.171 C 266.195 159.862,266.464 159.531,266.370 159.437 C 266.276 159.343,265.852 159.519,265.429 159.829 M162.000 160.125 C 162.000 160.194,162.585 160.779,163.300 161.425 L 164.600 162.600 163.425 161.300 C 162.330 160.088,162.000 159.816,162.000 160.125 M236.575 161.300 L 235.400 162.600 236.700 161.425 C 237.415 160.779,238.000 160.194,238.000 160.125 C 238.000 159.816,237.670 160.088,236.575 161.300 M167.371 164.297 C 168.015 165.009,168.630 165.504,168.738 165.396 C 168.845 165.288,168.858 165.155,168.767 165.100 C 168.675 165.045,168.060 164.551,167.400 164.001 L 166.200 163.003 167.371 164.297 M232.175 164.450 C 231.352 165.325,231.252 165.547,231.841 165.191 C 232.567 164.751,233.843 163.200,233.478 163.200 C 233.408 163.200,232.821 163.763,232.175 164.450 M140.000 164.300 C 140.000 164.469,140.360 164.832,140.800 165.107 C 141.240 165.382,141.600 165.469,141.600 165.300 C 141.600 165.131,141.240 164.768,140.800 164.493 C 140.360 164.218,140.000 164.131,140.000 164.300 M251.454 170.633 C 250.297 171.650,250.090 172.333,251.201 171.467 C 251.849 170.962,252.992 169.592,252.749 169.613 C 252.667 169.620,252.084 170.079,251.454 170.633 M222.975 171.700 L 221.800 173.000 223.100 171.825 C 223.815 171.179,224.400 170.594,224.400 170.525 C 224.400 170.216,224.070 170.488,222.975 171.700 M151.600 172.925 C 151.600 172.994,152.185 173.579,152.900 174.225 L 154.200 175.400 153.025 174.100 C 151.930 172.888,151.600 172.616,151.600 172.925 M246.975 174.100 L 245.800 175.400 247.100 174.225 C 247.815 173.579,248.400 172.994,248.400 172.925 C 248.400 172.616,248.070 172.888,246.975 174.100 M154.400 175.500 C 154.400 175.669,154.760 176.032,155.200 176.307 C 155.640 176.582,156.000 176.669,156.000 176.500 C 156.000 176.331,155.640 175.968,155.200 175.693 C 154.760 175.418,154.400 175.331,154.400 175.500 M244.629 175.829 C 244.205 176.138,243.936 176.469,244.030 176.563 C 244.124 176.657,244.548 176.481,244.971 176.171 C 245.395 175.862,245.664 175.531,245.570 175.437 C 245.476 175.343,245.052 175.519,244.629 175.829 M156.800 177.002 C 156.800 177.332,157.506 177.977,159.111 179.112 C 160.977 180.432,160.693 179.936,158.600 178.221 C 157.610 177.410,156.800 176.861,156.800 177.002 M241.429 178.229 C 241.005 178.538,240.736 178.869,240.830 178.963 C 240.924 179.057,241.348 178.881,241.771 178.571 C 242.195 178.262,242.464 177.931,242.370 177.837 C 242.276 177.743,241.852 177.919,241.429 178.229 M212.575 179.700 L 211.400 181.000 212.700 179.825 C 213.415 179.179,214.000 178.594,214.000 178.525 C 214.000 178.216,213.670 178.488,212.575 179.700 M160.800 180.207 C 160.800 180.551,161.803 181.394,163.000 182.056 C 163.793 182.495,163.793 182.492,162.995 181.749 C 161.607 180.458,160.800 179.891,160.800 180.207 M207.829 183.009 C 207.405 183.329,207.138 183.671,207.235 183.769 C 207.332 183.866,207.859 183.602,208.406 183.182 C 208.953 182.761,209.220 182.420,209.000 182.422 C 208.780 182.424,208.253 182.688,207.829 183.009 M220.629 194.229 C 220.205 194.538,219.936 194.869,220.030 194.963 C 220.124 195.057,220.548 194.881,220.971 194.571 C 221.395 194.262,221.664 193.931,221.570 193.837 C 221.476 193.743,221.052 193.919,220.629 194.229 M193.343 203.000 C 193.673 203.330,194.271 203.599,194.671 203.598 C 195.192 203.596,195.073 203.424,194.254 202.998 C 192.807 202.243,192.586 202.243,193.343 203.000 M205.600 203.033 L 204.600 203.588 205.657 203.594 C 206.239 203.597,206.818 203.330,206.945 203.000 C 207.219 202.285,206.937 202.292,205.600 203.033 M198.105 203.477 C 198.493 203.578,198.707 203.827,198.581 204.030 C 198.456 204.234,199.094 204.400,200.000 204.400 C 200.906 204.400,201.544 204.234,201.419 204.030 C 201.293 203.827,201.507 203.578,201.895 203.477 C 202.283 203.376,201.430 203.293,200.000 203.293 C 198.570 203.293,197.717 203.376,198.105 203.477 M97.429 276.758 C 95.459 277.530,104.037 277.600,200.133 277.594 C 292.853 277.588,305.371 277.474,302.334 276.661 C 300.988 276.301,98.352 276.397,97.429 276.758 M79.600 278.195 C 79.600 278.339,79.889 278.747,80.243 279.100 C 80.834 279.691,80.875 279.683,80.743 279.005 C 80.611 278.322,79.600 277.606,79.600 278.195 M319.467 278.667 C 318.981 279.153,319.190 279.579,319.800 279.345 C 320.130 279.218,320.400 278.954,320.400 278.757 C 320.400 278.338,319.849 278.284,319.467 278.667 M87.200 290.700 C 87.200 290.869,87.560 291.232,88.000 291.507 C 88.440 291.782,88.800 291.869,88.800 291.700 C 88.800 291.531,88.440 291.168,88.000 290.893 C 87.560 290.618,87.200 290.531,87.200 290.700 " stroke="none" fill="#333333" fill-rule="evenodd"></path><path id="path4" d="M94.800 105.600 C 94.800 105.820,94.320 106.000,93.733 106.000 C 93.147 106.000,92.775 106.108,92.906 106.240 C 93.262 106.595,96.400 105.989,96.400 105.565 C 96.400 105.364,96.040 105.200,95.600 105.200 C 95.160 105.200,94.800 105.380,94.800 105.600 M303.600 105.565 C 303.600 105.989,306.738 106.595,307.094 106.240 C 307.225 106.108,306.853 106.000,306.267 106.000 C 305.680 106.000,305.200 105.820,305.200 105.600 C 305.200 105.380,304.840 105.200,304.400 105.200 C 303.960 105.200,303.600 105.364,303.600 105.565 M308.100 106.400 C 308.191 106.738,308.771 107.028,309.431 107.063 C 310.438 107.118,310.461 107.099,309.600 106.923 C 309.050 106.811,308.451 106.512,308.270 106.260 C 308.049 105.952,307.993 105.999,308.100 106.400 M87.400 108.400 C 87.002 108.840,86.434 109.200,86.138 109.200 C 85.842 109.200,85.600 109.380,85.600 109.600 C 85.600 109.820,85.359 110.000,85.064 110.000 C 84.770 110.000,84.319 110.460,84.063 111.023 C 83.806 111.585,83.417 111.934,83.198 111.799 C 82.979 111.664,82.800 111.883,82.800 112.287 C 82.800 112.825,83.460 112.393,85.268 110.672 C 86.626 109.381,88.111 108.172,88.568 107.987 C 89.155 107.750,89.212 107.643,88.762 107.625 C 88.411 107.611,87.798 107.960,87.400 108.400 M311.432 107.987 C 311.889 108.172,313.374 109.381,314.732 110.672 C 317.200 113.021,317.970 113.484,316.275 111.600 C 314.857 110.023,311.719 107.597,311.133 107.625 C 310.840 107.639,310.974 107.802,311.432 107.987 M317.654 114.088 C 317.625 114.466,317.946 115.392,318.369 116.145 C 318.792 116.899,319.216 118.029,319.309 118.658 C 319.455 119.629,319.489 119.575,319.540 118.300 C 319.573 117.475,319.420 116.800,319.200 116.800 C 318.980 116.800,318.800 116.440,318.800 116.000 C 318.800 115.560,318.633 115.200,318.428 115.200 C 318.223 115.200,317.978 114.795,317.882 114.300 C 317.772 113.728,317.689 113.650,317.654 114.088 M81.700 115.023 C 81.425 115.322,81.200 115.844,81.200 116.183 C 81.200 116.522,81.020 116.800,80.800 116.800 C 80.580 116.800,80.400 117.505,80.400 118.367 C 80.400 119.228,80.216 120.025,79.990 120.137 C 79.764 120.249,79.809 120.295,80.090 120.239 C 80.371 120.184,80.658 119.550,80.728 118.831 C 80.799 118.112,81.212 116.890,81.648 116.115 C 82.494 114.609,82.516 114.138,81.700 115.023 M114.584 122.827 C 114.439 123.061,114.428 123.361,114.560 123.493 C 114.692 123.625,114.800 123.523,114.800 123.267 C 114.800 122.913,135.352 122.800,200.000 122.800 C 246.860 122.800,285.200 122.915,285.200 123.056 C 285.200 123.197,284.885 123.567,284.500 123.878 C 283.868 124.389,283.888 124.402,284.700 124.008 C 285.195 123.768,285.600 123.308,285.600 122.986 C 285.600 122.240,115.044 122.081,114.584 122.827 M118.000 126.218 C 118.000 126.632,121.700 128.828,122.114 128.660 C 122.388 128.549,122.295 128.449,121.900 128.432 C 121.515 128.414,121.200 128.220,121.200 128.000 C 121.200 127.780,120.930 127.600,120.600 127.600 C 120.270 127.600,119.999 127.465,119.997 127.300 C 119.995 127.135,119.545 126.792,118.997 126.538 C 118.449 126.283,118.000 126.140,118.000 126.218 M281.022 126.524 C 280.594 126.786,279.885 127.315,279.446 127.700 C 279.008 128.085,278.456 128.400,278.221 128.400 C 277.985 128.400,277.573 128.751,277.305 129.180 C 277.013 129.648,277.855 129.236,279.409 128.150 C 280.834 127.153,282.000 126.262,282.000 126.169 C 282.000 125.943,281.927 125.969,281.022 126.524 M124.400 130.959 C 124.400 131.050,125.344 131.817,126.498 132.662 C 127.651 133.508,128.909 134.434,129.292 134.719 C 129.884 135.160,129.954 135.145,129.752 134.619 C 129.621 134.279,129.309 133.999,129.057 133.998 C 128.806 133.997,128.052 133.502,127.383 132.898 C 126.158 131.793,124.400 130.651,124.400 130.959 M274.617 131.324 C 274.186 131.586,273.626 131.980,273.373 132.200 C 273.119 132.420,272.376 133.070,271.721 133.645 C 271.066 134.220,270.276 134.790,269.965 134.913 C 269.499 135.098,269.496 135.142,269.952 135.168 C 270.255 135.186,271.167 134.615,271.978 133.900 C 272.789 133.185,273.980 132.205,274.626 131.722 C 275.892 130.775,275.887 130.551,274.617 131.324 M96.985 132.500 C 96.488 133.807,97.008 276.535,97.510 276.637 C 97.791 276.694,97.836 276.649,97.610 276.537 C 97.115 276.291,97.025 132.400,97.520 132.400 C 97.696 132.400,98.092 132.625,98.401 132.900 C 98.878 133.325,98.882 133.296,98.432 132.700 C 97.809 131.877,97.251 131.800,96.985 132.500 M301.579 132.687 C 301.118 133.295,301.121 133.327,301.599 132.900 C 301.908 132.625,302.304 132.400,302.480 132.400 C 302.975 132.400,302.885 276.291,302.390 276.537 C 302.165 276.649,302.209 276.694,302.490 276.637 C 303.180 276.497,303.250 132.350,302.560 132.120 C 302.318 132.039,301.877 132.294,301.579 132.687 M267.600 136.771 C 267.600 136.975,267.285 137.224,266.900 137.324 C 266.309 137.479,266.302 137.514,266.851 137.554 C 267.209 137.579,267.726 137.330,268.000 137.000 C 268.344 136.585,268.359 136.400,268.049 136.400 C 267.802 136.400,267.600 136.567,267.600 136.771 M106.400 138.817 C 108.721 140.943,109.439 141.441,108.200 140.064 C 107.540 139.331,106.640 138.544,106.200 138.316 C 105.604 138.007,105.655 138.135,106.400 138.817 M264.957 138.739 C 264.521 139.146,263.902 139.582,263.582 139.708 C 263.133 139.885,263.124 139.944,263.542 139.968 C 263.840 139.986,264.619 139.550,265.273 139.000 C 265.927 138.450,266.302 138.000,266.106 138.000 C 265.911 138.000,265.394 138.333,264.957 138.739 M292.463 139.500 C 291.635 140.325,291.327 140.715,291.779 140.367 C 293.307 139.188,294.552 138.000,294.260 138.000 C 294.100 138.000,293.292 138.675,292.463 139.500 M110.143 142.200 C 110.473 142.530,110.970 142.800,111.248 142.800 C 111.531 142.800,111.412 142.542,110.976 142.213 C 109.958 141.442,109.376 141.433,110.143 142.200 M139.200 142.600 C 139.474 142.930,139.915 143.200,140.179 143.200 C 140.444 143.200,141.083 143.649,141.599 144.198 C 142.114 144.748,142.625 145.108,142.733 145.000 C 143.009 144.724,140.707 142.801,140.100 142.800 C 139.825 142.800,139.600 142.620,139.600 142.400 C 139.600 142.180,139.398 142.000,139.151 142.000 C 138.841 142.000,138.856 142.185,139.200 142.600 M260.400 142.371 C 260.400 142.575,260.085 142.824,259.700 142.924 C 259.109 143.079,259.102 143.114,259.651 143.154 C 260.009 143.179,260.526 142.930,260.800 142.600 C 261.144 142.185,261.159 142.000,260.849 142.000 C 260.602 142.000,260.400 142.167,260.400 142.371 M257.692 144.400 C 257.220 144.840,256.723 145.200,256.588 145.200 C 256.453 145.200,256.073 145.470,255.743 145.800 C 255.413 146.130,255.306 146.400,255.505 146.400 C 255.901 146.400,259.140 143.644,258.775 143.617 C 258.652 143.607,258.164 143.960,257.692 144.400 M112.833 144.130 C 112.925 144.201,113.630 144.666,114.400 145.163 L 115.800 146.066 114.600 145.035 C 113.940 144.468,113.235 144.003,113.033 144.002 C 112.832 144.001,112.742 144.058,112.833 144.130 M285.400 145.035 L 284.200 146.066 285.600 145.163 C 287.396 144.004,287.401 144.000,286.967 144.002 C 286.765 144.003,286.060 144.468,285.400 145.035 M145.564 147.357 C 146.081 147.980,147.728 148.530,147.377 147.963 C 147.254 147.763,146.893 147.600,146.576 147.600 C 146.259 147.600,146.000 147.420,146.000 147.200 C 146.000 146.980,145.798 146.800,145.551 146.800 C 145.225 146.800,145.229 146.953,145.564 147.357 M253.693 147.380 C 252.398 148.095,252.191 148.380,253.147 148.130 C 253.602 148.011,254.182 147.663,254.436 147.357 C 254.975 146.707,254.907 146.709,253.693 147.380 M281.776 147.787 C 281.349 148.110,281.180 148.375,281.400 148.375 C 281.620 148.375,282.149 148.110,282.576 147.787 C 283.004 147.464,283.173 147.200,282.953 147.200 C 282.733 147.200,282.204 147.464,281.776 147.787 M119.233 148.930 C 119.325 149.001,120.030 149.466,120.800 149.963 L 122.200 150.866 121.000 149.835 C 120.340 149.268,119.635 148.803,119.433 148.802 C 119.232 148.801,119.142 148.858,119.233 148.930 M149.400 150.165 C 150.060 150.732,150.765 151.197,150.967 151.198 C 151.401 151.200,151.396 151.196,149.600 150.037 L 148.200 149.134 149.400 150.165 M277.800 150.800 C 276.783 151.680,276.097 152.393,276.276 152.384 C 276.645 152.365,280.224 149.200,279.876 149.200 C 279.751 149.200,278.817 149.920,277.800 150.800 M250.000 150.371 C 250.000 150.575,249.685 150.824,249.300 150.924 C 248.709 151.079,248.702 151.114,249.251 151.154 C 249.609 151.179,250.126 150.930,250.400 150.600 C 250.744 150.185,250.759 150.000,250.449 150.000 C 250.202 150.000,250.000 150.167,250.000 150.371 M152.600 152.580 C 153.260 153.139,153.948 153.597,154.129 153.598 C 154.593 153.601,153.554 152.697,152.385 152.082 C 151.567 151.651,151.603 151.736,152.600 152.580 M246.811 152.620 C 246.047 153.159,245.597 153.599,245.811 153.598 C 246.025 153.597,246.740 153.153,247.400 152.612 C 248.941 151.349,248.605 151.353,246.811 152.620 M126.846 154.813 C 127.591 155.480,128.695 156.329,129.300 156.699 C 129.905 157.070,130.400 157.514,130.400 157.686 C 130.400 157.859,130.713 158.000,131.095 158.000 C 131.497 158.000,130.951 157.433,129.795 156.651 C 128.698 155.909,127.457 154.919,127.038 154.451 C 126.619 153.983,126.100 153.600,125.884 153.600 C 125.668 153.600,126.101 154.146,126.846 154.813 M155.771 155.111 C 156.415 155.815,157.021 156.312,157.118 156.215 C 157.311 156.022,156.653 155.334,155.398 154.415 C 154.959 154.094,155.127 154.407,155.771 155.111 M272.606 154.793 C 272.209 155.232,271.010 156.152,269.942 156.837 C 268.874 157.523,268.000 158.149,268.000 158.229 C 268.000 158.426,269.348 157.918,269.600 157.627 C 269.799 157.397,272.575 155.254,273.364 154.722 C 273.591 154.569,273.676 154.343,273.553 154.219 C 273.429 154.096,273.003 154.354,272.606 154.793 M158.006 156.671 C 158.000 157.119,160.382 158.551,160.664 158.269 C 160.738 158.195,160.304 157.880,159.699 157.568 C 159.095 157.256,158.468 156.821,158.306 156.601 C 158.120 156.347,158.010 156.373,158.006 156.671 M241.600 156.733 C 241.600 156.990,241.330 157.200,241.000 157.200 C 240.670 157.200,240.400 157.367,240.400 157.571 C 240.400 157.775,240.085 158.024,239.700 158.124 C 239.206 158.253,239.177 158.318,239.600 158.345 C 240.395 158.394,242.270 156.936,241.894 156.561 C 241.732 156.399,241.600 156.477,241.600 156.733 M162.598 160.337 C 163.034 160.852,163.753 161.459,164.196 161.686 C 165.045 162.121,164.921 161.987,163.003 160.394 C 161.848 159.435,161.834 159.433,162.598 160.337 M236.654 160.633 C 236.023 161.187,235.587 161.720,235.683 161.816 C 235.779 161.913,236.374 161.454,237.004 160.796 C 238.396 159.343,238.216 159.259,236.654 160.633 M133.633 160.130 C 133.725 160.201,134.430 160.666,135.200 161.163 L 136.600 162.066 135.400 161.035 C 134.740 160.468,134.035 160.003,133.833 160.002 C 133.632 160.001,133.542 160.058,133.633 160.130 M264.600 161.020 C 263.603 161.864,263.567 161.949,264.385 161.518 C 265.554 160.903,266.593 159.999,266.129 160.002 C 265.948 160.003,265.260 160.461,264.600 161.020 M140.543 165.400 C 140.873 165.730,141.253 166.000,141.388 166.000 C 141.523 166.000,142.020 166.360,142.492 166.800 C 142.964 167.240,143.522 167.600,143.732 167.600 C 143.941 167.600,143.322 166.972,142.356 166.204 C 140.589 164.799,139.427 164.284,140.543 165.400 M257.767 166.216 C 256.905 166.995,256.605 167.402,257.100 167.120 C 257.595 166.838,258.000 166.471,258.000 166.304 C 258.000 166.137,258.193 166.000,258.429 166.000 C 258.664 166.000,259.127 165.730,259.457 165.400 C 260.686 164.171,259.275 164.853,257.767 166.216 M173.400 168.565 C 174.060 169.132,174.765 169.597,174.967 169.598 C 175.401 169.600,175.396 169.596,173.600 168.437 L 172.200 167.534 173.400 168.565 M226.557 168.339 C 226.121 168.746,225.502 169.182,225.182 169.308 C 224.701 169.497,224.709 169.542,225.230 169.568 C 225.577 169.586,226.283 169.150,226.800 168.600 C 227.892 167.438,227.721 167.255,226.557 168.339 M222.575 171.500 C 222.149 171.885,221.305 172.455,220.700 172.768 C 220.095 173.080,219.600 173.485,219.600 173.668 C 219.600 173.850,219.330 174.000,219.000 174.000 C 218.670 174.000,218.400 174.186,218.400 174.414 C 218.400 174.932,219.646 174.308,220.382 173.422 C 220.666 173.080,221.115 172.800,221.379 172.800 C 221.644 172.800,222.283 172.350,222.800 171.800 C 223.877 170.654,223.730 170.458,222.575 171.500 M148.543 171.800 C 148.873 172.130,149.471 172.399,149.871 172.398 C 150.392 172.396,150.273 172.224,149.454 171.798 C 148.007 171.043,147.786 171.043,148.543 171.800 M250.624 171.813 C 250.188 172.142,250.069 172.400,250.352 172.400 C 250.630 172.400,251.127 172.130,251.457 171.800 C 252.224 171.033,251.642 171.042,250.624 171.813 M179.256 173.166 C 179.775 173.587,180.277 173.855,180.371 173.761 C 180.576 173.557,179.144 172.431,178.656 172.413 C 178.466 172.406,178.736 172.745,179.256 173.166 M150.800 173.092 C 151.130 173.217,151.492 173.428,151.603 173.560 C 151.715 173.692,152.345 174.248,153.003 174.796 C 154.077 175.690,154.058 175.639,152.822 174.296 C 152.063 173.473,151.163 172.814,150.822 172.832 C 150.283 172.859,150.280 172.894,150.800 173.092 M247.178 174.296 C 245.942 175.639,245.923 175.690,246.997 174.796 C 247.655 174.248,248.285 173.692,248.397 173.560 C 248.508 173.428,248.870 173.217,249.200 173.092 C 249.720 172.894,249.717 172.859,249.178 172.832 C 248.837 172.814,247.937 173.473,247.178 174.296 M154.943 176.600 C 155.273 176.930,155.770 177.200,156.048 177.200 C 156.331 177.200,156.212 176.942,155.776 176.613 C 154.758 175.842,154.176 175.833,154.943 176.600 M244.224 176.613 C 243.788 176.942,243.669 177.200,243.952 177.200 C 244.230 177.200,244.727 176.930,245.057 176.600 C 245.824 175.833,245.242 175.842,244.224 176.613 M184.000 177.000 C 184.274 177.330,184.669 177.600,184.877 177.600 C 185.086 177.600,186.110 178.320,187.154 179.200 C 188.198 180.080,189.189 180.800,189.356 180.800 C 189.524 180.800,189.063 180.305,188.331 179.700 C 187.599 179.096,186.651 178.286,186.225 177.900 C 185.798 177.515,185.213 177.200,184.925 177.200 C 184.636 177.200,184.400 177.020,184.400 176.800 C 184.400 176.580,184.198 176.400,183.951 176.400 C 183.641 176.400,183.656 176.585,184.000 177.000 M215.600 176.800 C 215.600 177.020,215.365 177.200,215.078 177.200 C 214.791 177.200,213.869 177.830,213.028 178.600 C 212.187 179.370,211.668 180.000,211.875 180.000 C 212.081 180.000,212.768 179.460,213.400 178.800 C 214.032 178.140,214.764 177.600,215.026 177.600 C 215.288 177.600,215.726 177.330,216.000 177.000 C 216.344 176.585,216.359 176.400,216.049 176.400 C 215.802 176.400,215.600 176.580,215.600 176.800 M157.633 178.530 C 157.725 178.601,158.430 179.066,159.200 179.563 L 160.600 180.466 159.400 179.435 C 158.740 178.868,158.035 178.403,157.833 178.402 C 157.632 178.401,157.542 178.458,157.633 178.530 M240.600 179.435 L 239.400 180.466 240.800 179.563 C 242.596 178.404,242.601 178.400,242.167 178.402 C 241.965 178.403,241.260 178.868,240.600 179.435 M161.484 181.520 C 161.878 181.916,162.740 182.557,163.400 182.944 L 164.600 183.647 163.600 182.828 C 163.050 182.377,162.315 181.737,161.966 181.404 C 161.066 180.545,160.622 180.652,161.484 181.520 M237.987 181.411 C 237.664 181.746,236.950 182.387,236.400 182.834 L 235.400 183.647 236.600 182.944 C 237.951 182.152,239.403 180.800,238.903 180.800 C 238.722 180.800,238.310 181.075,237.987 181.411 M191.000 182.180 C 191.660 182.739,192.348 183.197,192.529 183.198 C 192.993 183.201,191.954 182.297,190.785 181.682 C 189.967 181.251,190.003 181.336,191.000 182.180 M207.684 182.615 C 207.022 183.366,207.570 183.349,208.576 182.587 C 209.122 182.174,209.182 182.005,208.776 182.015 C 208.459 182.024,207.968 182.294,207.684 182.615 M164.803 183.886 C 164.805 184.059,165.255 184.408,165.804 184.663 C 166.352 184.917,166.701 184.963,166.578 184.765 C 166.252 184.237,164.799 183.518,164.803 183.886 M193.200 183.762 C 193.200 183.872,194.010 184.519,195.000 185.200 C 195.990 185.881,196.800 186.348,196.800 186.238 C 196.800 186.128,195.990 185.481,195.000 184.800 C 194.010 184.119,193.200 183.652,193.200 183.762 M197.763 186.490 C 197.832 186.827,198.592 187.000,200.000 187.000 C 201.408 187.000,202.168 186.827,202.237 186.490 C 202.293 186.210,202.249 186.165,202.137 186.390 C 202.025 186.615,201.063 186.800,200.000 186.800 C 198.937 186.800,197.975 186.615,197.863 186.390 C 197.751 186.165,197.707 186.210,197.763 186.490 M171.200 188.636 C 171.200 188.911,171.624 189.284,173.700 190.833 C 175.414 192.113,174.994 191.531,173.000 189.865 C 172.010 189.037,171.200 188.484,171.200 188.636 M226.800 190.092 C 225.810 190.978,225.540 191.322,226.200 190.858 C 228.257 189.409,228.948 188.814,228.771 188.645 C 228.677 188.555,227.790 189.206,226.800 190.092 M175.600 192.282 C 175.930 192.403,176.650 192.884,177.200 193.351 L 178.200 194.200 177.230 193.100 C 176.697 192.495,175.977 192.014,175.630 192.032 C 175.091 192.059,175.086 192.095,175.600 192.282 M222.770 193.100 L 221.800 194.200 222.800 193.351 C 223.350 192.884,224.070 192.403,224.400 192.282 C 224.914 192.095,224.909 192.059,224.370 192.032 C 224.023 192.014,223.303 192.495,222.770 193.100 M178.433 194.530 C 178.525 194.601,179.230 195.066,180.000 195.563 L 181.400 196.466 180.200 195.435 C 179.540 194.868,178.835 194.403,178.633 194.402 C 178.432 194.401,178.342 194.458,178.433 194.530 M219.800 195.435 L 218.600 196.466 220.000 195.563 C 221.796 194.404,221.801 194.400,221.367 194.402 C 221.165 194.403,220.460 194.868,219.800 195.435 M181.633 196.930 C 181.725 197.001,182.430 197.466,183.200 197.963 L 184.600 198.866 183.400 197.835 C 182.740 197.268,182.035 196.803,181.833 196.802 C 181.632 196.801,181.542 196.858,181.633 196.930 M216.600 197.835 L 215.400 198.866 216.800 197.963 C 218.596 196.804,218.601 196.800,218.167 196.802 C 217.965 196.803,217.260 197.268,216.600 197.835 M185.300 199.476 C 185.685 199.576,186.000 199.825,186.000 200.029 C 186.000 200.233,186.202 200.400,186.449 200.400 C 186.759 200.400,186.744 200.215,186.400 199.800 C 186.126 199.470,185.609 199.221,185.251 199.246 C 184.702 199.286,184.709 199.321,185.300 199.476 M187.700 201.076 C 188.085 201.176,188.400 201.425,188.400 201.629 C 188.400 201.833,188.745 202.000,189.167 202.000 C 189.588 202.000,190.024 202.225,190.135 202.500 C 190.277 202.850,190.346 202.859,190.368 202.529 C 190.402 202.035,188.193 200.767,187.439 200.846 C 187.197 200.872,187.315 200.975,187.700 201.076 M210.500 201.612 C 210.005 201.811,209.614 202.205,209.632 202.487 C 209.656 202.889,209.707 202.891,209.865 202.500 C 209.976 202.225,210.412 202.000,210.833 202.000 C 211.255 202.000,211.600 201.820,211.600 201.600 C 211.600 201.380,211.555 201.211,211.500 201.225 C 211.445 201.239,210.995 201.413,210.500 201.612 M191.800 202.672 C 192.240 202.793,192.749 203.097,192.930 203.346 C 193.149 203.646,193.206 203.596,193.099 203.200 C 193.010 202.870,192.501 202.567,191.969 202.526 C 191.205 202.468,191.169 202.499,191.800 202.672 M207.067 202.667 C 206.920 202.813,206.803 203.128,206.806 203.367 C 206.810 203.660,206.907 203.653,207.106 203.346 C 207.268 203.097,207.760 202.803,208.200 202.693 C 208.974 202.499,208.973 202.491,208.167 202.446 C 207.708 202.421,207.213 202.520,207.067 202.667 M196.000 203.495 C 196.550 203.597,197.125 203.882,197.278 204.129 C 197.431 204.375,197.696 204.437,197.867 204.267 C 198.314 203.820,197.171 203.204,196.000 203.261 L 195.000 203.309 196.000 203.495 M202.412 203.584 C 202.088 203.789,201.963 204.096,202.133 204.267 C 202.304 204.437,202.569 204.375,202.722 204.129 C 202.875 203.882,203.450 203.597,204.000 203.495 L 205.000 203.309 204.000 203.261 C 203.450 203.234,202.735 203.380,202.412 203.584 M79.990 279.463 C 80.216 279.575,80.400 280.372,80.400 281.233 C 80.400 282.095,80.580 282.800,80.800 282.800 C 81.020 282.800,81.200 283.160,81.200 283.600 C 81.200 284.040,81.380 284.400,81.600 284.400 C 81.820 284.400,82.008 284.805,82.017 285.300 C 82.027 285.841,82.850 286.998,84.078 288.200 L 86.122 290.200 84.261 288.057 C 83.237 286.878,82.400 285.668,82.400 285.369 C 82.400 285.069,82.053 284.206,81.628 283.450 C 81.204 282.694,80.799 281.488,80.728 280.769 C 80.658 280.050,80.371 279.416,80.090 279.361 C 79.809 279.305,79.764 279.351,79.990 279.463 M319.124 281.400 C 319.034 282.170,319.104 282.800,319.280 282.800 C 319.456 282.800,319.600 282.170,319.600 281.400 C 319.600 280.630,319.530 280.000,319.444 280.000 C 319.358 280.000,319.214 280.630,319.124 281.400 M318.099 283.991 C 317.824 284.430,317.600 285.042,317.600 285.351 C 317.600 285.661,316.763 286.878,315.739 288.057 L 313.878 290.200 315.922 288.200 C 317.102 287.046,317.973 285.834,317.983 285.333 C 317.992 284.857,318.207 284.398,318.460 284.313 C 318.713 284.229,318.847 283.942,318.759 283.676 C 318.657 283.371,318.413 283.487,318.099 283.991 M87.858 291.806 C 87.983 292.133,88.501 292.400,89.009 292.400 C 89.518 292.400,90.024 292.625,90.135 292.900 C 90.293 293.292,90.344 293.289,90.368 292.887 C 90.386 292.606,90.085 292.277,89.700 292.158 C 89.315 292.039,88.692 291.777,88.315 291.577 C 87.788 291.296,87.682 291.349,87.858 291.806 M309.867 292.267 C 309.720 292.413,309.603 292.728,309.606 292.967 C 309.610 293.255,309.711 293.246,309.906 292.940 C 310.068 292.688,310.650 292.397,311.200 292.295 L 312.200 292.109 311.167 292.054 C 310.598 292.025,310.013 292.120,309.867 292.267 M307.200 293.400 C 306.856 293.815,306.841 294.000,307.151 294.000 C 307.398 294.000,307.600 293.833,307.600 293.629 C 307.600 293.425,307.915 293.176,308.300 293.076 C 308.891 292.921,308.898 292.886,308.349 292.846 C 307.991 292.821,307.474 293.070,307.200 293.400 M146.700 293.900 C 176.015 293.957,223.985 293.957,253.300 293.900 C 282.615 293.843,258.630 293.797,200.000 293.797 C 141.370 293.797,117.385 293.843,146.700 293.900 " stroke="none" fill="#444444" fill-rule="evenodd"></path></g></svg>