<svg id="svg" version="1.1" xmlns="http://www.w3.org/2000/svg" xmlns:xlink="http://www.w3.org/1999/xlink" width="400" height="400" viewBox="0, 0, 400,400"><g id="svgg"><path id="path0" d="M237.817 109.100 C 237.703 109.397,236.898 109.600,235.836 109.600 C 234.852 109.600,233.936 109.780,233.800 110.000 C 233.664 110.220,233.023 110.400,232.376 110.400 C 231.729 110.400,231.200 110.580,231.200 110.800 C 231.200 111.020,230.660 111.200,230.000 111.200 C 229.340 111.200,228.800 111.380,228.800 111.600 C 228.800 111.820,228.350 112.000,227.800 112.000 C 227.250 112.000,226.800 112.180,226.800 112.400 C 226.800 112.620,226.170 112.800,225.400 112.800 C 224.630 112.800,224.000 112.950,224.000 113.132 C 224.000 113.315,223.505 113.720,222.900 114.032 C 222.295 114.344,221.710 114.691,221.600 114.805 C 221.490 114.918,220.545 115.442,219.500 115.968 C 218.455 116.495,217.600 117.077,217.600 117.263 C 217.600 117.448,217.375 117.601,217.100 117.603 C 216.568 117.605,208.000 125.645,208.000 126.141 C 208.000 126.302,207.622 126.831,207.160 127.317 C 205.770 128.778,203.200 132.713,203.200 133.378 C 203.200 133.720,203.020 134.000,202.800 134.000 C 202.580 134.000,202.400 134.252,202.400 134.559 C 202.400 134.867,201.860 136.145,201.200 137.400 C 200.540 138.655,200.000 140.023,200.000 140.441 C 200.000 140.858,199.820 141.200,199.600 141.200 C 199.380 141.200,199.200 141.639,199.200 142.176 C 199.200 142.713,199.020 143.264,198.800 143.400 C 198.580 143.536,198.400 144.231,198.400 144.944 C 198.400 145.657,198.227 146.413,198.015 146.625 C 197.396 147.244,197.286 165.148,197.900 165.383 C 199.809 166.115,198.315 167.200,195.400 167.200 C 193.148 167.200,192.400 167.065,192.400 166.660 C 192.400 166.238,191.748 166.162,189.407 166.312 C 187.026 166.465,186.369 166.385,186.191 165.921 C 186.019 165.473,185.447 165.380,183.740 165.522 C 182.141 165.654,181.419 165.554,181.179 165.167 C 180.968 164.825,180.266 164.669,179.264 164.741 C 178.393 164.804,177.562 164.663,177.417 164.428 C 177.272 164.192,176.443 164.000,175.576 164.000 C 174.709 164.000,174.000 163.820,174.000 163.600 C 174.000 163.380,173.010 163.200,171.800 163.200 C 170.239 163.200,169.600 163.046,169.600 162.669 C 169.600 162.307,169.219 162.194,168.400 162.315 C 167.680 162.420,167.200 162.313,167.200 162.045 C 167.200 161.800,166.570 161.600,165.800 161.600 C 165.030 161.600,164.400 161.420,164.400 161.200 C 164.400 160.980,163.950 160.800,163.400 160.800 C 162.850 160.800,162.400 160.620,162.400 160.400 C 162.400 160.180,161.860 160.000,161.200 160.000 C 160.540 160.000,160.000 159.820,160.000 159.600 C 160.000 159.380,159.561 159.200,159.024 159.200 C 158.487 159.200,157.936 159.020,157.800 158.800 C 157.664 158.580,157.203 158.400,156.776 158.400 C 156.349 158.400,156.000 158.220,156.000 158.000 C 156.000 157.780,155.471 157.600,154.824 157.600 C 154.177 157.600,153.536 157.420,153.400 157.200 C 153.264 156.980,152.803 156.800,152.376 156.800 C 151.949 156.800,151.600 156.620,151.600 156.400 C 151.600 156.180,151.251 156.000,150.824 156.000 C 150.397 156.000,149.936 155.820,149.800 155.600 C 149.664 155.380,149.218 155.200,148.810 155.200 C 148.401 155.200,148.007 155.065,147.933 154.900 C 147.815 154.635,145.826 153.608,142.800 152.250 C 142.250 152.003,141.710 151.711,141.600 151.601 C 141.356 151.356,139.775 150.442,138.342 149.718 C 137.760 149.424,137.063 148.917,136.793 148.592 C 136.523 148.266,136.060 148.000,135.763 148.000 C 135.059 148.000,132.584 146.602,131.501 145.594 C 131.032 145.157,130.413 144.800,130.125 144.800 C 129.836 144.800,129.600 144.650,129.600 144.468 C 129.600 144.285,129.105 143.880,128.500 143.568 C 126.997 142.792,123.213 139.911,122.030 138.641 C 121.497 138.068,120.914 137.600,120.735 137.600 C 120.332 137.600,119.032 136.579,117.426 135.000 C 116.754 134.340,115.811 133.526,115.331 133.191 C 113.284 131.764,104.426 122.717,101.600 119.167 C 100.337 117.581,100.187 117.497,100.072 118.305 C 100.002 118.797,99.777 119.200,99.572 119.200 C 99.367 119.200,99.200 119.560,99.200 120.000 C 99.200 120.440,99.020 120.800,98.800 120.800 C 98.580 120.800,98.400 121.160,98.400 121.600 C 98.400 122.040,98.220 122.400,98.000 122.400 C 97.780 122.400,97.600 122.940,97.600 123.600 C 97.600 124.330,97.392 124.800,97.069 124.800 C 96.707 124.800,96.594 125.181,96.715 126.000 C 96.820 126.720,96.713 127.200,96.445 127.200 C 96.200 127.200,96.000 127.830,96.000 128.600 C 96.000 129.370,95.820 130.000,95.600 130.000 C 95.380 130.000,95.200 130.810,95.200 131.800 C 95.200 132.974,95.026 133.600,94.700 133.599 C 94.093 133.599,94.213 147.560,94.825 148.180 C 95.031 148.389,95.200 149.323,95.200 150.256 C 95.200 151.189,95.380 152.064,95.600 152.200 C 95.820 152.336,96.000 152.966,96.000 153.600 C 96.000 154.234,96.180 154.864,96.400 155.000 C 96.620 155.136,96.800 155.687,96.800 156.224 C 96.800 156.761,96.980 157.200,97.200 157.200 C 97.420 157.200,97.600 157.830,97.600 158.600 C 97.600 159.370,97.780 160.000,98.000 160.000 C 98.220 160.000,98.400 160.345,98.400 160.767 C 98.400 161.188,98.535 161.593,98.700 161.667 C 99.076 161.834,100.375 163.964,100.671 164.900 C 100.793 165.285,101.052 165.600,101.247 165.600 C 101.441 165.600,101.600 165.842,101.600 166.138 C 101.600 166.434,101.960 167.002,102.400 167.400 C 102.840 167.798,103.200 168.358,103.200 168.644 C 103.200 168.930,104.145 170.151,105.300 171.357 C 106.455 172.563,107.995 174.281,108.723 175.175 C 109.450 176.069,110.290 176.800,110.589 176.800 C 110.888 176.800,111.193 176.942,111.267 177.115 C 111.340 177.288,112.165 178.038,113.100 178.782 C 114.035 179.525,114.800 180.284,114.800 180.467 C 114.800 181.036,109.200 180.866,108.979 180.290 C 108.853 179.961,108.237 179.833,107.239 179.928 C 106.389 180.009,105.572 179.878,105.423 179.638 C 105.274 179.397,104.711 179.200,104.171 179.200 C 103.631 179.200,102.832 179.020,102.395 178.800 C 101.958 178.580,101.242 178.220,100.805 178.000 C 100.368 177.780,99.654 177.600,99.218 177.600 C 98.781 177.600,97.783 177.240,97.000 176.800 C 96.217 176.360,95.311 176.000,94.988 176.000 C 94.665 176.000,94.400 175.820,94.400 175.600 C 94.400 175.380,94.245 175.200,94.056 175.200 C 93.397 175.200,93.177 179.756,93.819 180.115 C 94.215 180.336,94.400 181.127,94.400 182.596 C 94.400 183.782,94.580 184.864,94.800 185.000 C 95.020 185.136,95.200 185.867,95.200 186.624 C 95.200 187.381,95.380 188.000,95.600 188.000 C 95.820 188.000,96.000 188.540,96.000 189.200 C 96.000 189.860,96.180 190.400,96.400 190.400 C 96.620 190.400,96.800 190.839,96.800 191.376 C 96.800 191.913,96.980 192.464,97.200 192.600 C 97.420 192.736,97.600 193.377,97.600 194.024 C 97.600 194.671,97.780 195.200,98.000 195.200 C 98.220 195.200,98.400 195.478,98.400 195.817 C 98.400 196.156,98.760 196.820,99.200 197.292 C 99.640 197.764,100.000 198.387,100.000 198.675 C 100.000 198.964,100.180 199.200,100.400 199.200 C 100.620 199.200,100.800 199.436,100.800 199.725 C 100.800 200.013,101.160 200.636,101.600 201.108 C 102.040 201.580,102.400 202.154,102.400 202.383 C 102.400 202.612,102.580 202.800,102.800 202.800 C 103.020 202.800,103.200 203.070,103.200 203.400 C 103.200 203.730,103.380 204.000,103.600 204.000 C 103.820 204.000,104.000 204.229,104.000 204.508 C 104.000 205.114,110.832 212.000,111.433 212.000 C 111.663 212.000,112.368 212.540,113.000 213.200 C 113.632 213.860,114.304 214.400,114.492 214.400 C 114.680 214.400,115.220 214.760,115.692 215.200 C 116.164 215.640,116.787 216.000,117.075 216.000 C 117.364 216.000,117.600 216.180,117.600 216.400 C 117.600 216.620,117.949 216.800,118.376 216.800 C 118.803 216.800,119.264 216.980,119.400 217.200 C 119.536 217.420,119.997 217.600,120.424 217.600 C 120.851 217.600,121.200 217.780,121.200 218.000 C 121.200 218.220,121.465 218.400,121.788 218.400 C 122.111 218.400,123.017 218.760,123.800 219.200 C 124.583 219.640,125.568 220.000,125.989 220.000 C 126.409 220.000,126.864 220.180,127.000 220.400 C 127.136 220.620,127.676 220.800,128.200 220.800 C 128.724 220.800,129.264 220.980,129.400 221.200 C 129.536 221.420,130.087 221.600,130.624 221.600 C 131.161 221.600,131.600 221.780,131.600 222.000 C 131.600 222.220,131.161 222.400,130.624 222.400 C 130.087 222.400,129.521 222.605,129.366 222.855 C 129.171 223.170,127.984 223.240,125.534 223.081 C 123.510 222.950,122.078 223.003,122.203 223.205 C 122.508 223.698,120.192 224.077,117.799 223.926 C 116.406 223.838,115.833 223.640,115.909 223.274 C 116.010 222.784,113.430 222.872,111.700 223.417 C 111.109 223.604,111.018 225.600,111.600 225.600 C 111.820 225.600,112.000 225.949,112.000 226.376 C 112.000 226.803,112.180 227.264,112.400 227.400 C 112.620 227.536,112.800 228.087,112.800 228.624 C 112.800 229.161,112.980 229.600,113.200 229.600 C 113.420 229.600,113.600 229.793,113.600 230.028 C 113.600 230.414,115.819 233.911,116.374 234.400 C 116.499 234.510,116.871 235.130,117.201 235.777 C 118.316 237.967,127.495 246.751,129.064 247.129 C 129.359 247.200,129.600 247.425,129.600 247.629 C 129.600 247.833,129.797 248.000,130.038 248.000 C 130.279 248.000,130.985 248.362,131.607 248.805 C 133.650 250.260,137.263 252.000,138.241 252.000 C 138.768 252.000,139.200 252.180,139.200 252.400 C 139.200 252.620,139.740 252.800,140.400 252.800 C 141.060 252.800,141.600 252.980,141.600 253.200 C 141.600 253.420,142.140 253.600,142.800 253.600 C 143.507 253.600,144.000 253.810,144.000 254.111 C 144.000 254.467,144.496 254.574,145.648 254.464 C 146.734 254.360,147.408 254.489,147.625 254.841 C 147.867 255.232,148.816 255.342,151.178 255.253 C 153.661 255.159,154.400 255.253,154.400 255.665 C 154.400 256.220,151.915 258.400,151.283 258.400 C 151.086 258.400,150.598 258.760,150.200 259.200 C 149.802 259.640,149.279 260.001,149.038 260.002 C 148.797 260.003,148.052 260.498,147.383 261.102 C 145.891 262.447,144.608 263.200,143.805 263.200 C 143.472 263.200,143.200 263.353,143.200 263.540 C 143.200 263.727,141.985 264.491,140.500 265.238 C 139.015 265.985,137.740 266.732,137.667 266.898 C 137.593 267.064,137.188 267.200,136.767 267.200 C 136.345 267.200,136.000 267.380,136.000 267.600 C 136.000 267.820,135.586 268.000,135.080 268.000 C 134.026 268.000,132.008 268.853,132.003 269.300 C 132.001 269.465,131.550 269.600,131.000 269.600 C 130.450 269.600,130.000 269.780,130.000 270.000 C 130.000 270.220,129.550 270.400,129.000 270.400 C 128.450 270.400,128.000 270.580,128.000 270.800 C 128.000 271.020,127.550 271.200,127.000 271.200 C 126.450 271.200,126.000 271.400,126.000 271.644 C 126.000 271.915,125.457 272.024,124.600 271.924 C 123.635 271.811,123.200 271.922,123.200 272.280 C 123.200 272.629,122.614 272.800,121.424 272.800 C 120.447 272.800,119.536 272.980,119.400 273.200 C 119.264 273.420,118.659 273.600,118.056 273.600 C 117.453 273.600,116.760 273.800,116.515 274.045 C 116.270 274.290,115.334 274.420,114.435 274.335 C 113.228 274.220,112.800 274.325,112.800 274.738 C 112.800 275.173,112.271 275.258,110.400 275.123 C 108.479 274.984,108.000 275.066,108.000 275.535 C 108.000 276.029,107.343 276.081,103.831 275.867 C 100.765 275.679,99.621 275.738,99.504 276.089 C 99.236 276.893,93.874 277.017,93.093 276.236 C 92.564 275.707,91.933 275.638,89.611 275.854 C 87.028 276.094,85.211 276.800,87.176 276.800 C 87.629 276.800,88.000 276.959,88.000 277.153 C 88.000 277.348,88.315 277.613,88.700 277.742 C 89.563 278.033,91.775 279.315,92.612 280.010 C 93.517 280.761,96.847 282.400,97.468 282.400 C 97.761 282.400,98.000 282.580,98.000 282.800 C 98.000 283.020,98.349 283.200,98.776 283.200 C 99.203 283.200,99.664 283.380,99.800 283.600 C 99.936 283.820,100.397 284.000,100.824 284.000 C 101.251 284.000,101.600 284.180,101.600 284.400 C 101.600 284.620,101.960 284.800,102.400 284.800 C 102.840 284.800,103.200 284.980,103.200 285.200 C 103.200 285.420,103.560 285.600,104.000 285.600 C 104.440 285.600,104.800 285.780,104.800 286.000 C 104.800 286.220,105.250 286.400,105.800 286.400 C 106.350 286.400,106.800 286.580,106.800 286.800 C 106.800 287.020,107.340 287.200,108.000 287.200 C 108.660 287.200,109.200 287.380,109.200 287.600 C 109.200 287.820,109.729 288.000,110.376 288.000 C 111.023 288.000,111.664 288.180,111.800 288.400 C 111.936 288.620,112.397 288.800,112.824 288.800 C 113.251 288.800,113.600 288.980,113.600 289.200 C 113.600 289.420,114.140 289.600,114.800 289.600 C 115.460 289.600,116.000 289.780,116.000 290.000 C 116.000 290.220,116.439 290.400,116.976 290.400 C 117.513 290.400,118.064 290.580,118.200 290.800 C 118.336 291.020,118.977 291.200,119.624 291.200 C 120.271 291.200,120.800 291.380,120.800 291.600 C 120.800 291.820,121.616 292.000,122.613 292.000 C 123.712 292.000,124.502 292.201,124.621 292.510 C 124.749 292.843,125.368 292.967,126.408 292.868 C 127.556 292.758,128.000 292.867,128.000 293.258 C 128.000 293.660,128.515 293.764,130.000 293.661 C 131.268 293.573,132.000 293.683,132.000 293.961 C 132.000 294.226,132.871 294.400,134.200 294.400 C 135.410 294.400,136.400 294.580,136.400 294.800 C 136.400 295.026,137.538 295.200,139.013 295.200 C 140.741 295.200,141.690 295.370,141.818 295.703 C 141.957 296.066,142.899 296.165,145.209 296.060 C 148.660 295.903,150.576 296.192,150.193 296.812 C 150.041 297.057,152.475 297.200,156.800 297.200 C 161.125 297.200,163.559 297.057,163.407 296.812 C 163.012 296.173,164.939 295.913,168.979 296.061 C 171.926 296.168,172.839 296.076,173.001 295.655 C 173.158 295.245,173.901 295.149,175.995 295.268 C 178.010 295.382,178.836 295.283,178.978 294.913 C 179.102 294.590,179.920 294.400,181.187 294.400 C 182.381 294.400,183.200 294.221,183.200 293.961 C 183.200 293.683,183.932 293.573,185.200 293.661 C 186.665 293.763,187.200 293.658,187.200 293.269 C 187.200 292.894,187.689 292.774,188.870 292.859 C 189.926 292.936,190.600 292.800,190.703 292.490 C 190.803 292.192,191.637 292.000,192.833 292.000 C 193.915 292.000,194.800 291.820,194.800 291.600 C 194.800 291.380,195.329 291.200,195.976 291.200 C 196.623 291.200,197.264 291.020,197.400 290.800 C 197.536 290.580,198.177 290.400,198.824 290.400 C 199.471 290.400,200.000 290.220,200.000 290.000 C 200.000 289.780,200.362 289.600,200.805 289.600 C 201.583 289.600,201.969 289.458,203.895 288.462 C 204.387 288.208,205.141 288.000,205.571 288.000 C 206.001 288.000,206.464 287.820,206.600 287.600 C 206.736 287.380,207.377 287.200,208.024 287.200 C 208.671 287.200,209.200 287.020,209.200 286.800 C 209.200 286.580,209.635 286.400,210.167 286.400 C 210.698 286.400,211.193 286.265,211.267 286.100 C 211.459 285.668,214.772 284.000,215.438 284.000 C 215.747 284.000,216.000 283.864,216.000 283.698 C 216.000 283.531,216.585 283.156,217.300 282.863 C 219.111 282.122,222.160 280.652,222.400 280.405 C 222.510 280.291,223.095 279.944,223.700 279.632 C 224.305 279.320,224.800 278.915,224.800 278.732 C 224.800 278.550,225.025 278.396,225.300 278.391 C 225.575 278.386,226.250 278.030,226.800 277.600 C 227.350 277.170,228.081 276.814,228.425 276.809 C 228.768 276.804,229.436 276.440,229.908 276.000 C 230.380 275.560,230.909 275.199,231.083 275.198 C 231.257 275.197,231.975 274.657,232.678 273.998 C 233.381 273.339,234.085 272.800,234.241 272.800 C 234.499 272.800,238.719 269.717,239.200 269.178 C 239.310 269.055,239.776 268.694,240.235 268.377 C 243.070 266.419,256.800 253.426,256.800 252.701 C 256.800 252.515,257.205 251.946,257.700 251.435 C 260.552 248.491,262.278 246.465,262.800 245.448 C 263.125 244.814,264.068 243.526,264.896 242.586 C 265.723 241.646,266.400 240.680,266.400 240.439 C 266.400 240.197,266.580 240.000,266.800 240.000 C 267.020 240.000,267.200 239.720,267.200 239.378 C 267.200 239.036,267.739 238.181,268.398 237.478 C 269.057 236.775,269.597 235.990,269.598 235.733 C 269.599 235.477,269.735 235.207,269.900 235.133 C 270.276 234.966,271.575 232.836,271.871 231.900 C 271.993 231.515,272.252 231.200,272.447 231.200 C 272.641 231.200,272.800 230.840,272.800 230.400 C 272.800 229.960,272.980 229.600,273.200 229.600 C 273.420 229.600,273.600 229.364,273.600 229.075 C 273.600 228.787,273.960 228.164,274.400 227.692 C 274.840 227.220,275.200 226.556,275.200 226.217 C 275.200 225.878,275.380 225.600,275.600 225.600 C 275.820 225.600,276.000 225.240,276.000 224.800 C 276.000 224.360,276.180 224.000,276.400 224.000 C 276.620 224.000,276.800 223.747,276.800 223.438 C 276.800 223.129,277.139 222.184,277.553 221.338 C 277.967 220.492,278.732 218.900,279.253 217.800 C 279.774 216.700,280.335 215.740,280.500 215.667 C 280.665 215.593,280.800 215.098,280.800 214.567 C 280.800 214.035,280.980 213.600,281.200 213.600 C 281.420 213.600,281.600 213.240,281.600 212.800 C 281.600 212.360,281.780 212.000,282.000 212.000 C 282.220 212.000,282.400 211.381,282.400 210.624 C 282.400 209.867,282.580 209.136,282.800 209.000 C 283.020 208.864,283.200 208.403,283.200 207.976 C 283.200 207.549,283.380 207.200,283.600 207.200 C 283.820 207.200,284.000 206.660,284.000 206.000 C 284.000 205.340,284.180 204.800,284.400 204.800 C 284.620 204.800,284.800 204.361,284.800 203.824 C 284.800 203.287,284.980 202.736,285.200 202.600 C 285.420 202.464,285.600 201.924,285.600 201.400 C 285.600 200.876,285.780 200.336,286.000 200.200 C 286.220 200.064,286.400 199.423,286.400 198.776 C 286.400 198.129,286.580 197.600,286.800 197.600 C 287.020 197.600,287.200 196.784,287.200 195.787 C 287.200 194.688,287.401 193.898,287.710 193.779 C 288.043 193.651,288.167 193.032,288.068 191.992 C 287.957 190.831,288.066 190.400,288.469 190.400 C 288.869 190.400,288.980 189.973,288.873 188.847 C 288.792 187.992,288.922 187.172,289.162 187.023 C 289.403 186.874,289.600 185.863,289.600 184.776 C 289.600 183.689,289.780 182.800,290.000 182.800 C 290.226 182.800,290.400 181.667,290.400 180.200 C 290.400 178.387,290.551 177.600,290.900 177.600 C 291.273 177.600,291.365 176.689,291.260 174.003 C 291.152 171.214,291.245 170.358,291.673 170.193 C 292.124 170.020,292.198 168.566,292.075 162.291 L 291.925 154.600 293.563 153.606 C 294.463 153.059,295.200 152.474,295.200 152.306 C 295.200 152.138,295.425 151.998,295.700 151.996 C 295.975 151.994,297.280 150.921,298.600 149.611 C 299.920 148.301,301.231 147.223,301.513 147.215 C 301.794 147.207,302.135 146.885,302.270 146.500 C 302.405 146.115,303.518 144.818,304.744 143.617 C 305.970 142.417,307.596 140.617,308.356 139.617 C 309.117 138.618,310.203 137.345,310.770 136.789 C 311.336 136.233,312.025 135.378,312.300 134.889 C 312.575 134.400,313.018 133.648,313.285 133.218 C 313.848 132.310,313.411 131.629,312.713 132.327 C 312.453 132.587,311.646 132.800,310.920 132.800 C 310.194 132.800,309.600 132.980,309.600 133.200 C 309.600 133.420,309.251 133.600,308.824 133.600 C 308.397 133.600,307.936 133.780,307.800 134.000 C 307.664 134.220,307.113 134.400,306.576 134.400 C 306.039 134.400,305.600 134.580,305.600 134.800 C 305.600 135.020,305.071 135.200,304.424 135.200 C 303.777 135.200,303.136 135.380,303.000 135.600 C 302.864 135.820,302.133 136.000,301.376 136.000 C 300.619 136.000,300.000 136.199,300.000 136.442 C 300.000 136.716,299.393 136.826,298.400 136.731 C 297.251 136.622,296.800 136.730,296.800 137.117 C 296.800 137.524,296.147 137.631,294.123 137.558 C 292.353 137.494,291.393 137.620,291.290 137.931 C 291.117 138.450,288.400 138.590,288.400 138.080 C 288.400 137.548,289.320 136.800,289.980 136.797 C 290.321 136.795,291.500 135.902,292.600 134.813 C 293.700 133.725,294.780 132.823,295.000 132.810 C 295.220 132.797,296.120 132.019,297.000 131.080 C 301.499 126.280,302.400 125.209,302.400 124.662 C 302.400 124.335,302.545 124.007,302.723 123.933 C 303.192 123.740,305.374 120.421,306.032 118.900 C 306.342 118.185,306.731 117.600,306.898 117.600 C 307.064 117.600,307.200 117.060,307.200 116.400 C 307.200 115.740,307.380 115.200,307.600 115.200 C 307.820 115.200,308.000 114.750,308.000 114.200 C 308.000 113.650,307.909 113.200,307.797 113.200 C 307.396 113.200,303.397 115.407,303.267 115.700 C 303.193 115.865,302.788 116.000,302.367 116.000 C 301.945 116.000,301.600 116.180,301.600 116.400 C 301.600 116.620,301.251 116.800,300.824 116.800 C 300.397 116.800,299.936 116.980,299.800 117.200 C 299.664 117.420,299.209 117.600,298.789 117.600 C 298.368 117.600,297.383 117.960,296.600 118.400 C 295.817 118.840,294.821 119.200,294.388 119.200 C 293.955 119.200,293.600 119.380,293.600 119.600 C 293.600 119.820,293.251 120.000,292.824 120.000 C 292.397 120.000,291.936 120.180,291.800 120.400 C 291.664 120.620,291.023 120.800,290.376 120.800 C 289.729 120.800,289.200 120.980,289.200 121.200 C 289.200 121.420,288.761 121.600,288.224 121.600 C 287.687 121.600,287.125 121.797,286.976 122.038 C 286.827 122.279,286.102 122.406,285.364 122.320 C 284.514 122.221,283.950 122.353,283.824 122.681 C 283.686 123.041,282.779 123.185,280.827 123.155 L 278.028 123.113 275.126 120.356 C 273.529 118.840,271.993 117.600,271.712 117.600 C 271.430 117.600,271.200 117.420,271.200 117.200 C 271.200 116.980,271.010 116.800,270.778 116.800 C 270.546 116.800,269.296 116.080,268.000 115.200 C 266.704 114.320,265.454 113.600,265.222 113.600 C 264.990 113.600,264.800 113.420,264.800 113.200 C 264.800 112.980,264.260 112.800,263.600 112.800 C 262.940 112.800,262.400 112.620,262.400 112.400 C 262.400 112.180,261.961 112.000,261.424 112.000 C 260.887 112.000,260.336 111.820,260.200 111.600 C 260.064 111.380,259.423 111.200,258.776 111.200 C 258.129 111.200,257.600 111.020,257.600 110.800 C 257.600 110.580,257.060 110.400,256.400 110.400 C 255.703 110.400,255.200 110.189,255.200 109.897 C 255.200 109.544,254.644 109.438,253.328 109.543 C 252.073 109.643,251.316 109.512,251.028 109.146 C 250.436 108.390,238.106 108.347,237.817 109.100 " stroke="none" fill="#040404" fill-rule="evenodd"></path><path id="path1" d="M238.000 107.958 C 238.000 108.473,240.415 108.631,245.736 108.462 C 248.325 108.380,250.296 108.155,250.173 107.957 C 249.885 107.490,238.000 107.491,238.000 107.958 M234.000 108.800 C 234.000 109.020,234.630 109.200,235.400 109.200 C 236.170 109.200,236.800 109.020,236.800 108.800 C 236.800 108.580,236.170 108.400,235.400 108.400 C 234.630 108.400,234.000 108.580,234.000 108.800 M252.000 108.800 C 252.000 109.020,252.731 109.200,253.624 109.200 C 254.604 109.200,255.149 109.042,255.000 108.800 C 254.864 108.580,254.133 108.400,253.376 108.400 C 252.619 108.400,252.000 108.580,252.000 108.800 M230.800 109.600 C 230.800 109.820,231.340 110.000,232.000 110.000 C 232.660 110.000,233.200 109.820,233.200 109.600 C 233.200 109.380,232.660 109.200,232.000 109.200 C 231.340 109.200,230.800 109.380,230.800 109.600 M255.800 109.600 C 255.656 109.833,256.063 110.000,256.776 110.000 C 257.449 110.000,258.000 109.820,258.000 109.600 C 258.000 109.380,257.561 109.200,257.024 109.200 C 256.487 109.200,255.936 109.380,255.800 109.600 M228.400 110.400 C 228.400 110.620,228.951 110.800,229.624 110.800 C 230.337 110.800,230.744 110.633,230.600 110.400 C 230.464 110.180,229.913 110.000,229.376 110.000 C 228.839 110.000,228.400 110.180,228.400 110.400 M258.400 110.400 C 258.400 110.620,258.850 110.800,259.400 110.800 C 259.950 110.800,260.400 110.620,260.400 110.400 C 260.400 110.180,259.950 110.000,259.400 110.000 C 258.850 110.000,258.400 110.180,258.400 110.400 M226.800 111.200 C 226.800 111.420,227.070 111.600,227.400 111.600 C 227.730 111.600,228.000 111.420,228.000 111.200 C 228.000 110.980,227.730 110.800,227.400 110.800 C 227.070 110.800,226.800 110.980,226.800 111.200 M260.800 111.200 C 260.800 111.420,261.250 111.600,261.800 111.600 C 262.350 111.600,262.800 111.780,262.800 112.000 C 262.800 112.220,263.340 112.400,264.000 112.400 C 264.660 112.400,265.200 112.580,265.200 112.800 C 265.200 113.020,265.393 113.200,265.628 113.200 C 265.863 113.200,266.841 113.740,267.800 114.400 C 268.759 115.060,269.737 115.600,269.972 115.600 C 270.207 115.600,270.400 115.780,270.400 116.000 C 270.400 116.220,270.670 116.400,271.000 116.400 C 271.949 116.400,271.700 115.787,270.500 115.168 C 269.895 114.855,269.051 114.285,268.625 113.900 C 268.198 113.515,267.613 113.200,267.325 113.200 C 267.036 113.200,266.800 113.020,266.800 112.800 C 266.800 112.580,266.440 112.400,266.000 112.400 C 265.560 112.400,265.200 112.220,265.200 112.000 C 265.200 111.780,264.660 111.600,264.000 111.600 C 263.340 111.600,262.800 111.420,262.800 111.200 C 262.800 110.980,262.350 110.800,261.800 110.800 C 261.250 110.800,260.800 110.980,260.800 111.200 M223.600 112.000 C 223.600 112.220,223.280 112.400,222.888 112.400 C 222.497 112.400,221.917 112.760,221.600 113.200 C 221.283 113.640,220.703 114.000,220.312 114.000 C 219.920 114.000,219.600 114.180,219.600 114.400 C 219.600 114.620,219.364 114.800,219.075 114.800 C 218.787 114.800,218.164 115.160,217.692 115.600 C 217.220 116.040,216.628 116.400,216.377 116.400 C 216.126 116.400,215.444 116.895,214.860 117.500 C 214.277 118.105,213.305 118.855,212.700 119.168 C 212.095 119.480,211.600 120.050,211.600 120.434 C 211.600 120.819,211.375 121.214,211.100 121.312 C 210.825 121.410,210.734 121.634,210.897 121.809 C 211.200 122.133,212.800 120.560,212.800 119.939 C 212.800 119.752,213.051 119.600,213.358 119.600 C 213.664 119.600,214.493 119.060,215.200 118.400 C 215.907 117.740,216.612 117.200,216.767 117.200 C 216.922 117.200,217.398 116.875,217.825 116.478 C 218.251 116.080,219.185 115.497,219.900 115.180 C 220.615 114.864,221.200 114.469,221.200 114.302 C 221.200 114.136,221.470 114.000,221.800 114.000 C 222.130 114.000,222.400 113.820,222.400 113.600 C 222.400 113.380,222.670 113.200,223.000 113.200 C 223.330 113.200,223.600 113.020,223.600 112.800 C 223.600 112.580,224.140 112.400,224.800 112.400 C 225.460 112.400,226.000 112.220,226.000 112.000 C 226.000 111.780,225.460 111.600,224.800 111.600 C 224.140 111.600,223.600 111.780,223.600 112.000 M306.500 112.198 C 305.843 112.944,305.869 113.200,306.600 113.200 C 306.930 113.200,307.200 113.008,307.200 112.773 C 307.200 112.384,307.843 112.475,309.500 113.098 C 309.801 113.211,310.000 112.951,310.000 112.443 C 310.000 111.424,307.345 111.239,306.500 112.198 M304.400 113.600 C 304.400 113.820,304.670 114.000,305.000 114.000 C 305.330 114.000,305.600 113.820,305.600 113.600 C 305.600 113.380,305.330 113.200,305.000 113.200 C 304.670 113.200,304.400 113.380,304.400 113.600 M308.400 114.600 C 308.400 115.150,308.580 115.600,308.800 115.600 C 309.020 115.600,309.200 115.150,309.200 114.600 C 309.200 114.050,309.020 113.600,308.800 113.600 C 308.580 113.600,308.400 114.050,308.400 114.600 M302.800 114.400 C 302.800 114.620,302.440 114.800,302.000 114.800 C 301.560 114.800,301.200 114.980,301.200 115.200 C 301.200 115.420,300.840 115.600,300.400 115.600 C 299.960 115.600,299.600 115.780,299.600 116.000 C 299.600 116.220,299.960 116.400,300.400 116.400 C 300.840 116.400,301.200 116.220,301.200 116.000 C 301.200 115.780,301.515 115.594,301.900 115.587 C 303.216 115.563,304.693 114.000,303.400 114.000 C 303.070 114.000,302.800 114.180,302.800 114.400 M307.600 116.562 C 307.600 117.228,305.932 120.541,305.500 120.733 C 305.335 120.807,305.200 121.168,305.200 121.537 C 305.200 121.906,304.840 122.432,304.400 122.707 C 303.664 123.167,303.266 124.400,303.853 124.400 C 304.277 124.400,305.999 122.234,306.000 121.700 C 306.000 121.425,306.180 121.200,306.400 121.200 C 306.620 121.200,306.800 120.840,306.800 120.400 C 306.800 119.960,306.980 119.600,307.200 119.600 C 307.420 119.600,307.600 119.240,307.600 118.800 C 307.600 118.360,307.780 118.000,308.000 118.000 C 308.220 118.000,308.400 117.550,308.400 117.000 C 308.400 116.450,308.220 116.000,308.000 116.000 C 307.780 116.000,307.600 116.253,307.600 116.562 M99.300 116.998 C 99.025 117.311,98.800 117.844,98.800 118.183 C 98.800 118.522,98.620 118.800,98.400 118.800 C 98.180 118.800,98.000 119.160,98.000 119.600 C 98.000 120.040,97.820 120.400,97.600 120.400 C 97.380 120.400,97.200 120.760,97.200 121.200 C 97.200 121.640,97.020 122.000,96.800 122.000 C 96.580 122.000,96.400 122.450,96.400 123.000 C 96.400 123.550,96.580 124.000,96.800 124.000 C 97.020 124.000,97.200 123.550,97.200 123.000 C 97.200 122.450,97.380 122.000,97.600 122.000 C 97.820 122.000,98.000 121.640,98.000 121.200 C 98.000 120.760,98.180 120.400,98.400 120.400 C 98.620 120.400,98.800 120.040,98.800 119.600 C 98.800 119.160,98.980 118.800,99.200 118.800 C 99.420 118.800,99.600 118.549,99.600 118.243 C 99.600 117.082,100.761 117.274,101.915 118.624 C 103.108 120.022,103.600 120.310,103.600 119.613 C 103.600 117.980,100.237 115.935,99.300 116.998 M272.000 116.771 C 272.000 116.975,272.495 117.513,273.100 117.967 C 273.705 118.420,274.417 118.973,274.683 119.196 C 274.949 119.418,275.311 119.600,275.488 119.600 C 275.665 119.600,276.148 120.050,276.561 120.600 C 277.355 121.658,278.000 121.902,278.000 121.147 C 278.000 120.647,276.002 118.801,275.460 118.800 C 275.274 118.800,274.617 118.260,274.000 117.600 C 272.895 116.417,272.000 116.046,272.000 116.771 M296.500 116.944 C 295.471 117.454,295.315 118.000,296.200 118.000 C 296.530 118.000,296.800 117.820,296.800 117.600 C 296.800 117.380,297.340 117.200,298.000 117.200 C 298.660 117.200,299.200 117.020,299.200 116.800 C 299.200 116.286,297.662 116.368,296.500 116.944 M293.200 118.400 C 293.200 118.620,292.840 118.800,292.400 118.800 C 291.960 118.800,291.600 118.980,291.600 119.200 C 291.600 119.420,291.960 119.600,292.400 119.600 C 292.840 119.600,293.200 119.420,293.200 119.200 C 293.200 118.980,293.650 118.800,294.200 118.800 C 294.750 118.800,295.200 118.620,295.200 118.400 C 295.200 118.180,294.750 118.000,294.200 118.000 C 293.650 118.000,293.200 118.180,293.200 118.400 M289.200 120.000 C 289.200 120.220,289.650 120.400,290.200 120.400 C 290.750 120.400,291.200 120.220,291.200 120.000 C 291.200 119.780,290.750 119.600,290.200 119.600 C 289.650 119.600,289.200 119.780,289.200 120.000 M103.600 120.836 C 103.600 121.076,104.162 121.751,104.848 122.336 C 105.535 122.921,106.300 123.642,106.548 123.937 C 108.067 125.744,114.861 132.400,115.187 132.400 C 115.403 132.400,116.683 133.480,118.032 134.800 C 119.381 136.120,120.651 137.200,120.855 137.200 C 121.058 137.200,121.770 137.821,122.437 138.581 C 123.104 139.340,124.020 140.079,124.472 140.223 C 124.925 140.367,125.841 141.005,126.507 141.642 C 127.173 142.279,127.962 142.800,128.259 142.800 C 128.557 142.800,128.800 142.980,128.800 143.200 C 128.800 143.420,129.070 143.600,129.400 143.600 C 129.730 143.600,130.000 143.497,130.000 143.371 C 130.000 142.977,128.878 142.000,128.425 142.000 C 128.187 142.000,127.428 141.460,126.737 140.800 C 126.046 140.140,125.314 139.600,125.109 139.600 C 124.905 139.600,124.046 138.880,123.200 138.000 C 122.354 137.120,121.459 136.400,121.209 136.400 C 120.960 136.400,119.696 135.320,118.400 134.000 C 117.104 132.680,115.852 131.600,115.617 131.600 C 115.100 131.600,107.951 124.508,106.990 123.042 C 106.615 122.469,106.098 122.000,105.842 122.000 C 105.586 122.000,105.117 121.640,104.800 121.200 C 104.169 120.324,103.600 120.152,103.600 120.836 M286.800 120.800 C 286.800 121.020,287.160 121.200,287.600 121.200 C 288.040 121.200,288.400 121.020,288.400 120.800 C 288.400 120.580,288.040 120.400,287.600 120.400 C 287.160 120.400,286.800 120.580,286.800 120.800 M283.800 121.600 C 283.653 121.838,284.129 122.000,284.976 122.000 C 285.759 122.000,286.400 121.820,286.400 121.600 C 286.400 121.380,285.871 121.200,285.224 121.200 C 284.577 121.200,283.936 121.380,283.800 121.600 M208.500 123.010 C 208.005 123.539,207.600 124.120,207.600 124.302 C 207.600 124.483,206.880 125.428,206.000 126.400 C 205.120 127.372,204.400 128.400,204.400 128.684 C 204.400 128.968,204.220 129.200,204.000 129.200 C 203.780 129.200,203.600 129.470,203.600 129.800 C 203.600 130.130,203.703 130.400,203.829 130.400 C 204.220 130.400,205.200 129.279,205.200 128.832 C 205.200 128.598,205.740 127.891,206.400 127.260 C 207.060 126.629,207.600 125.914,207.600 125.670 C 207.600 125.426,208.230 124.597,209.000 123.827 C 209.770 123.057,210.400 122.331,210.400 122.213 C 210.400 121.683,209.318 122.137,208.500 123.010 M278.000 122.400 C 278.000 122.622,279.067 122.800,280.400 122.800 C 281.733 122.800,282.800 122.622,282.800 122.400 C 282.800 122.178,281.733 122.000,280.400 122.000 C 279.067 122.000,278.000 122.178,278.000 122.400 M95.900 125.029 C 95.735 125.196,95.600 125.663,95.600 126.067 C 95.600 126.470,95.420 126.800,95.200 126.800 C 94.980 126.800,94.800 127.340,94.800 128.000 C 94.800 128.660,94.980 129.200,95.200 129.200 C 95.420 129.200,95.600 128.675,95.600 128.033 C 95.600 127.392,95.798 126.801,96.039 126.720 C 96.281 126.640,96.416 126.158,96.339 125.649 C 96.263 125.140,96.065 124.861,95.900 125.029 M302.368 125.866 C 301.653 127.209,295.198 133.652,293.840 134.379 C 290.290 136.278,290.715 137.401,294.924 137.242 C 296.414 137.186,295.903 136.400,294.376 136.400 C 293.729 136.400,293.200 136.297,293.200 136.171 C 293.200 135.783,294.319 134.800,294.761 134.800 C 295.390 134.800,302.800 127.203,302.800 126.559 C 302.800 126.251,302.980 126.000,303.200 126.000 C 303.420 126.000,303.600 125.730,303.600 125.400 C 303.600 124.464,302.992 124.693,302.368 125.866 M94.000 131.400 C 94.000 132.170,94.180 132.800,94.400 132.800 C 94.620 132.800,94.800 132.170,94.800 131.400 C 94.800 130.630,94.620 130.000,94.400 130.000 C 94.180 130.000,94.000 130.630,94.000 131.400 M314.000 130.400 C 314.000 130.620,313.640 130.800,313.200 130.800 C 312.760 130.800,312.400 130.980,312.400 131.200 C 312.400 131.731,313.882 131.715,314.212 131.181 C 314.391 130.891,314.637 130.899,315.006 131.205 C 315.439 131.564,315.318 131.863,314.371 132.768 C 313.299 133.792,312.841 134.800,313.446 134.800 C 314.071 134.800,316.400 131.743,316.400 130.922 C 316.400 130.164,316.186 130.000,315.200 130.000 C 314.540 130.000,314.000 130.180,314.000 130.400 M202.500 131.398 C 202.225 131.711,202.000 132.227,202.000 132.545 C 202.000 133.315,200.340 136.400,199.926 136.400 C 199.747 136.400,199.600 136.850,199.600 137.400 C 199.600 137.950,199.780 138.400,200.000 138.400 C 200.220 138.400,200.400 138.040,200.400 137.600 C 200.400 137.160,200.580 136.800,200.800 136.800 C 201.020 136.800,201.200 136.440,201.200 136.000 C 201.200 135.560,201.380 135.200,201.600 135.200 C 201.820 135.200,202.000 134.840,202.000 134.400 C 202.000 133.960,202.180 133.600,202.400 133.600 C 202.620 133.600,202.800 133.240,202.800 132.800 C 202.800 132.360,202.980 132.000,203.200 132.000 C 203.420 132.000,203.600 131.730,203.600 131.400 C 203.600 130.654,203.156 130.653,202.500 131.398 M309.200 131.961 C 308.870 132.134,308.197 132.484,307.705 132.738 C 307.213 132.992,306.448 133.200,306.005 133.200 C 305.562 133.200,305.200 133.380,305.200 133.600 C 305.200 133.820,304.660 134.000,304.000 134.000 C 303.340 134.000,302.800 134.180,302.800 134.400 C 302.800 134.620,303.340 134.800,304.000 134.800 C 304.660 134.800,305.200 134.620,305.200 134.400 C 305.200 134.180,305.650 134.000,306.200 134.000 C 306.750 134.000,307.200 133.820,307.200 133.600 C 307.200 133.380,307.650 133.200,308.200 133.200 C 308.750 133.200,309.200 133.020,309.200 132.800 C 309.200 132.580,309.830 132.400,310.600 132.400 C 311.370 132.400,312.000 132.220,312.000 132.000 C 312.000 131.532,310.071 131.505,309.200 131.961 M93.200 141.200 C 93.200 145.733,93.348 148.400,93.600 148.400 C 93.852 148.400,94.000 145.733,94.000 141.200 C 94.000 136.667,93.852 134.000,93.600 134.000 C 93.348 134.000,93.200 136.667,93.200 141.200 M300.200 135.200 C 300.056 135.433,300.463 135.600,301.176 135.600 C 301.849 135.600,302.400 135.420,302.400 135.200 C 302.400 134.980,301.961 134.800,301.424 134.800 C 300.887 134.800,300.336 134.980,300.200 135.200 M312.400 135.541 C 312.400 135.728,311.860 136.446,311.200 137.137 C 310.540 137.828,310.000 138.502,310.000 138.636 C 310.000 138.770,309.460 139.383,308.800 140.000 C 308.140 140.617,307.600 141.409,307.600 141.760 C 307.600 142.112,307.435 142.400,307.234 142.400 C 306.614 142.400,303.385 145.519,303.690 145.823 C 303.848 145.981,304.504 145.545,305.149 144.855 C 305.793 144.165,306.578 143.600,306.893 143.600 C 307.207 143.600,307.720 143.108,308.032 142.507 C 308.345 141.906,309.095 140.889,309.700 140.248 C 310.305 139.606,310.800 138.838,310.800 138.541 C 310.800 138.243,311.087 138.000,311.437 138.000 C 311.788 138.000,312.169 137.640,312.284 137.200 C 312.399 136.760,312.652 136.400,312.847 136.400 C 313.041 136.400,313.200 136.130,313.200 135.800 C 313.200 135.470,313.020 135.200,312.800 135.200 C 312.580 135.200,312.400 135.353,312.400 135.541 M297.000 136.000 C 296.853 136.238,297.329 136.400,298.176 136.400 C 298.959 136.400,299.600 136.220,299.600 136.000 C 299.600 135.780,299.071 135.600,298.424 135.600 C 297.777 135.600,297.136 135.780,297.000 136.000 M289.400 137.600 C 289.264 137.820,289.423 138.000,289.753 138.000 C 290.083 138.000,290.464 137.820,290.600 137.600 C 290.736 137.380,290.577 137.200,290.247 137.200 C 289.917 137.200,289.536 137.380,289.400 137.600 M198.800 139.800 C 198.800 140.350,198.980 140.800,199.200 140.800 C 199.420 140.800,199.600 140.350,199.600 139.800 C 199.600 139.250,199.420 138.800,199.200 138.800 C 198.980 138.800,198.800 139.250,198.800 139.800 M198.000 142.000 C 198.000 142.440,198.180 142.800,198.400 142.800 C 198.620 142.800,198.800 142.440,198.800 142.000 C 198.800 141.560,198.620 141.200,198.400 141.200 C 198.180 141.200,198.000 141.560,198.000 142.000 M197.467 143.467 C 197.045 143.888,197.156 146.000,197.600 146.000 C 197.820 146.000,198.000 145.370,198.000 144.600 C 198.000 143.161,197.927 143.006,197.467 143.467 M130.400 143.853 C 130.400 144.277,132.566 145.999,133.100 146.000 C 133.375 146.000,133.600 146.180,133.600 146.400 C 133.600 146.620,133.870 146.800,134.200 146.800 C 135.318 146.800,133.243 144.442,132.100 144.413 C 131.825 144.406,131.600 144.220,131.600 144.000 C 131.600 143.780,131.330 143.600,131.000 143.600 C 130.670 143.600,130.400 143.714,130.400 143.853 M302.800 146.781 C 302.800 146.991,302.193 147.450,301.451 147.802 C 300.709 148.155,299.272 149.333,298.257 150.421 C 297.243 151.510,296.267 152.400,296.090 152.400 C 295.913 152.400,295.010 153.086,294.084 153.924 L 292.400 155.448 292.400 162.148 C 292.400 166.512,292.539 168.761,292.800 168.600 C 293.039 168.452,293.200 165.828,293.200 162.074 L 293.200 155.794 294.613 154.497 C 295.391 153.784,296.211 153.200,296.436 153.200 C 296.660 153.200,297.904 152.120,299.200 150.800 C 300.496 149.480,301.759 148.400,302.006 148.400 C 302.578 148.400,303.600 147.392,303.600 146.829 C 303.600 146.593,303.420 146.400,303.200 146.400 C 302.980 146.400,302.800 146.572,302.800 146.781 M135.200 147.200 C 135.200 147.420,135.470 147.600,135.800 147.600 C 136.130 147.600,136.760 147.960,137.200 148.400 C 137.640 148.840,138.270 149.200,138.600 149.200 C 138.930 149.200,139.200 149.380,139.200 149.600 C 139.200 149.820,139.470 150.000,139.800 150.000 C 140.130 150.000,140.400 149.897,140.400 149.771 C 140.400 149.334,139.254 148.400,138.717 148.400 C 138.420 148.400,137.917 148.040,137.600 147.600 C 137.010 146.781,135.200 146.480,135.200 147.200 M196.400 149.800 C 196.400 152.998,197.025 153.943,197.260 151.100 C 197.451 148.781,197.228 146.800,196.775 146.800 C 196.569 146.800,196.400 148.150,196.400 149.800 M94.000 150.800 C 94.000 151.680,94.180 152.400,94.400 152.400 C 94.620 152.400,94.800 151.680,94.800 150.800 C 94.800 149.920,94.620 149.200,94.400 149.200 C 94.180 149.200,94.000 149.920,94.000 150.800 M140.800 150.400 C 140.800 150.620,141.070 150.800,141.400 150.800 C 141.730 150.800,142.000 150.620,142.000 150.400 C 142.000 150.180,141.730 150.000,141.400 150.000 C 141.070 150.000,140.800 150.180,140.800 150.400 M142.400 151.056 C 142.400 151.556,143.814 152.375,144.700 152.387 C 145.195 152.394,145.600 152.580,145.600 152.800 C 145.600 153.020,145.960 153.200,146.400 153.200 C 146.840 153.200,147.200 153.380,147.200 153.600 C 147.200 153.820,147.470 154.000,147.800 154.000 C 148.130 154.000,148.400 154.180,148.400 154.400 C 148.400 154.620,148.760 154.800,149.200 154.800 C 149.640 154.800,150.000 154.620,150.000 154.400 C 150.000 154.180,149.655 154.000,149.233 154.000 C 148.812 154.000,148.407 153.865,148.333 153.700 C 148.141 153.268,144.828 151.600,144.162 151.600 C 143.853 151.600,143.600 151.420,143.600 151.200 C 143.600 150.980,143.330 150.800,143.000 150.800 C 142.670 150.800,142.400 150.915,142.400 151.056 M94.800 153.800 C 94.800 154.350,94.980 154.800,95.200 154.800 C 95.420 154.800,95.600 154.350,95.600 153.800 C 95.600 153.250,95.420 152.800,95.200 152.800 C 94.980 152.800,94.800 153.250,94.800 153.800 M150.400 155.200 C 150.400 155.420,150.760 155.600,151.200 155.600 C 151.640 155.600,152.000 155.780,152.000 156.000 C 152.000 156.220,152.270 156.400,152.600 156.400 C 153.396 156.400,153.359 156.009,152.500 155.357 C 151.671 154.727,150.400 154.632,150.400 155.200 M95.600 156.376 C 95.600 156.803,95.780 157.264,96.000 157.400 C 96.227 157.540,96.400 157.204,96.400 156.624 C 96.400 156.061,96.220 155.600,96.000 155.600 C 95.780 155.600,95.600 155.949,95.600 156.376 M154.000 156.800 C 154.000 157.020,154.540 157.200,155.200 157.200 C 155.860 157.200,156.400 157.020,156.400 156.800 C 156.400 156.580,155.860 156.400,155.200 156.400 C 154.540 156.400,154.000 156.580,154.000 156.800 M156.800 157.600 C 156.800 157.820,157.070 158.000,157.400 158.000 C 157.730 158.000,158.000 157.820,158.000 157.600 C 158.000 157.380,157.730 157.200,157.400 157.200 C 157.070 157.200,156.800 157.380,156.800 157.600 M96.700 157.829 C 96.254 158.281,96.337 160.400,96.800 160.400 C 97.020 160.400,97.200 160.760,97.200 161.200 C 97.200 161.640,97.380 162.000,97.600 162.000 C 97.820 162.000,98.000 162.360,98.000 162.800 C 98.000 163.240,98.136 163.600,98.302 163.600 C 98.469 163.600,98.844 164.140,99.136 164.800 C 99.699 166.071,100.400 166.404,100.400 165.400 C 100.400 165.070,100.220 164.800,100.000 164.800 C 99.780 164.800,99.600 164.440,99.600 164.000 C 99.600 163.560,99.420 163.200,99.200 163.200 C 98.980 163.200,98.800 162.930,98.800 162.600 C 98.800 162.270,98.620 162.000,98.400 162.000 C 98.180 162.000,98.000 161.640,98.000 161.200 C 98.000 160.760,97.831 160.400,97.624 160.400 C 97.417 160.400,97.192 159.753,97.124 158.962 C 97.056 158.171,96.865 157.661,96.700 157.829 M158.400 158.400 C 158.400 158.620,158.850 158.800,159.400 158.800 C 159.950 158.800,160.400 158.620,160.400 158.400 C 160.400 158.180,159.950 158.000,159.400 158.000 C 158.850 158.000,158.400 158.180,158.400 158.400 M196.667 158.267 C 196.240 158.694,196.359 164.728,196.800 165.000 C 197.055 165.158,197.200 163.937,197.200 161.624 C 197.200 157.996,197.164 157.769,196.667 158.267 M160.800 159.200 C 160.800 159.420,161.250 159.600,161.800 159.600 C 162.350 159.600,162.800 159.780,162.800 160.000 C 162.800 160.220,163.160 160.400,163.600 160.400 C 164.040 160.400,164.400 160.220,164.400 160.000 C 164.400 159.780,164.040 159.600,163.600 159.600 C 163.160 159.600,162.800 159.420,162.800 159.200 C 162.800 158.980,162.350 158.800,161.800 158.800 C 161.250 158.800,160.800 158.980,160.800 159.200 M165.200 160.800 C 165.200 161.020,165.740 161.200,166.400 161.200 C 167.060 161.200,167.600 161.380,167.600 161.600 C 167.600 161.820,168.151 162.000,168.824 162.000 C 169.537 162.000,169.944 161.833,169.800 161.600 C 169.664 161.380,169.124 161.200,168.600 161.200 C 168.076 161.200,167.536 161.020,167.400 160.800 C 167.264 160.580,166.713 160.400,166.176 160.400 C 165.639 160.400,165.200 160.580,165.200 160.800 M170.600 162.400 C 170.449 162.645,171.070 162.800,172.200 162.800 C 173.330 162.800,173.951 162.645,173.800 162.400 C 173.664 162.180,172.944 162.000,172.200 162.000 C 171.456 162.000,170.736 162.180,170.600 162.400 M174.800 163.200 C 174.800 163.420,175.441 163.600,176.224 163.600 C 177.071 163.600,177.547 163.438,177.400 163.200 C 177.264 162.980,176.623 162.800,175.976 162.800 C 175.329 162.800,174.800 162.980,174.800 163.200 M178.000 164.000 C 178.000 164.220,178.720 164.400,179.600 164.400 C 180.480 164.400,181.200 164.220,181.200 164.000 C 181.200 163.780,180.480 163.600,179.600 163.600 C 178.720 163.600,178.000 163.780,178.000 164.000 M182.000 164.800 C 182.000 165.020,182.911 165.200,184.024 165.200 C 185.271 165.200,185.952 165.047,185.800 164.800 C 185.664 164.580,184.753 164.400,183.776 164.400 C 182.799 164.400,182.000 164.580,182.000 164.800 M187.200 165.573 C 187.200 165.779,187.695 166.004,188.300 166.073 C 190.025 166.272,192.419 165.954,192.174 165.558 C 191.879 165.081,187.200 165.095,187.200 165.573 M194.000 166.400 C 194.000 166.620,194.900 166.800,196.000 166.800 C 197.100 166.800,198.000 166.620,198.000 166.400 C 198.000 166.180,197.100 166.000,196.000 166.000 C 194.900 166.000,194.000 166.180,194.000 166.400 M100.400 166.912 C 100.400 167.193,100.760 167.683,101.200 168.000 C 101.640 168.317,102.000 168.857,102.000 169.200 C 102.000 169.543,102.360 170.083,102.800 170.400 C 103.240 170.717,103.600 171.254,103.600 171.592 C 103.600 172.285,105.137 173.397,105.538 172.995 C 105.682 172.852,105.484 172.504,105.099 172.223 C 104.715 171.942,104.400 171.507,104.400 171.256 C 104.400 171.005,104.220 170.800,104.000 170.800 C 103.780 170.800,103.600 170.530,103.600 170.200 C 103.600 169.870,103.420 169.600,103.200 169.600 C 102.980 169.600,102.800 169.339,102.800 169.021 C 102.800 168.439,101.130 166.400,100.654 166.400 C 100.514 166.400,100.400 166.630,100.400 166.912 M291.600 174.600 C 291.600 176.067,291.774 177.200,292.000 177.200 C 292.226 177.200,292.400 176.067,292.400 174.600 C 292.400 173.133,292.226 172.000,292.000 172.000 C 291.774 172.000,291.600 173.133,291.600 174.600 M106.000 173.736 C 106.000 174.411,109.358 178.000,109.989 178.000 C 110.441 178.000,111.600 178.953,111.600 179.325 C 111.600 179.425,111.195 179.640,110.700 179.802 C 109.890 180.068,109.940 180.124,111.200 180.363 C 114.363 180.964,114.205 179.315,110.932 177.563 C 109.655 176.880,106.800 174.142,106.800 173.600 C 106.800 173.380,106.620 173.200,106.400 173.200 C 106.180 173.200,106.000 173.441,106.000 173.736 M92.400 176.576 C 92.400 177.993,92.580 179.264,92.800 179.400 C 93.046 179.552,93.200 178.872,93.200 177.627 C 93.200 176.040,93.372 175.500,94.000 175.107 C 95.136 174.398,94.992 174.000,93.600 174.000 L 92.400 174.000 92.400 176.576 M95.200 175.200 C 95.200 175.420,95.470 175.600,95.800 175.600 C 96.130 175.600,96.400 175.420,96.400 175.200 C 96.400 174.980,96.130 174.800,95.800 174.800 C 95.470 174.800,95.200 174.980,95.200 175.200 M96.800 176.000 C 96.800 176.220,97.070 176.400,97.400 176.400 C 97.730 176.400,98.000 176.220,98.000 176.000 C 98.000 175.780,97.730 175.600,97.400 175.600 C 97.070 175.600,96.800 175.780,96.800 176.000 M98.400 176.800 C 98.400 177.020,99.030 177.200,99.800 177.200 C 100.570 177.200,101.200 177.380,101.200 177.600 C 101.200 177.820,101.650 178.000,102.200 178.000 C 102.750 178.000,103.200 178.180,103.200 178.400 C 103.200 178.620,103.650 178.800,104.200 178.800 C 104.750 178.800,105.200 178.620,105.200 178.400 C 105.200 178.180,104.851 178.000,104.424 178.000 C 103.997 178.000,103.536 177.820,103.400 177.600 C 103.264 177.380,102.724 177.200,102.200 177.200 C 101.676 177.200,101.136 177.020,101.000 176.800 C 100.864 176.580,100.223 176.400,99.576 176.400 C 98.929 176.400,98.400 176.580,98.400 176.800 M106.000 179.200 C 106.000 179.420,106.731 179.600,107.624 179.600 C 108.604 179.600,109.149 179.442,109.000 179.200 C 108.864 178.980,108.133 178.800,107.376 178.800 C 106.619 178.800,106.000 178.980,106.000 179.200 M290.800 180.800 C 290.800 181.900,290.980 182.800,291.200 182.800 C 291.420 182.800,291.600 181.900,291.600 180.800 C 291.600 179.700,291.420 178.800,291.200 178.800 C 290.980 178.800,290.800 179.700,290.800 180.800 M93.200 183.176 C 93.200 184.043,93.380 184.864,93.600 185.000 C 93.844 185.151,94.000 184.537,94.000 183.424 C 94.000 182.421,93.820 181.600,93.600 181.600 C 93.380 181.600,93.200 182.309,93.200 183.176 M290.000 185.200 C 290.000 186.080,290.180 186.800,290.400 186.800 C 290.620 186.800,290.800 186.080,290.800 185.200 C 290.800 184.320,290.620 183.600,290.400 183.600 C 290.180 183.600,290.000 184.320,290.000 185.200 M94.000 187.200 C 94.000 187.860,94.180 188.400,94.400 188.400 C 94.620 188.400,94.800 188.940,94.800 189.600 C 94.800 190.260,94.980 190.800,95.200 190.800 C 95.420 190.800,95.600 190.260,95.600 189.600 C 95.600 188.940,95.420 188.400,95.200 188.400 C 94.980 188.400,94.800 187.860,94.800 187.200 C 94.800 186.540,94.620 186.000,94.400 186.000 C 94.180 186.000,94.000 186.540,94.000 187.200 M289.200 189.224 C 289.200 190.204,289.358 190.749,289.600 190.600 C 289.820 190.464,290.000 189.733,290.000 188.976 C 290.000 188.219,289.820 187.600,289.600 187.600 C 289.380 187.600,289.200 188.331,289.200 189.224 M95.600 191.976 C 95.600 192.403,95.780 192.864,96.000 193.000 C 96.220 193.136,96.400 193.777,96.400 194.424 C 96.400 195.071,96.580 195.600,96.800 195.600 C 97.020 195.600,97.200 195.878,97.200 196.217 C 97.200 196.556,97.560 197.220,98.000 197.692 C 98.440 198.164,98.800 198.787,98.800 199.075 C 98.800 199.364,98.980 199.600,99.200 199.600 C 99.420 199.600,99.600 199.878,99.600 200.217 C 99.600 200.556,99.960 201.220,100.400 201.692 C 100.840 202.164,101.200 202.787,101.200 203.075 C 101.200 203.364,101.350 203.600,101.532 203.600 C 101.715 203.600,102.120 204.091,102.432 204.691 C 103.124 206.021,110.213 213.200,110.834 213.200 C 111.079 213.200,111.783 213.740,112.400 214.400 C 113.017 215.060,113.726 215.600,113.977 215.600 C 114.228 215.600,114.820 215.960,115.292 216.400 C 115.764 216.840,116.387 217.200,116.675 217.200 C 116.964 217.200,117.200 217.380,117.200 217.600 C 117.200 217.820,117.452 218.000,117.759 218.000 C 118.067 218.000,119.345 218.540,120.600 219.200 C 122.964 220.444,124.000 220.687,124.000 220.000 C 124.000 219.780,123.640 219.600,123.200 219.600 C 122.760 219.600,122.400 219.420,122.400 219.200 C 122.400 218.980,122.040 218.800,121.600 218.800 C 121.160 218.800,120.800 218.620,120.800 218.400 C 120.800 218.180,120.350 218.000,119.800 218.000 C 119.250 218.000,118.800 217.820,118.800 217.600 C 118.800 217.380,118.440 217.200,118.000 217.200 C 117.560 217.200,117.200 217.020,117.200 216.800 C 117.200 216.580,116.930 216.400,116.600 216.400 C 116.270 216.400,116.000 216.250,116.000 216.068 C 116.000 215.885,115.505 215.480,114.900 215.168 C 114.295 214.855,113.480 214.206,113.090 213.724 C 112.699 213.242,112.024 212.735,111.591 212.597 C 110.614 212.287,102.800 204.519,102.800 203.858 C 102.800 203.593,102.440 203.117,102.000 202.800 C 101.560 202.483,101.200 201.903,101.200 201.512 C 101.200 201.120,101.020 200.800,100.800 200.800 C 100.580 200.800,100.400 200.530,100.400 200.200 C 100.400 199.870,100.220 199.600,100.000 199.600 C 99.780 199.600,99.600 199.330,99.600 199.000 C 99.600 198.670,99.454 198.400,99.275 198.400 C 99.096 198.400,98.702 197.770,98.400 197.000 C 98.098 196.230,97.704 195.600,97.525 195.600 C 97.346 195.600,97.200 195.060,97.200 194.400 C 97.200 193.740,97.020 193.200,96.800 193.200 C 96.580 193.200,96.400 192.750,96.400 192.200 C 96.400 191.650,96.220 191.200,96.000 191.200 C 95.780 191.200,95.600 191.549,95.600 191.976 M288.400 192.200 C 288.400 192.750,288.580 193.200,288.800 193.200 C 289.020 193.200,289.200 192.750,289.200 192.200 C 289.200 191.650,289.020 191.200,288.800 191.200 C 288.580 191.200,288.400 191.650,288.400 192.200 M287.600 196.400 C 287.600 197.280,287.420 198.000,287.200 198.000 C 286.980 198.000,286.800 198.540,286.800 199.200 C 286.800 199.860,286.980 200.400,287.200 200.400 C 287.420 200.400,287.600 199.860,287.600 199.200 C 287.600 198.540,287.780 198.000,288.000 198.000 C 288.220 198.000,288.400 197.280,288.400 196.400 C 288.400 195.520,288.220 194.800,288.000 194.800 C 287.780 194.800,287.600 195.520,287.600 196.400 M286.000 201.800 C 286.000 202.350,286.180 202.800,286.400 202.800 C 286.620 202.800,286.800 202.350,286.800 201.800 C 286.800 201.250,286.620 200.800,286.400 200.800 C 286.180 200.800,286.000 201.250,286.000 201.800 M285.200 204.200 C 285.200 204.750,285.380 205.200,285.600 205.200 C 285.820 205.200,286.000 204.750,286.000 204.200 C 286.000 203.650,285.820 203.200,285.600 203.200 C 285.380 203.200,285.200 203.650,285.200 204.200 M284.400 206.600 C 284.400 207.150,284.220 207.600,284.000 207.600 C 283.780 207.600,283.600 207.960,283.600 208.400 C 283.600 208.840,283.780 209.200,284.000 209.200 C 284.220 209.200,284.400 208.840,284.400 208.400 C 284.400 207.960,284.580 207.600,284.800 207.600 C 285.020 207.600,285.200 207.150,285.200 206.600 C 285.200 206.050,285.020 205.600,284.800 205.600 C 284.580 205.600,284.400 206.050,284.400 206.600 M282.800 210.976 C 282.800 211.759,282.620 212.400,282.400 212.400 C 282.180 212.400,282.000 212.760,282.000 213.200 C 282.000 213.640,281.820 214.000,281.600 214.000 C 281.380 214.000,281.200 214.450,281.200 215.000 C 281.200 215.550,281.020 216.000,280.800 216.000 C 280.580 216.000,280.400 216.360,280.400 216.800 C 280.400 217.240,280.220 217.600,280.000 217.600 C 279.780 217.600,279.600 217.960,279.600 218.400 C 279.600 218.840,279.420 219.200,279.200 219.200 C 278.980 219.200,278.800 219.560,278.800 220.000 C 278.800 220.440,278.620 220.800,278.400 220.800 C 278.180 220.800,278.000 221.250,278.000 221.800 C 278.000 222.350,277.820 222.800,277.600 222.800 C 277.380 222.800,277.200 223.160,277.200 223.600 C 277.200 224.040,277.380 224.400,277.600 224.400 C 277.820 224.400,278.000 224.040,278.000 223.600 C 278.000 223.160,278.180 222.800,278.400 222.800 C 278.620 222.800,278.800 222.528,278.800 222.195 C 278.800 221.862,278.980 221.232,279.200 220.795 C 279.420 220.358,279.780 219.640,280.000 219.200 C 280.220 218.760,280.580 218.040,280.800 217.600 C 281.020 217.160,281.380 216.442,281.600 216.005 C 281.820 215.568,282.000 214.938,282.000 214.605 C 282.000 214.272,282.180 214.000,282.400 214.000 C 282.620 214.000,282.800 213.640,282.800 213.200 C 282.800 212.760,282.980 212.400,283.200 212.400 C 283.420 212.400,283.600 211.871,283.600 211.224 C 283.600 210.577,283.420 209.936,283.200 209.800 C 282.962 209.653,282.800 210.129,282.800 210.976 M124.400 220.800 C 124.400 221.020,124.850 221.200,125.400 221.200 C 125.950 221.200,126.400 221.020,126.400 220.800 C 126.400 220.580,125.950 220.400,125.400 220.400 C 124.850 220.400,124.400 220.580,124.400 220.800 M126.800 221.600 C 126.800 221.820,126.001 222.000,125.024 222.000 C 122.557 222.000,122.234 222.788,124.676 222.846 C 127.360 222.910,128.155 222.788,128.494 222.259 C 129.003 221.464,128.831 221.200,127.800 221.200 C 127.250 221.200,126.800 221.380,126.800 221.600 M109.200 222.843 C 109.200 223.484,109.368 223.620,109.900 223.410 C 110.285 223.258,111.540 223.034,112.690 222.912 C 115.548 222.609,114.938 222.000,111.776 222.000 C 109.423 222.000,109.200 222.073,109.200 222.843 M110.000 225.000 C 110.000 225.550,110.180 226.000,110.400 226.000 C 110.620 226.000,110.800 226.360,110.800 226.800 C 110.800 227.240,110.980 227.600,111.200 227.600 C 111.420 227.600,111.600 227.240,111.600 226.800 C 111.600 226.360,111.420 226.000,111.200 226.000 C 110.980 226.000,110.800 225.550,110.800 225.000 C 110.800 224.450,110.620 224.000,110.400 224.000 C 110.180 224.000,110.000 224.450,110.000 225.000 M276.400 225.400 C 276.400 225.730,276.265 226.001,276.100 226.003 C 275.733 226.007,274.739 228.072,274.985 228.318 C 275.287 228.620,276.400 227.291,276.400 226.629 C 276.400 226.283,276.580 226.000,276.800 226.000 C 277.020 226.000,277.200 225.730,277.200 225.400 C 277.200 225.070,277.020 224.800,276.800 224.800 C 276.580 224.800,276.400 225.070,276.400 225.400 M111.600 229.000 C 111.600 229.550,111.780 230.000,112.000 230.000 C 112.220 230.000,112.400 230.360,112.400 230.800 C 112.400 231.240,112.580 231.600,112.800 231.600 C 113.020 231.600,113.200 231.825,113.200 232.100 C 113.201 232.634,114.923 234.800,115.347 234.800 C 115.862 234.800,115.578 233.874,114.870 233.247 C 114.468 232.891,113.884 232.015,113.572 231.300 C 113.260 230.585,112.869 230.000,112.702 230.000 C 112.536 230.000,112.400 229.550,112.400 229.000 C 112.400 228.450,112.220 228.000,112.000 228.000 C 111.780 228.000,111.600 228.450,111.600 229.000 M274.000 229.400 C 274.000 229.730,273.820 230.000,273.600 230.000 C 273.380 230.000,273.200 230.360,273.200 230.800 C 273.200 231.240,273.020 231.600,272.800 231.600 C 272.580 231.600,272.400 231.870,272.400 232.200 C 272.400 232.530,272.220 232.800,272.000 232.800 C 271.780 232.800,271.600 233.160,271.600 233.600 C 271.600 234.040,271.450 234.400,271.268 234.400 C 271.085 234.400,270.680 234.895,270.368 235.500 C 270.055 236.105,269.485 236.835,269.100 237.123 C 268.456 237.604,268.112 238.800,268.618 238.800 C 269.019 238.800,270.800 236.842,270.800 236.401 C 270.800 236.162,271.160 235.580,271.600 235.108 C 272.040 234.636,272.400 234.013,272.400 233.725 C 272.400 233.436,272.580 233.200,272.800 233.200 C 273.020 233.200,273.200 232.840,273.200 232.400 C 273.200 231.960,273.380 231.600,273.600 231.600 C 273.820 231.600,274.000 231.240,274.000 230.800 C 274.000 230.360,274.180 230.000,274.400 230.000 C 274.620 230.000,274.800 229.730,274.800 229.400 C 274.800 229.070,274.620 228.800,274.400 228.800 C 274.180 228.800,274.000 229.070,274.000 229.400 M115.600 235.800 C 115.600 236.130,115.780 236.400,116.000 236.400 C 116.220 236.400,116.400 236.679,116.400 237.019 C 116.400 237.740,125.421 246.800,126.140 246.800 C 126.406 246.800,126.883 247.160,127.200 247.600 C 127.517 248.040,128.097 248.400,128.488 248.400 C 128.880 248.400,129.200 248.580,129.200 248.800 C 129.200 249.020,129.436 249.200,129.725 249.200 C 130.013 249.200,130.607 249.515,131.045 249.900 C 132.716 251.370,134.400 252.023,134.400 251.200 C 134.400 250.980,134.083 250.800,133.696 250.800 C 133.309 250.800,132.768 250.440,132.493 250.000 C 132.218 249.560,131.635 249.200,131.197 249.200 C 130.758 249.200,130.400 249.020,130.400 248.800 C 130.400 248.580,130.130 248.400,129.800 248.400 C 129.470 248.400,129.200 248.220,129.200 248.000 C 129.200 247.780,128.958 247.600,128.662 247.600 C 128.366 247.600,127.798 247.240,127.400 246.800 C 127.002 246.360,126.544 246.000,126.382 246.000 C 125.868 246.000,117.732 237.747,116.964 236.447 C 116.172 235.105,115.600 234.834,115.600 235.800 M267.600 239.783 C 267.600 240.104,266.880 241.123,266.000 242.048 C 265.120 242.973,264.400 243.971,264.400 244.265 C 264.400 244.559,264.250 244.800,264.068 244.800 C 263.885 244.800,263.480 245.279,263.168 245.865 C 262.855 246.450,261.745 247.781,260.700 248.822 C 259.655 249.862,258.800 250.879,258.800 251.082 C 258.800 251.491,244.393 266.000,243.987 266.000 C 243.846 266.000,242.973 266.720,242.048 267.600 C 241.123 268.480,240.187 269.200,239.968 269.200 C 239.748 269.200,238.842 269.920,237.953 270.800 C 237.064 271.680,236.081 272.400,235.768 272.400 C 235.456 272.400,235.200 272.580,235.200 272.800 C 235.200 273.020,234.916 273.200,234.569 273.200 C 234.222 273.200,233.440 273.699,232.831 274.308 C 232.221 274.917,231.245 275.633,230.661 275.899 C 230.078 276.165,229.600 276.567,229.600 276.791 C 229.600 277.016,229.240 277.200,228.800 277.200 C 228.360 277.200,228.000 277.336,228.000 277.502 C 228.000 277.669,227.460 278.044,226.800 278.336 C 225.529 278.899,225.196 279.600,226.200 279.600 C 226.530 279.600,226.801 279.465,226.803 279.300 C 226.807 278.963,228.725 278.000,229.391 278.000 C 229.629 278.000,230.083 277.640,230.400 277.200 C 230.717 276.760,231.225 276.400,231.528 276.400 C 231.831 276.400,232.583 275.860,233.200 275.200 C 233.817 274.540,234.609 274.000,234.960 274.000 C 235.312 274.000,235.600 273.820,235.600 273.600 C 235.600 273.380,235.884 273.200,236.231 273.200 C 236.579 273.200,237.554 272.480,238.400 271.600 C 239.246 270.720,240.097 270.000,240.293 270.000 C 240.489 270.000,240.998 269.676,241.425 269.280 C 241.851 268.884,242.515 268.439,242.900 268.292 C 243.285 268.145,243.600 267.780,243.600 267.480 C 243.600 267.180,244.094 266.680,244.697 266.368 C 245.970 265.709,259.600 252.162,259.600 251.555 C 259.600 251.331,260.500 250.271,261.600 249.200 C 262.700 248.129,263.600 246.970,263.600 246.626 C 263.600 246.282,263.750 246.000,263.932 246.000 C 264.115 246.000,264.520 245.505,264.832 244.900 C 265.145 244.295,265.850 243.345,266.400 242.789 C 268.074 241.097,268.920 239.200,268.000 239.200 C 267.780 239.200,267.600 239.462,267.600 239.783 M134.800 252.000 C 134.800 252.220,135.070 252.400,135.400 252.400 C 135.730 252.400,136.000 252.220,136.000 252.000 C 136.000 251.780,135.730 251.600,135.400 251.600 C 135.070 251.600,134.800 251.780,134.800 252.000 M136.400 252.800 C 136.400 253.020,136.850 253.200,137.400 253.200 C 137.950 253.200,138.400 253.020,138.400 252.800 C 138.400 252.580,137.950 252.400,137.400 252.400 C 136.850 252.400,136.400 252.580,136.400 252.800 M138.800 253.600 C 138.800 253.820,139.329 254.000,139.976 254.000 C 140.623 254.000,141.264 254.180,141.400 254.400 C 141.536 254.620,141.997 254.800,142.424 254.800 C 142.851 254.800,143.200 254.620,143.200 254.400 C 143.200 254.180,142.750 254.000,142.200 254.000 C 141.650 254.000,141.200 253.820,141.200 253.600 C 141.200 253.380,140.660 253.200,140.000 253.200 C 139.340 253.200,138.800 253.380,138.800 253.600 M144.200 255.200 C 144.336 255.420,144.977 255.600,145.624 255.600 C 146.271 255.600,146.800 255.420,146.800 255.200 C 146.800 254.980,146.159 254.800,145.376 254.800 C 144.529 254.800,144.053 254.962,144.200 255.200 M147.800 256.000 C 147.936 256.220,148.847 256.400,149.824 256.400 C 150.801 256.400,151.600 256.580,151.600 256.800 C 151.600 257.020,151.364 257.200,151.075 257.200 C 150.787 257.200,150.164 257.560,149.692 258.000 C 149.220 258.440,148.638 258.800,148.399 258.800 C 147.958 258.800,146.000 260.581,146.000 260.982 C 146.000 261.491,147.197 261.143,147.677 260.494 C 147.965 260.105,148.695 259.569,149.300 259.302 C 149.905 259.036,150.400 258.633,150.400 258.409 C 150.400 258.184,150.625 258.000,150.900 258.000 C 151.434 257.999,153.600 256.277,153.600 255.853 C 153.600 255.714,152.239 255.600,150.576 255.600 C 148.663 255.600,147.644 255.747,147.800 256.000 M144.400 261.600 C 144.400 261.820,144.040 262.000,143.600 262.000 C 143.160 262.000,142.800 262.136,142.800 262.302 C 142.800 262.469,142.260 262.844,141.600 263.136 C 140.329 263.699,139.996 264.400,141.000 264.400 C 141.330 264.400,141.600 264.254,141.600 264.075 C 141.600 263.896,142.230 263.502,143.000 263.200 C 143.770 262.898,144.400 262.504,144.400 262.325 C 144.400 262.146,144.771 262.000,145.224 262.000 C 145.677 262.000,145.936 261.820,145.800 261.600 C 145.664 261.380,145.293 261.200,144.976 261.200 C 144.659 261.200,144.400 261.380,144.400 261.600 M138.800 264.800 C 138.800 265.020,139.070 265.200,139.400 265.200 C 139.730 265.200,140.000 265.020,140.000 264.800 C 140.000 264.580,139.730 264.400,139.400 264.400 C 139.070 264.400,138.800 264.580,138.800 264.800 M137.200 265.600 C 137.200 265.820,136.840 266.000,136.400 266.000 C 135.960 266.000,135.600 266.180,135.600 266.400 C 135.600 266.620,135.960 266.800,136.400 266.800 C 136.840 266.800,137.200 266.620,137.200 266.400 C 137.200 266.180,137.470 266.000,137.800 266.000 C 138.130 266.000,138.400 265.820,138.400 265.600 C 138.400 265.380,138.130 265.200,137.800 265.200 C 137.470 265.200,137.200 265.380,137.200 265.600 M133.200 267.200 C 133.200 267.420,133.650 267.600,134.200 267.600 C 134.750 267.600,135.200 267.420,135.200 267.200 C 135.200 266.980,134.750 266.800,134.200 266.800 C 133.650 266.800,133.200 266.980,133.200 267.200 M131.600 268.000 C 131.600 268.220,131.240 268.400,130.800 268.400 C 130.360 268.400,130.000 268.580,130.000 268.800 C 130.000 269.020,130.360 269.200,130.800 269.200 C 131.240 269.200,131.600 269.020,131.600 268.800 C 131.600 268.580,131.870 268.400,132.200 268.400 C 132.530 268.400,132.800 268.220,132.800 268.000 C 132.800 267.780,132.530 267.600,132.200 267.600 C 131.870 267.600,131.600 267.780,131.600 268.000 M127.600 269.600 C 127.600 269.820,127.240 270.000,126.800 270.000 C 126.360 270.000,126.000 270.180,126.000 270.400 C 126.000 270.620,126.360 270.800,126.800 270.800 C 127.240 270.800,127.600 270.620,127.600 270.400 C 127.600 270.180,128.050 270.000,128.600 270.000 C 129.150 270.000,129.600 269.820,129.600 269.600 C 129.600 269.380,129.150 269.200,128.600 269.200 C 128.050 269.200,127.600 269.380,127.600 269.600 M123.400 271.200 C 123.255 271.434,123.670 271.600,124.400 271.600 C 125.130 271.600,125.545 271.434,125.400 271.200 C 125.264 270.980,124.814 270.800,124.400 270.800 C 123.986 270.800,123.536 270.980,123.400 271.200 M119.600 272.000 C 119.600 272.220,120.320 272.400,121.200 272.400 C 122.080 272.400,122.800 272.220,122.800 272.000 C 122.800 271.780,122.080 271.600,121.200 271.600 C 120.320 271.600,119.600 271.780,119.600 272.000 M116.400 272.800 C 116.400 273.020,116.940 273.200,117.600 273.200 C 118.260 273.200,118.800 273.020,118.800 272.800 C 118.800 272.580,118.260 272.400,117.600 272.400 C 116.940 272.400,116.400 272.580,116.400 272.800 M112.600 273.600 C 112.449 273.844,113.063 274.000,114.176 274.000 C 115.179 274.000,116.000 273.820,116.000 273.600 C 116.000 273.380,115.291 273.200,114.424 273.200 C 113.557 273.200,112.736 273.380,112.600 273.600 M108.400 274.400 C 108.400 274.620,109.210 274.800,110.200 274.800 C 111.190 274.800,112.000 274.620,112.000 274.400 C 112.000 274.180,111.190 274.000,110.200 274.000 C 109.210 274.000,108.400 274.180,108.400 274.400 M83.600 275.429 C 83.600 276.237,84.563 277.200,85.371 277.200 C 85.717 277.200,86.000 277.380,86.000 277.600 C 86.000 277.820,86.360 278.000,86.800 278.000 C 87.240 278.000,87.600 278.180,87.600 278.400 C 87.600 278.620,87.836 278.800,88.125 278.800 C 88.413 278.800,89.036 279.160,89.508 279.600 C 89.980 280.040,90.604 280.400,90.895 280.400 C 91.186 280.400,91.683 280.760,92.000 281.200 C 92.317 281.640,92.771 282.000,93.009 282.000 C 93.675 282.000,95.593 282.963,95.597 283.300 C 95.599 283.465,96.050 283.600,96.600 283.600 C 97.150 283.600,97.600 283.420,97.600 283.200 C 97.600 282.980,97.366 282.800,97.080 282.800 C 96.344 282.800,94.407 281.859,94.403 281.500 C 94.401 281.335,94.130 281.200,93.800 281.200 C 93.470 281.200,92.840 280.840,92.400 280.400 C 91.960 279.960,91.330 279.600,91.000 279.600 C 90.670 279.600,90.400 279.420,90.400 279.200 C 90.400 278.980,90.040 278.800,89.600 278.800 C 89.160 278.800,88.800 278.620,88.800 278.400 C 88.800 278.180,88.530 278.000,88.200 278.000 C 87.870 278.000,87.600 277.820,87.600 277.600 C 87.600 277.380,87.240 277.200,86.800 277.200 C 85.851 277.200,85.726 276.191,86.633 275.843 C 86.981 275.709,88.241 275.600,89.433 275.600 C 90.625 275.600,91.600 275.420,91.600 275.200 C 91.600 274.960,90.000 274.800,87.600 274.800 C 84.230 274.800,83.600 274.899,83.600 275.429 M101.400 275.200 C 101.244 275.453,102.263 275.600,104.176 275.600 C 105.925 275.600,107.200 275.431,107.200 275.200 C 107.200 274.972,106.008 274.800,104.424 274.800 C 102.897 274.800,101.536 274.980,101.400 275.200 M224.000 279.902 C 224.000 280.069,223.460 280.444,222.800 280.736 C 221.529 281.299,221.196 282.000,222.200 282.000 C 222.530 282.000,222.800 281.864,222.800 281.698 C 222.800 281.531,223.340 281.156,224.000 280.864 C 225.271 280.301,225.604 279.600,224.600 279.600 C 224.270 279.600,224.000 279.736,224.000 279.902 M220.000 282.400 C 220.000 282.620,219.658 282.800,219.241 282.800 C 218.823 282.800,217.455 283.340,216.200 284.000 C 214.945 284.660,213.667 285.200,213.359 285.200 C 213.052 285.200,212.800 285.380,212.800 285.600 C 212.800 285.820,212.530 286.000,212.200 286.000 C 211.870 286.000,211.600 286.180,211.600 286.400 C 211.600 286.620,211.150 286.800,210.600 286.800 C 210.050 286.800,209.600 286.980,209.600 287.200 C 209.600 287.420,210.050 287.600,210.600 287.600 C 211.150 287.600,211.600 287.420,211.600 287.200 C 211.600 286.980,211.960 286.800,212.400 286.800 C 212.840 286.800,213.200 286.620,213.200 286.400 C 213.200 286.180,213.560 286.000,214.000 286.000 C 214.440 286.000,214.800 285.820,214.800 285.600 C 214.800 285.380,215.160 285.200,215.600 285.200 C 216.040 285.200,216.400 285.020,216.400 284.800 C 216.400 284.580,216.760 284.400,217.200 284.400 C 217.640 284.400,218.000 284.220,218.000 284.000 C 218.000 283.780,218.234 283.600,218.520 283.600 C 219.256 283.600,221.193 282.659,221.197 282.300 C 221.199 282.135,220.930 282.000,220.600 282.000 C 220.270 282.000,220.000 282.180,220.000 282.400 M98.000 284.000 C 98.000 284.220,98.270 284.400,98.600 284.400 C 98.930 284.400,99.200 284.220,99.200 284.000 C 99.200 283.780,98.930 283.600,98.600 283.600 C 98.270 283.600,98.000 283.780,98.000 284.000 M99.600 284.800 C 99.600 285.020,99.960 285.200,100.400 285.200 C 100.840 285.200,101.201 285.335,101.203 285.500 C 101.207 285.859,103.144 286.800,103.880 286.800 C 104.166 286.800,104.400 286.980,104.400 287.200 C 104.400 287.420,104.839 287.600,105.376 287.600 C 105.913 287.600,106.464 287.780,106.600 288.000 C 106.736 288.220,107.197 288.400,107.624 288.400 C 108.051 288.400,108.400 288.220,108.400 288.000 C 108.400 287.780,107.950 287.600,107.400 287.600 C 106.850 287.600,106.400 287.420,106.400 287.200 C 106.400 286.980,105.950 286.800,105.400 286.800 C 104.850 286.800,104.400 286.620,104.400 286.400 C 104.400 286.180,103.950 286.000,103.400 286.000 C 102.850 286.000,102.400 285.820,102.400 285.600 C 102.400 285.380,102.130 285.200,101.800 285.200 C 101.470 285.200,101.200 285.020,101.200 284.800 C 101.200 284.580,100.840 284.400,100.400 284.400 C 99.960 284.400,99.600 284.580,99.600 284.800 M207.200 288.000 C 207.200 288.220,207.650 288.400,208.200 288.400 C 208.750 288.400,209.200 288.220,209.200 288.000 C 209.200 287.780,208.750 287.600,208.200 287.600 C 207.650 287.600,207.200 287.780,207.200 288.000 M109.200 288.800 C 109.200 289.020,109.650 289.200,110.200 289.200 C 110.750 289.200,111.200 289.020,111.200 288.800 C 111.200 288.580,110.750 288.400,110.200 288.400 C 109.650 288.400,109.200 288.580,109.200 288.800 M204.800 288.800 C 204.800 289.020,205.250 289.200,205.800 289.200 C 206.350 289.200,206.800 289.020,206.800 288.800 C 206.800 288.580,206.350 288.400,205.800 288.400 C 205.250 288.400,204.800 288.580,204.800 288.800 M111.600 289.600 C 111.600 289.820,111.859 290.000,112.176 290.000 C 112.493 290.000,112.864 289.820,113.000 289.600 C 113.136 289.380,112.877 289.200,112.424 289.200 C 111.971 289.200,111.600 289.380,111.600 289.600 M202.800 289.600 C 202.800 289.820,202.260 290.000,201.600 290.000 C 200.940 290.000,200.400 290.180,200.400 290.400 C 200.400 290.620,199.860 290.800,199.200 290.800 C 198.540 290.800,198.000 290.980,198.000 291.200 C 198.000 291.420,197.359 291.600,196.576 291.600 C 195.729 291.600,195.253 291.762,195.400 292.000 C 195.536 292.220,196.076 292.400,196.600 292.400 C 197.124 292.400,197.664 292.220,197.800 292.000 C 197.936 291.780,198.476 291.600,199.000 291.600 C 199.524 291.600,200.064 291.420,200.200 291.200 C 200.336 290.980,200.977 290.800,201.624 290.800 C 202.271 290.800,202.800 290.620,202.800 290.400 C 202.800 290.180,203.160 290.000,203.600 290.000 C 204.040 290.000,204.400 289.820,204.400 289.600 C 204.400 289.380,204.040 289.200,203.600 289.200 C 203.160 289.200,202.800 289.380,202.800 289.600 M113.200 290.400 C 113.200 290.620,113.650 290.800,114.200 290.800 C 114.750 290.800,115.200 290.620,115.200 290.400 C 115.200 290.180,114.750 290.000,114.200 290.000 C 113.650 290.000,113.200 290.180,113.200 290.400 M115.600 291.200 C 115.600 291.420,116.050 291.600,116.600 291.600 C 117.150 291.600,117.600 291.420,117.600 291.200 C 117.600 290.980,117.150 290.800,116.600 290.800 C 116.050 290.800,115.600 290.980,115.600 291.200 M118.000 292.000 C 118.000 292.220,118.529 292.400,119.176 292.400 C 119.823 292.400,120.464 292.580,120.600 292.800 C 120.736 293.020,121.467 293.200,122.224 293.200 C 122.981 293.200,123.600 293.020,123.600 292.800 C 123.600 292.580,122.880 292.400,122.000 292.400 C 121.120 292.400,120.400 292.220,120.400 292.000 C 120.400 291.780,119.860 291.600,119.200 291.600 C 118.540 291.600,118.000 291.780,118.000 292.000 M191.600 292.800 C 191.600 293.020,192.320 293.200,193.200 293.200 C 194.080 293.200,194.800 293.020,194.800 292.800 C 194.800 292.580,194.080 292.400,193.200 292.400 C 192.320 292.400,191.600 292.580,191.600 292.800 M125.000 293.600 C 125.136 293.820,125.777 294.000,126.424 294.000 C 127.071 294.000,127.600 293.820,127.600 293.600 C 127.600 293.380,126.959 293.200,126.176 293.200 C 125.329 293.200,124.853 293.362,125.000 293.600 M188.000 293.600 C 188.000 293.820,188.630 294.000,189.400 294.000 C 190.170 294.000,190.800 293.820,190.800 293.600 C 190.800 293.380,190.170 293.200,189.400 293.200 C 188.630 293.200,188.000 293.380,188.000 293.600 M128.200 294.400 C 128.336 294.620,129.067 294.800,129.824 294.800 C 130.581 294.800,131.200 294.620,131.200 294.400 C 131.200 294.180,130.469 294.000,129.576 294.000 C 128.596 294.000,128.051 294.158,128.200 294.400 M184.000 294.400 C 184.000 294.620,184.709 294.800,185.576 294.800 C 186.443 294.800,187.264 294.620,187.400 294.400 C 187.551 294.156,186.937 294.000,185.824 294.000 C 184.821 294.000,184.000 294.180,184.000 294.400 M131.800 295.200 C 131.936 295.420,132.757 295.600,133.624 295.600 C 134.491 295.600,135.200 295.420,135.200 295.200 C 135.200 294.980,134.379 294.800,133.376 294.800 C 132.263 294.800,131.649 294.956,131.800 295.200 M180.000 295.200 C 180.000 295.420,180.810 295.600,181.800 295.600 C 182.790 295.600,183.600 295.420,183.600 295.200 C 183.600 294.980,182.790 294.800,181.800 294.800 C 180.810 294.800,180.000 294.980,180.000 295.200 M136.400 296.000 C 136.400 296.220,137.300 296.400,138.400 296.400 C 139.500 296.400,140.400 296.220,140.400 296.000 C 140.400 295.780,139.500 295.600,138.400 295.600 C 137.300 295.600,136.400 295.780,136.400 296.000 M174.400 296.000 C 174.400 296.220,175.390 296.400,176.600 296.400 C 177.810 296.400,178.800 296.220,178.800 296.000 C 178.800 295.780,177.810 295.600,176.600 295.600 C 175.390 295.600,174.400 295.780,174.400 296.000 M142.000 296.800 C 142.000 297.028,143.192 297.200,144.776 297.200 C 146.303 297.200,147.664 297.020,147.800 296.800 C 147.956 296.547,146.937 296.400,145.024 296.400 C 143.275 296.400,142.000 296.569,142.000 296.800 M166.200 296.800 C 166.336 297.020,167.776 297.200,169.400 297.200 C 171.024 297.200,172.464 297.020,172.600 296.800 C 172.758 296.545,171.596 296.400,169.400 296.400 C 167.204 296.400,166.042 296.545,166.200 296.800 " stroke="none" fill="#636363" fill-rule="evenodd"></path><path id="path2" d="M310.575 137.300 L 309.400 138.600 310.700 137.425 C 311.415 136.779,312.000 136.194,312.000 136.125 C 312.000 135.816,311.670 136.088,310.575 137.300 M94.114 141.000 C 94.117 142.100,94.195 142.503,94.287 141.895 C 94.379 141.286,94.377 140.386,94.282 139.895 C 94.187 139.403,94.111 139.900,94.114 141.000 M117.000 223.200 C 116.853 223.438,117.329 223.600,118.176 223.600 C 118.959 223.600,119.600 223.420,119.600 223.200 C 119.600 222.980,119.071 222.800,118.424 222.800 C 117.777 222.800,117.136 222.980,117.000 223.200 M272.640 230.840 C 272.172 231.778,272.155 231.970,272.567 231.627 C 273.059 231.219,273.718 229.600,273.392 229.600 C 273.319 229.600,272.980 230.158,272.640 230.840 M94.400 276.000 C 94.400 276.220,94.861 276.400,95.424 276.400 C 96.004 276.400,96.340 276.227,96.200 276.000 C 96.064 275.780,95.603 275.600,95.176 275.600 C 94.749 275.600,94.400 275.780,94.400 276.000 " stroke="none" fill="#3c3c3c" fill-rule="evenodd"></path><path id="path3" d="M236.800 108.733 C 236.800 108.990,236.395 109.221,235.900 109.246 C 235.159 109.285,235.131 109.327,235.742 109.484 C 236.540 109.689,237.525 108.991,237.073 108.540 C 236.923 108.390,236.800 108.477,236.800 108.733 M243.900 108.693 C 244.835 108.777,246.365 108.777,247.300 108.693 C 248.235 108.609,247.470 108.540,245.600 108.540 C 243.730 108.540,242.965 108.609,243.900 108.693 M308.243 113.433 C 307.867 114.411,307.949 114.508,308.600 113.857 C 309.280 113.177,309.367 112.800,308.843 112.800 C 308.646 112.800,308.376 113.085,308.243 113.433 M307.358 116.300 C 307.239 116.685,306.946 117.360,306.707 117.800 C 306.317 118.517,306.341 118.543,306.936 118.051 C 307.301 117.749,307.600 117.179,307.600 116.784 C 307.600 116.390,307.825 115.976,308.100 115.865 C 308.492 115.707,308.489 115.656,308.087 115.632 C 307.806 115.614,307.477 115.915,307.358 116.300 M296.800 117.545 C 296.800 117.734,297.250 117.803,297.800 117.698 C 298.350 117.593,298.800 117.438,298.800 117.353 C 298.800 117.269,298.350 117.200,297.800 117.200 C 297.250 117.200,296.800 117.355,296.800 117.545 M213.708 119.341 C 213.217 119.584,212.723 120.023,212.611 120.317 C 212.492 120.626,212.908 120.493,213.603 119.998 C 214.539 119.331,215.264 118.572,214.700 118.849 C 214.645 118.876,214.198 119.097,213.708 119.341 M211.600 121.533 C 211.600 121.790,211.412 122.000,211.183 122.000 C 210.954 122.000,210.369 122.382,209.883 122.849 C 209.097 123.605,209.088 123.653,209.800 123.279 C 211.289 122.497,212.200 121.667,211.899 121.366 C 211.735 121.201,211.600 121.277,211.600 121.533 M282.800 122.333 C 282.800 122.590,282.305 122.825,281.700 122.854 C 280.690 122.904,280.678 122.924,281.546 123.088 C 282.519 123.273,283.560 122.627,283.073 122.140 C 282.923 121.990,282.800 122.077,282.800 122.333 M302.899 124.391 C 302.212 125.490,302.274 125.783,303.032 125.025 C 303.380 124.677,303.604 124.213,303.531 123.992 C 303.457 123.772,303.173 123.951,302.899 124.391 M313.676 131.388 L 312.752 131.898 313.690 132.077 C 314.397 132.212,314.629 132.076,314.629 131.528 C 314.629 131.128,314.622 130.818,314.614 130.839 C 314.606 130.861,314.184 131.108,313.676 131.388 M312.000 131.933 C 312.000 132.190,311.595 132.421,311.100 132.446 C 310.359 132.485,310.331 132.527,310.942 132.684 C 311.740 132.889,312.725 132.191,312.273 131.740 C 312.123 131.590,312.000 131.677,312.000 131.933 M94.120 137.200 C 94.120 138.410,94.195 138.905,94.287 138.300 C 94.378 137.695,94.378 136.705,94.287 136.100 C 94.195 135.495,94.120 135.990,94.120 137.200 M304.451 144.191 C 302.728 146.061,302.535 146.400,303.200 146.400 C 303.420 146.400,303.600 146.152,303.600 145.848 C 303.600 145.545,304.343 144.645,305.252 143.848 C 306.161 143.052,306.724 142.400,306.503 142.400 C 306.282 142.400,305.359 143.206,304.451 144.191 M94.120 144.800 C 94.120 146.010,94.195 146.505,94.287 145.900 C 94.378 145.295,94.378 144.305,94.287 143.700 C 94.195 143.095,94.120 143.590,94.120 144.800 M134.624 147.387 C 135.642 148.158,136.224 148.167,135.457 147.400 C 135.127 147.070,134.630 146.800,134.352 146.800 C 134.069 146.800,134.188 147.058,134.624 147.387 M197.293 150.800 C 197.293 151.570,197.375 151.885,197.476 151.500 C 197.576 151.115,197.576 150.485,197.476 150.100 C 197.375 149.715,197.293 150.030,197.293 150.800 M196.400 155.624 C 196.400 157.404,196.548 158.356,196.800 158.200 C 197.020 158.064,197.200 156.793,197.200 155.376 C 197.200 153.925,197.025 152.800,196.800 152.800 C 196.571 152.800,196.400 154.008,196.400 155.624 M292.140 161.200 C 292.140 163.070,292.209 163.835,292.293 162.900 C 292.377 161.965,292.377 160.435,292.293 159.500 C 292.209 158.565,292.140 159.330,292.140 161.200 M197.320 161.600 C 197.320 162.810,197.395 163.305,197.487 162.700 C 197.578 162.095,197.578 161.105,197.487 160.500 C 197.395 159.895,197.320 160.390,197.320 161.600 M174.501 163.200 C 174.590 163.530,175.099 163.833,175.631 163.874 C 176.395 163.932,176.431 163.901,175.800 163.728 C 175.360 163.607,174.851 163.303,174.670 163.054 C 174.451 162.754,174.394 162.804,174.501 163.200 M195.505 167.083 C 196.002 167.179,196.722 167.175,197.105 167.075 C 197.487 166.975,197.080 166.896,196.200 166.901 C 195.320 166.905,195.007 166.987,195.505 167.083 M291.314 174.200 C 291.317 175.300,291.395 175.703,291.487 175.095 C 291.579 174.486,291.577 173.586,291.482 173.095 C 291.387 172.603,291.311 173.100,291.314 174.200 M94.611 175.334 C 95.778 176.123,96.800 176.428,96.800 175.987 C 96.800 175.774,96.440 175.600,96.000 175.600 C 95.560 175.600,95.200 175.420,95.200 175.200 C 95.200 174.980,94.890 174.800,94.511 174.800 C 93.909 174.800,93.922 174.867,94.611 175.334 M97.918 177.028 C 98.411 177.373,99.127 177.574,99.507 177.474 C 100.020 177.340,99.966 177.281,99.300 177.246 C 98.805 177.221,98.400 177.020,98.400 176.800 C 98.400 176.580,98.090 176.400,97.711 176.400 C 97.147 176.400,97.185 176.514,97.918 177.028 M290.493 180.400 C 290.493 181.170,290.575 181.485,290.676 181.100 C 290.776 180.715,290.776 180.085,290.676 179.700 C 290.575 179.315,290.493 179.630,290.493 180.400 M289.754 183.777 C 289.632 184.094,289.617 184.679,289.720 185.077 C 289.846 185.564,289.922 185.452,289.954 184.733 C 289.979 184.147,290.225 183.576,290.500 183.465 C 290.892 183.307,290.889 183.256,290.487 183.232 C 290.206 183.214,289.875 183.459,289.754 183.777 M288.150 191.387 C 288.026 191.710,288.017 192.205,288.131 192.487 C 288.244 192.769,288.351 192.610,288.368 192.133 C 288.386 191.657,288.625 191.176,288.900 191.065 C 289.292 190.907,289.289 190.856,288.887 190.832 C 288.606 190.814,288.274 191.064,288.150 191.387 M287.354 194.977 C 287.232 195.294,287.217 195.879,287.320 196.277 C 287.446 196.764,287.522 196.652,287.554 195.933 C 287.579 195.347,287.825 194.776,288.100 194.665 C 288.492 194.507,288.489 194.456,288.087 194.432 C 287.806 194.414,287.475 194.659,287.354 194.977 M117.800 217.072 C 118.240 217.193,118.749 217.497,118.930 217.746 C 119.149 218.046,119.206 217.996,119.099 217.600 C 119.010 217.270,118.501 216.967,117.969 216.926 C 117.205 216.868,117.169 216.899,117.800 217.072 M276.987 223.000 C 276.884 223.330,276.716 223.870,276.613 224.200 C 276.509 224.530,276.599 224.800,276.813 224.800 C 277.026 224.800,277.200 224.365,277.200 223.833 C 277.200 223.302,277.425 222.776,277.700 222.665 C 278.092 222.507,278.089 222.456,277.687 222.432 C 277.406 222.414,277.091 222.670,276.987 223.000 M110.000 223.429 C 110.000 223.554,110.270 223.927,110.600 224.257 C 111.251 224.908,111.333 224.811,110.957 223.833 C 110.729 223.238,110.000 222.930,110.000 223.429 M111.602 226.929 C 111.601 227.329,111.870 227.927,112.200 228.257 C 112.957 229.014,112.957 228.793,112.202 227.346 C 111.776 226.527,111.604 226.408,111.602 226.929 M274.911 227.300 C 274.194 228.228,273.951 228.800,274.276 228.797 C 274.454 228.795,274.808 228.345,275.062 227.797 C 275.568 226.706,275.512 226.523,274.911 227.300 M267.606 239.063 C 267.294 239.688,266.974 240.335,266.895 240.500 C 266.817 240.665,266.943 240.800,267.176 240.800 C 267.409 240.800,267.600 240.455,267.600 240.033 C 267.600 239.612,267.807 239.198,268.060 239.113 C 268.313 239.029,268.442 238.727,268.348 238.443 C 268.245 238.136,267.944 238.388,267.606 239.063 M264.621 243.177 C 264.234 243.604,264.012 244.189,264.127 244.477 C 264.289 244.880,264.344 244.869,264.368 244.431 C 264.386 244.119,264.698 243.534,265.062 243.131 C 265.426 242.729,265.634 242.400,265.524 242.400 C 265.414 242.400,265.008 242.750,264.621 243.177 M125.600 245.600 C 125.600 245.820,125.842 246.000,126.138 246.000 C 126.434 246.000,127.002 246.360,127.400 246.800 C 127.798 247.240,128.301 247.600,128.517 247.600 C 128.733 247.600,128.231 247.060,127.400 246.400 C 125.736 245.077,125.600 245.017,125.600 245.600 M258.048 251.620 C 257.221 252.740,257.212 252.799,257.947 252.340 C 258.388 252.065,258.833 251.516,258.937 251.120 C 259.191 250.149,259.097 250.201,258.048 251.620 M137.400 252.272 C 137.840 252.393,138.349 252.697,138.530 252.946 C 138.749 253.246,138.806 253.196,138.699 252.800 C 138.610 252.470,138.101 252.167,137.569 252.126 C 136.805 252.068,136.769 252.099,137.400 252.272 M150.105 255.487 C 150.714 255.579,151.614 255.577,152.105 255.482 C 152.597 255.387,152.100 255.311,151.000 255.314 C 149.900 255.317,149.497 255.395,150.105 255.487 M140.000 264.800 C 140.000 265.020,139.640 265.200,139.200 265.200 C 138.760 265.200,138.400 265.380,138.400 265.600 C 138.400 265.820,138.100 266.000,137.733 266.000 C 137.367 266.000,137.186 266.119,137.331 266.264 C 137.566 266.499,141.200 264.877,141.200 264.537 C 141.200 264.462,140.930 264.400,140.600 264.400 C 140.270 264.400,140.000 264.580,140.000 264.800 M243.763 265.900 C 243.099 266.505,242.850 266.775,243.209 266.500 C 243.569 266.225,244.055 266.000,244.289 266.000 C 244.523 266.000,244.818 265.730,244.945 265.400 C 245.257 264.587,245.157 264.629,243.763 265.900 M112.000 274.333 C 112.000 274.590,111.415 274.827,110.700 274.860 C 109.421 274.919,109.419 274.923,110.549 275.091 C 111.695 275.262,112.791 274.658,112.273 274.140 C 112.123 273.990,112.000 274.077,112.000 274.333 M87.300 275.876 C 87.685 275.976,88.315 275.976,88.700 275.876 C 89.085 275.775,88.770 275.693,88.000 275.693 C 87.230 275.693,86.915 275.775,87.300 275.876 M104.300 275.882 C 104.795 275.978,105.605 275.978,106.100 275.882 C 106.595 275.787,106.190 275.709,105.200 275.709 C 104.210 275.709,103.805 275.787,104.300 275.882 M187.867 293.067 C 187.720 293.213,187.603 293.528,187.606 293.767 C 187.610 294.060,187.707 294.053,187.906 293.746 C 188.068 293.497,188.560 293.203,189.000 293.093 C 189.774 292.899,189.773 292.891,188.967 292.846 C 188.508 292.821,188.013 292.920,187.867 293.067 M138.100 295.476 C 138.485 295.576,139.115 295.576,139.500 295.476 C 139.885 295.375,139.570 295.293,138.800 295.293 C 138.030 295.293,137.715 295.375,138.100 295.476 M175.505 295.483 C 176.002 295.579,176.722 295.575,177.105 295.475 C 177.487 295.375,177.080 295.296,176.200 295.301 C 175.320 295.305,175.007 295.387,175.505 295.483 M144.505 296.287 C 145.114 296.379,146.014 296.377,146.505 296.282 C 146.997 296.187,146.500 296.111,145.400 296.114 C 144.300 296.117,143.897 296.195,144.505 296.287 M167.700 296.287 C 168.305 296.378,169.295 296.378,169.900 296.287 C 170.505 296.195,170.010 296.120,168.800 296.120 C 167.590 296.120,167.095 296.195,167.700 296.287 " stroke="none" fill="#444444" fill-rule="evenodd"></path><path id="path4" d="M237.043 109.033 C 236.893 109.423,236.982 109.606,237.275 109.508 C 237.873 109.309,238.202 108.400,237.676 108.400 C 237.461 108.400,237.176 108.685,237.043 109.033 M250.892 108.875 C 250.979 109.136,251.264 109.421,251.525 109.508 C 251.818 109.606,251.907 109.423,251.757 109.033 C 251.478 108.306,250.652 108.155,250.892 108.875 M214.975 118.900 L 213.800 120.200 215.100 119.025 C 215.815 118.379,216.400 117.794,216.400 117.725 C 216.400 117.416,216.070 117.688,214.975 118.900 M272.400 117.725 C 272.400 117.794,272.985 118.379,273.700 119.025 L 275.000 120.200 273.825 118.900 C 272.730 117.688,272.400 117.416,272.400 117.725 M104.400 122.600 C 105.146 123.370,105.847 124.000,105.957 124.000 C 106.067 124.000,105.546 123.370,104.800 122.600 C 104.054 121.830,103.353 121.200,103.243 121.200 C 103.133 121.200,103.654 121.830,104.400 122.600 M208.870 124.422 C 208.358 125.070,208.088 125.590,208.270 125.578 C 208.451 125.566,209.019 125.026,209.530 124.378 C 210.042 123.730,210.312 123.210,210.130 123.222 C 209.949 123.234,209.381 123.774,208.870 124.422 M107.860 126.211 C 107.989 126.547,108.478 127.022,108.947 127.265 C 109.732 127.673,109.722 127.624,108.830 126.654 C 107.715 125.442,107.532 125.358,107.860 126.211 M206.463 127.600 C 205.975 128.260,205.642 128.800,205.722 128.800 C 205.802 128.800,206.349 128.260,206.937 127.600 C 207.525 126.940,207.859 126.400,207.678 126.400 C 207.498 126.400,206.951 126.940,206.463 127.600 M299.968 127.907 C 297.220 130.881,296.659 131.766,299.113 129.259 C 300.494 127.847,301.563 126.629,301.487 126.553 C 301.410 126.477,300.727 127.086,299.968 127.907 M112.200 130.400 C 113.506 131.720,114.665 132.800,114.775 132.800 C 114.885 132.800,113.906 131.720,112.600 130.400 C 111.294 129.080,110.135 128.000,110.025 128.000 C 109.915 128.000,110.894 129.080,112.200 130.400 M95.300 129.488 C 95.025 129.586,94.800 129.935,94.800 130.262 C 94.800 130.767,94.898 130.759,95.448 130.210 C 96.152 129.506,96.090 129.206,95.300 129.488 M295.600 132.400 C 295.600 132.620,295.330 132.800,295.000 132.800 C 294.670 132.800,294.400 132.986,294.400 133.214 C 294.400 133.495,294.658 133.490,295.200 133.200 C 295.912 132.819,296.321 132.000,295.800 132.000 C 295.690 132.000,295.600 132.180,295.600 132.400 M313.315 133.052 C 312.840 134.074,312.847 134.082,313.615 133.387 C 314.412 132.665,314.646 131.997,314.100 132.003 C 313.935 132.005,313.582 132.477,313.315 133.052 M292.575 134.900 L 291.400 136.200 292.700 135.025 C 293.415 134.379,294.000 133.794,294.000 133.725 C 294.000 133.416,293.670 133.688,292.575 134.900 M116.988 134.781 C 117.118 134.991,117.804 135.551,118.512 136.026 L 119.800 136.890 118.446 135.645 C 117.081 134.390,116.554 134.078,116.988 134.781 M122.600 139.200 C 123.459 140.080,124.252 140.800,124.362 140.800 C 124.472 140.800,123.859 140.080,123.000 139.200 C 122.141 138.320,121.348 137.600,121.238 137.600 C 121.128 137.600,121.741 138.320,122.600 139.200 M308.744 139.100 C 307.206 140.957,306.934 141.468,307.944 140.604 C 308.805 139.868,309.825 138.400,309.476 138.400 C 309.392 138.400,309.063 138.715,308.744 139.100 M304.378 143.900 L 303.000 145.400 304.500 144.022 C 305.896 142.738,306.184 142.400,305.878 142.400 C 305.812 142.400,305.137 143.075,304.378 143.900 M132.623 146.567 C 133.461 147.180,133.840 147.113,133.416 146.427 C 133.271 146.192,132.859 146.000,132.500 146.000 C 131.954 146.000,131.974 146.093,132.623 146.567 M197.661 146.354 C 197.364 146.542,197.184 146.987,197.261 147.343 C 197.366 147.831,197.513 147.746,197.862 146.995 C 198.117 146.448,198.297 146.003,198.262 146.006 C 198.228 146.009,197.957 146.166,197.661 146.354 M94.000 147.881 C 94.000 148.339,94.270 148.818,94.600 148.945 C 95.352 149.233,95.347 148.828,94.587 147.824 C 94.010 147.061,94.000 147.062,94.000 147.881 M298.185 150.100 L 296.200 152.200 298.300 150.215 C 300.251 148.371,300.583 148.000,300.285 148.000 C 300.222 148.000,299.277 148.945,298.185 150.100 M197.331 155.400 C 197.333 156.940,197.405 157.521,197.492 156.691 C 197.579 155.861,197.577 154.601,197.489 153.891 C 197.400 153.181,197.329 153.860,197.331 155.400 M292.700 154.157 C 292.248 154.500,292.021 155.168,292.060 156.044 C 292.120 157.394,292.121 157.394,292.293 156.200 C 292.389 155.540,292.750 154.685,293.095 154.300 C 293.837 153.474,293.677 153.415,292.700 154.157 M173.300 163.076 C 173.685 163.176,174.000 163.425,174.000 163.629 C 174.000 163.833,174.174 164.000,174.387 164.000 C 174.601 164.000,174.671 163.730,174.545 163.400 C 174.418 163.070,173.929 162.821,173.457 162.846 C 172.781 162.883,172.748 162.931,173.300 163.076 M186.092 165.675 C 186.179 165.936,186.464 166.221,186.725 166.308 C 187.018 166.406,187.107 166.223,186.957 165.833 C 186.678 165.106,185.852 164.955,186.092 165.675 M192.400 166.600 C 192.400 166.969,192.746 167.182,193.300 167.154 C 193.985 167.118,194.032 167.063,193.495 166.923 C 193.107 166.822,192.893 166.573,193.019 166.370 C 193.144 166.166,193.057 166.000,192.824 166.000 C 192.591 166.000,192.400 166.270,192.400 166.600 M291.467 170.267 C 291.320 170.413,291.200 170.876,291.200 171.295 C 291.200 171.972,291.267 171.990,291.800 171.457 C 292.130 171.127,292.400 170.664,292.400 170.429 C 292.400 169.949,291.875 169.858,291.467 170.267 M108.900 180.100 C 108.991 180.375,109.399 180.664,109.805 180.743 C 110.483 180.875,110.491 180.834,109.900 180.243 C 109.132 179.475,108.670 179.408,108.900 180.100 M93.200 180.590 C 93.200 180.952,93.365 181.145,93.566 181.021 C 93.767 180.897,94.034 181.021,94.159 181.298 C 94.284 181.574,94.344 181.455,94.293 181.033 C 94.178 180.083,93.200 179.687,93.200 180.590 M290.446 182.067 C 290.421 182.433,290.175 182.814,289.900 182.912 C 289.625 183.010,289.495 183.195,289.612 183.323 C 290.038 183.793,290.873 182.882,290.686 182.152 C 290.531 181.548,290.484 181.531,290.446 182.067 M94.000 184.735 C 94.000 185.241,94.178 185.537,94.400 185.400 C 94.620 185.264,94.800 185.373,94.800 185.643 C 94.800 185.913,94.908 186.025,95.041 185.893 C 95.173 185.760,94.993 185.240,94.641 184.737 L 94.000 183.822 94.000 184.735 M282.800 209.000 C 282.392 209.491,282.420 209.600,282.951 209.600 C 283.308 209.600,283.600 209.330,283.600 209.000 C 283.600 208.670,283.532 208.400,283.449 208.400 C 283.366 208.400,283.074 208.670,282.800 209.000 M109.200 210.600 C 109.946 211.370,110.647 212.000,110.757 212.000 C 110.867 212.000,110.346 211.370,109.600 210.600 C 108.854 209.830,108.153 209.200,108.043 209.200 C 107.933 209.200,108.454 209.830,109.200 210.600 M128.942 221.092 C 129.104 221.362,129.042 221.947,128.804 222.392 C 128.567 222.836,128.513 223.194,128.686 223.187 C 129.113 223.170,130.584 222.038,130.371 221.891 C 130.277 221.826,129.850 221.510,129.423 221.187 C 128.960 220.837,128.766 220.798,128.942 221.092 M115.878 223.056 C 115.283 223.650,116.193 224.000,118.324 223.995 C 120.971 223.988,122.483 223.658,122.172 223.155 C 121.870 222.666,119.600 222.706,119.600 223.200 C 119.600 223.420,118.959 223.600,118.176 223.600 C 117.329 223.600,116.853 223.438,117.000 223.200 C 117.269 222.765,116.294 222.639,115.878 223.056 M118.000 237.600 C 118.235 238.040,118.630 238.400,118.876 238.400 C 119.122 238.400,118.998 238.040,118.600 237.600 C 118.202 237.160,117.808 236.800,117.724 236.800 C 117.640 236.800,117.765 237.160,118.000 237.600 M122.697 242.341 C 124.542 244.179,126.173 245.560,126.322 245.411 C 126.471 245.262,126.235 244.943,125.797 244.702 C 125.359 244.462,123.727 243.080,122.171 241.632 C 119.896 239.515,119.999 239.654,122.697 242.341 M264.975 242.500 L 263.800 243.800 265.100 242.625 C 265.815 241.979,266.400 241.394,266.400 241.325 C 266.400 241.016,266.070 241.288,264.975 242.500 M259.822 249.175 L 258.244 251.000 260.003 249.314 C 260.970 248.386,261.680 247.565,261.580 247.488 C 261.481 247.412,260.690 248.171,259.822 249.175 M257.260 251.842 C 256.962 252.178,256.799 252.532,256.895 252.629 C 256.992 252.726,257.398 252.444,257.798 252.002 C 258.197 251.561,258.361 251.207,258.162 251.215 C 257.963 251.224,257.557 251.505,257.260 251.842 M138.655 252.600 C 138.782 252.930,139.149 253.200,139.471 253.200 C 139.979 253.200,139.978 253.120,139.457 252.600 C 139.127 252.270,138.760 252.000,138.641 252.000 C 138.522 252.000,138.529 252.270,138.655 252.600 M251.993 257.900 L 247.400 262.600 252.100 258.007 C 254.685 255.480,256.800 253.365,256.800 253.307 C 256.800 253.018,256.260 253.534,251.993 257.900 M153.794 255.590 C 153.926 255.805,153.442 256.540,152.717 257.225 L 151.400 258.470 152.900 257.335 C 154.339 256.246,154.867 255.200,153.976 255.200 C 153.743 255.200,153.661 255.376,153.794 255.590 M245.479 263.900 C 244.682 264.505,244.023 265.143,244.015 265.319 C 244.007 265.494,244.720 265.059,245.600 264.352 C 247.074 263.168,247.421 262.800,247.064 262.800 C 246.990 262.800,246.276 263.295,245.479 263.900 M237.185 270.784 C 236.423 271.435,235.945 271.975,236.122 271.984 C 236.299 271.993,237.019 271.461,237.722 270.802 C 239.371 269.256,238.987 269.243,237.185 270.784 M92.800 275.957 C 92.800 276.747,96.555 277.123,98.700 276.548 C 100.223 276.140,99.698 275.600,97.776 275.600 C 96.663 275.600,96.049 275.756,96.200 276.000 C 96.340 276.227,96.004 276.400,95.424 276.400 C 94.861 276.400,94.400 276.220,94.400 276.000 C 94.400 275.780,94.040 275.600,93.600 275.600 C 93.160 275.600,92.800 275.761,92.800 275.957 M194.800 291.571 C 194.800 291.775,194.485 292.024,194.100 292.124 C 193.548 292.269,193.581 292.317,194.257 292.354 C 194.729 292.379,195.218 292.130,195.345 291.800 C 195.471 291.470,195.401 291.200,195.187 291.200 C 194.974 291.200,194.800 291.367,194.800 291.571 M131.455 294.200 C 131.582 294.530,131.949 294.800,132.271 294.800 C 132.779 294.800,132.778 294.720,132.257 294.200 C 131.927 293.870,131.560 293.600,131.441 293.600 C 131.322 293.600,131.329 293.870,131.455 294.200 M182.884 294.215 C 182.460 294.696,182.470 294.800,182.941 294.800 C 183.257 294.800,183.618 294.530,183.745 294.200 C 184.036 293.441,183.560 293.449,182.884 294.215 M135.772 295.029 C 136.118 295.375,136.716 295.576,137.101 295.476 C 137.766 295.302,137.766 295.291,137.100 295.246 C 136.715 295.221,136.400 295.020,136.400 294.800 C 136.400 294.580,136.117 294.400,135.771 294.400 C 135.200 294.400,135.200 294.457,135.772 295.029 M179.067 294.667 C 178.684 295.049,178.738 295.600,179.157 295.600 C 179.354 295.600,179.618 295.330,179.745 295.000 C 179.979 294.390,179.553 294.181,179.067 294.667 M140.990 295.848 C 141.347 296.204,141.738 296.396,141.859 296.274 C 142.215 295.918,141.606 295.200,140.948 295.200 C 140.425 295.200,140.431 295.288,140.990 295.848 M172.984 295.627 C 172.528 296.364,173.132 296.525,173.810 295.848 C 174.369 295.288,174.375 295.200,173.852 295.200 C 173.519 295.200,173.129 295.392,172.984 295.627 M148.582 296.639 C 148.952 297.009,149.506 297.168,149.899 297.017 C 150.724 296.701,149.893 296.016,148.671 296.006 C 148.004 296.001,147.997 296.054,148.582 296.639 M163.698 296.266 C 162.980 296.555,163.498 297.200,164.447 297.200 C 164.887 297.200,165.144 297.034,165.019 296.830 C 164.893 296.627,165.107 296.378,165.495 296.277 C 165.957 296.156,165.856 296.088,165.200 296.078 C 164.650 296.070,163.974 296.154,163.698 296.266 " stroke="none" fill="#343434" fill-rule="evenodd"></path></g></svg>